<?xml version="1.0" standalone="no"?><!DOCTYPE svg PUBLIC "-//W3C//DTD SVG 1.1//EN" "http://www.w3.org/Graphics/SVG/1.1/DTD/svg11.dtd"><svg t="1720867702693" class="icon" viewBox="0 0 1024 1024" version="1.1" xmlns="http://www.w3.org/2000/svg" p-id="1018" xmlns:xlink="http://www.w3.org/1999/xlink" width="512" height="512"><path d="M0 0m512 0l0 0q512 0 512 512l0 0q0 512-512 512l0 0q-512 0-512-512l0 0q0-512 512-512Z" fill="#B6CEFF" p-id="1019"></path><path d="M153.6 153.6m358.4 0l0 0q358.4 0 358.4 358.4l0 0q0 358.4-358.4 358.4l0 0q-358.4 0-358.4-358.4l0 0q0-358.4 358.4-358.4Z" fill="#6B9CFF" p-id="1020"></path><path d="M399.055989 457.579028m-74.989691 21.502948a78.011733 78.011733 0 1 0 149.979382-43.005896 78.011733 78.011733 0 1 0-149.979382 43.005896Z" fill="#FFFFFF" p-id="1021"></path><path d="M387.357929 464.892634l4.40086-19.01637 312.445428 72.452523-4.405564 18.999964z" fill="#FFFFFF" p-id="1022"></path><path d="M396.36827 471.115164l-10.832011-16.22856 229.073946-153.03776 10.832011 16.22856z" fill="#FFFFFF" p-id="1023"></path><path d="M614.60859 324.75254m-46.870608 13.43993a48.759467 48.759467 0 1 0 93.741215-26.879861 48.759467 48.759467 0 1 0-93.741215 26.879861Z" fill="#FFFFFF" p-id="1024"></path><path d="M692.501453 525.625987m-46.870608 13.43993a48.759467 48.759467 0 1 0 93.741215-26.87986 48.759467 48.759467 0 1 0-93.741215 26.87986Z" fill="#FFFFFF" p-id="1025"></path><path d="M438.235594 720.277769m-46.870608 13.439931a48.759467 48.759467 0 1 0 93.741216-26.879861 48.759467 48.759467 0 1 0-93.741216 26.879861Z" fill="#FFFFFF" p-id="1026"></path><path d="M382.599873 451.023672l19.260053-3.108127 42.188695 261.676108-19.260052 3.108127z" fill="#FFFFFF" p-id="1027"></path></svg>