<?xml version="1.0" standalone="no"?><!DOCTYPE svg PUBLIC "-//W3C//DTD SVG 1.1//EN" "http://www.w3.org/Graphics/SVG/1.1/DTD/svg11.dtd"><svg t="1727193498694" class="icon" viewBox="0 0 1024 1024" version="1.1" xmlns="http://www.w3.org/2000/svg" p-id="153852" xmlns:xlink="http://www.w3.org/1999/xlink" width="512" height="512"><path d="M1023.910943 511.999898c5.11911 317.794367-194.116663 516.825376-511.91103 511.911029-317.794367 4.914346-516.825376-194.116663-511.91103-511.911029C-4.825463 194.20553 194.205546-4.825478 511.999913 0.088868c317.794367-4.914346 516.825376 194.116663 511.91103 511.91103z" fill="#4ED89D" p-id="153853"></path><path d="M1022.477592 566.671996C1006.915497 340.40732 852.318366 201.16752 614.382119 204.85328c-254.112635-4.095288-413.624112 155.416189-409.528824 409.528824-3.890524 237.936247 135.554041 392.533378 361.613952 408.095473 268.036615-16.381153 439.629192-187.97373 456.010345-455.805581z" fill="#44D39C" p-id="153854"></path><path d="M1015.515602 629.944199C985.824762 491.523456 876.480566 407.160519 716.764325 409.617692c-190.635668-3.071466-310.218084 116.51095-307.146618 307.146618-2.457173 159.716241 81.905765 269.060437 220.121743 298.751277 211.112109-34.400421 351.375731-174.664043 385.776152-385.571388z" fill="#3ACC97" p-id="153855"></path><path d="M997.701098 705.707031C964.734028 646.734881 902.076118 613.153517 819.146531 614.382104c-127.1587-2.047644-206.812056 77.605712-204.764412 204.764412-1.433351 82.929587 32.352777 145.587497 91.120163 178.554567a431.233852 431.233852 0 0 0 292.198816-291.994052z" fill="#30C694" p-id="153856"></path><path d="M604.962956 781.674628l-81.905765 54.467334a20.476441 20.476441 0 0 1-22.728849 0l-81.905765-54.467334a373.285523 373.285523 0 0 1-163.81153-275.20337l-18.428797-193.502369a61.429324 61.429324 0 0 1 44.229113-64.910318l214.797868-61.429324a61.429324 61.429324 0 0 1 33.786128 0l214.797868 61.429324a61.429324 61.429324 0 0 1 44.229113 64.910318l-18.428797 193.502369a373.285523 373.285523 0 0 1-164.630587 275.20337z" fill="#BDEFD1" p-id="153857"></path><path d="M483.128131 593.905662a30.714662 30.714662 0 0 1-21.705028-9.009634l-86.82011-86.82011a30.714662 30.714662 0 0 1 43.410055-43.410056l65.115083 65.115083 122.858647-122.858647a30.714662 30.714662 0 0 1 43.410055 43.410055l-144.563674 145.382733a30.714662 30.714662 0 0 1-21.705028 8.190576z" fill="#FFFFFF" p-id="153858"></path></svg>