<?xml version="1.0" standalone="no"?>
<!DOCTYPE svg PUBLIC "-//W3C//DTD SVG 1.1//EN" "http://www.w3.org/Graphics/SVG/1.1/DTD/svg11.dtd">
<svg t="1724642894121" class="icon" viewBox="0 0 1024 1024" version="1.1" xmlns="http://www.w3.org/2000/svg" p-id="1181" xmlns:xlink="http://www.w3.org/1999/xlink" width="512" height="512">
<path d="M509.44 942.08A432.64 432.64 0 1 1 942.08 509.44 433.152 433.152 0 0 1 509.44 942.08z m0-799.50336A366.86336 366.86336 0 1 0 876.30336 509.44 367.2832 367.2832 0 0 0 509.44 142.57664z m154.99776 434.35008c-65.536 0-116.91008-65.88928-116.91008-150.016s51.3536-150.016 116.91008-150.016 116.91008 65.88416 116.91008 150.016-51.34848 150.016-116.91008 150.016z m0-234.21952c-24.18176 0-51.13856 34.5856-51.13856 84.21888s26.9568 84.224 51.13856 84.224 51.13344-34.59072 51.13344-84.224-26.9312-84.21888-51.13344-84.21888zM529.8176 817.9712a121.2672 121.2672 0 0 1-49.86368-11.22816 184.35072 184.35072 0 0 1-101.98528-176.64c3.70688-37.376 22.14912-68.22912 50.59072-84.64896 56.77056-32.768 134.19008-1.39776 176.24576 71.4496 42.05568 72.83712 30.52544 155.5712-26.25536 188.34944a96.82432 96.82432 0 0 1-48.73216 12.71808zM477.184 598.55872a31.232 31.232 0 0 0-15.73888 3.86048c-13.50656 7.79776-17.08544 24.7552-18.0224 34.17088a119.0144 119.0144 0 0 0 63.63648 110.22336c8.61696 3.89632 25.088 9.28256 38.59968 1.47456 20.95104-12.09344 26.99776-55.51616 2.18112-98.49344-19.52256-33.82272-48.83968-51.23584-70.656-51.23584z m-141.0304-51.36384a97.67424 97.67424 0 0 1-52.80256-15.03744c-27.75552-17.5616-44.92288-49.152-47.104-86.6304a175.72352 175.72352 0 0 1 28.53376-102.6304 175.71328 175.71328 0 0 1 80.5376-69.71392c34.816-14.08 70.7072-12.0832 98.46272 5.49376s44.91776 49.152 47.104 86.63552A175.77984 175.77984 0 0 1 462.336 467.93728c-31.88736 50.41152-80.72192 79.2576-126.1824 79.2576z m55.16288-217.6a59.01824 59.01824 0 0 0-21.34528 4.56704 119.0144 119.0144 0 0 0-68.06528 107.52c0.55296 9.45152 3.44576 26.53696 16.61952 34.88256 20.4288 12.92288 61.71136-1.88416 88.25344-43.82208a111.3344 111.3344 0 0 0 18.432-63.63136c-0.55296-9.4464-3.43552-26.53696-16.61952-34.87232a31.79008 31.79008 0 0 0-17.27488-4.64384z" fill="#fff" p-id="1183"></path>
</svg>