<?xml version="1.0" standalone="no"?><!DOCTYPE svg PUBLIC "-//W3C//DTD SVG 1.1//EN" "http://www.w3.org/Graphics/SVG/1.1/DTD/svg11.dtd"><svg t="1733103554992" class="icon" viewBox="0 0 1024 1024" version="1.1" xmlns="http://www.w3.org/2000/svg" p-id="23405" xmlns:xlink="http://www.w3.org/1999/xlink" width="200" height="200"><path d="M443 191c50.4-20.8 107-25.8 160.3-14.4 53.3 11.3 103.1 38.7 140.9 78 37.6 38.7 63 88.8 73.2 141.7 11.3 57.7 3.5 118.8-21.7 171.9-11.3 24-26 46.3-43.4 66.3-5.6 6.5-11.9 12.4-17.9 18.5-14.6-5.8-29.5-10.9-44.3-16.3-23.7-8.8-47.5-17.1-71.3-25.4-7.9-2.6-15.8-5.9-24.2-6.3-4.7-0.2-9.2 1-13.6 2.6-5.1 1.8-10.1 3.8-14.7 6.7-10.7 8.4-20 19.2-24.6 32.2-4 11.1-4.1 23.4-1.2 34.8 3.3 13.4 10.8 25.2 16.6 37.5-31.1-1.8-62.1-6.3-91.9-15.2-6.4-1.4-12.5-3.7-18.5-6.2-8.8-3.8-17.8-7.5-26-12.5-45.7-24.8-84.2-62.1-111.6-106.2-5.6-9.6-11.1-19.3-15.5-29.5-10.9-28.1-17.2-58-18.7-88.1-2.9-58.8 13.3-118.4 45.7-167.5 29.6-45.4 72.8-81.4 122.4-102.6m11.5 110.3c-4.4 4.9-5.5 12.5-2.5 18.4 1.7 3.7 4.9 6.2 7.8 8.8l69.6 62.1c1.1 1.1 2.5 1.9 3.2 3.3 0.2 3.5 0 7.1 0.1 10.6h-61.9c-7 0-14.1 3.3-17.9 9.3-3.5 5.3-3.6 12.6-0.1 18 3.8 6.1 11 9.6 18.1 9.5h61.9v36.8H471c-7.5-0.1-15.2 3.8-18.8 10.6-2.8 5.2-2.5 11.9 0.7 16.9 3.8 6 11 9.4 18 9.3h61.8V565c0 3.6-0.3 7.3 1 10.7 2 5.6 6.9 9.8 12.4 11.7 8.5 2.9 19 0.3 24.4-7 2.3-3 3.5-6.8 3.5-10.6V515h61.8c7.4 0.1 14.9-3.7 18.5-10.2 3-5.2 2.9-11.9-0.3-17-3.8-6.2-11.1-9.7-18.2-9.6h-61.7v-36.8h61.8c7.5 0.1 15.1-3.8 18.7-10.5 2.9-5.3 2.6-12.1-0.7-17-3.8-6-11-9.3-17.9-9.3-20.6-0.1-41.2 0-61.8 0v-10.7c25.4-22.7 50.9-45.4 76.3-68.2 3.1-2.7 5.3-6.4 5.9-10.5 1-5.6-1.3-11.4-5.4-15.2-7.8-7.5-21.2-7.7-29.3-0.6-22.7 20.2-45.4 40.5-68.1 60.8-22.8-20.3-45.5-40.6-68.3-60.9-8.8-7.7-23.4-6.8-30.8 2z" fill="#FC573B" p-id="23406"></path><path d="M203.6 580.2c6.2-9.2 18.5-12.5 29.1-10.7 8 1.6 15.9 4.5 22.5 9.3 9.6 7.7 17.8 17 26.5 25.7 20.1 20.6 40.6 40.9 61.4 60.8 11.7 10 23.5 19.9 35.8 29 11.1 8.3 22.9 15.7 35 22.5 24.1 13 50.6 20.7 77.4 26 33.5 6.4 67.7 8.7 101.7 8.9 5.6-0.1 11.5-0.7 16.5-3.5 3.4-1.8 6-5.4 5.8-9.4-0.2-4.8-2.1-9.5-5.3-13-5.4-5.2-9.9-11.2-14.8-16.8-9.8-11.3-19.7-23-25.4-37.1-1.7-4.4-2.3-9.3-1.5-13.9 1.5-8.1 7.2-14.5 13.2-19.8 5-4.4 12.2-6.3 18.7-4.3 21.8 8.9 44.4 15.9 66.4 24.3 41.4 16.4 83.3 31.7 124.9 47.7 12.8 5.3 25.9 9.9 38.1 16.3v131.3H505.5c-17-0.1-34.1 0.7-50.9-2.1-28.1-4.3-55-14.3-80.2-27.2-23.7-12.2-45.9-27.1-66.7-43.8-21.4-17.3-41.3-36.6-59.1-57.6-15.6-18.6-29.7-38.7-40.4-60.6-6.9-14.4-12.4-29.7-13.8-45.6-0.9-12.8 1.3-26.3 9.2-36.4z" fill="#FD907E" p-id="23407"></path></svg>