<?xml version="1.0" standalone="no"?><!DOCTYPE svg PUBLIC "-//W3C//DTD SVG 1.1//EN" "http://www.w3.org/Graphics/SVG/1.1/DTD/svg11.dtd"><svg t="1727193611603" class="icon" viewBox="0 0 1024 1024" version="1.1" xmlns="http://www.w3.org/2000/svg" p-id="160189" xmlns:xlink="http://www.w3.org/1999/xlink" width="512" height="512"><path d="M0 0m435.2 0l153.6 0q435.2 0 435.2 435.2l0 153.6q0 435.2-435.2 435.2l-153.6 0q-435.2 0-435.2-435.2l0-153.6q0-435.2 435.2-435.2Z" fill="#1296db" p-id="160190" data-spm-anchor-id="a313x.search_index.0.i26.1c553a81zI5OvT" class=""></path><path d="M512 243.2c-141.3248 0-256.96 115.968-256.96 257.728v270.592l149.0304-159.7824v-90.2016c0-61.8496 48.832-110.8224 110.5024-110.8224s110.4896 48.9728 110.4896 110.8224v90.2016l149.0432 159.7952V500.928C768.96 359.168 653.312 243.2 512 243.2zM310.656 780.8h389.2992l-114.2016-148.3008h-160.896L310.656 780.8z m180.224-148.3008h30.8992l2.048 46.336h-37.0688c2.0608 0 4.1216-46.336 4.1216-46.336z m-8.7552 74.1504h46.3488l4.6336 46.336h-55.616l4.6336-46.336z" fill="#FFFFFF" p-id="160191"></path></svg>