<?xml version="1.0" standalone="no"?><!DOCTYPE svg PUBLIC "-//W3C//DTD SVG 1.1//EN" "http://www.w3.org/Graphics/SVG/1.1/DTD/svg11.dtd"><svg t="1747817053689" class="icon" viewBox="0 0 1024 1024" version="1.1" xmlns="http://www.w3.org/2000/svg" p-id="8290" xmlns:xlink="http://www.w3.org/1999/xlink" width="512" height="512"><path d="M653.3 141.2v-5.5c0-34.1-28.2-61.7-63-61.7H435.7c-34.8 0-63 27.6-63 61.7v5.5c0 10.7-8.9 19.4-19.8 19.4H244.7c-44 0-79.7 34.9-79.7 78v592.5c0 43.1 35.7 78 79.7 78h536.7c44 0 79.7-34.9 79.7-78V238.6c0-43.1-35.7-78-79.7-78H673.1c-10.9 0-19.8-8.7-19.8-19.4z" fill="#0DCEA7" p-id="8291"></path><path d="M645.2 105.4C634.4 86.6 613.9 74 590.3 74H435.7c-16.5 0-31.5 6.2-42.7 16.3 32.4-7.6 66.1-11.6 100.8-11.6 53.2 0 104.2 9.4 151.4 26.7zM861 275v-36.4c0-43.1-35.7-78-79.7-78H750c43.5 31.1 81.2 69.9 111 114.4zM703 909.1h78.4c44 0 79.7-34.9 79.7-78v-65.7C821 825.3 766.7 874.8 703 909.1zM237.1 160.9c-35.5 3.3-64.2 29.3-70.7 63.1 21.2-23.4 45-44.6 70.7-63.1zM165 814.9v16.2c0 43.1 35.7 78 79.7 78h40c-45.3-24.3-85.7-56.3-119.7-94.2z" fill="#0DCEA7" p-id="8292"></path><path d="M300.7 160.6h-56c-2.5 0-5 0.1-7.5 0.4-25.8 18.5-49.5 39.6-70.7 63.1-0.9 4.7-1.4 9.6-1.4 14.6V278c35-49.2 81.6-89.6 135.6-117.4zM861 765.4V275c-29.8-44.5-67.5-83.3-111-114.4h-76.8c-10.9 0-19.8-8.7-19.8-19.4v-5.5c0-11-3-21.4-8.1-30.3C598 88.1 547 78.7 493.8 78.7c-34.7 0-68.4 4-100.8 11.6-11.7 10.6-19.3 25.4-20.2 42.1 32.5-9 66.8-13.9 102.2-13.9 210.4 0 381 170.6 381 381s-170.6 381-381 381c-127.8 0-240.9-62.9-310-159.5v93.8c34 37.9 74.4 69.9 119.6 94.3H703c63.7-34.3 118-83.8 158-143.7z" fill="#1DD49C" p-id="8293"></path><path d="M475 880.5c210.4 0 381-170.6 381-381s-170.6-381-381-381c-35.4 0-69.7 4.8-102.2 13.9-0.1 1.1-0.1 2.2-0.1 3.3v5.5c0 10.7-8.9 19.4-19.8 19.4h-52.2c-54 27.8-100.6 68.2-135.7 117.3v66.8c50.7-110.1 162-186.5 291.2-186.5 177 0 320.5 143.5 320.5 320.5S633.2 799.2 456.2 799.2c-129.2 0-240.5-76.4-291.2-186.5V721c69.1 96.6 182.2 159.5 310 159.5z" fill="#2DDB92" p-id="8294"></path><path d="M456.2 799.2c177 0 320.5-143.5 320.5-320.5S633.2 158.2 456.2 158.2c-129.2 0-240.5 76.4-291.2 186.5v268.1c50.7 110 162 186.4 291.2 186.4zM437.4 198c143.6 0 260 116.4 260 260S581 718 437.4 718s-260-116.4-260-260 116.4-260 260-260z" fill="#3DE188" p-id="8295"></path><path d="M437.4 718c143.6 0 260-116.4 260-260S581 198 437.4 198s-260 116.4-260 260 116.4 260 260 260z m-18.8-480.3c110.2 0 199.5 89.3 199.5 199.5s-89.3 199.5-199.5 199.5-199.5-89.3-199.5-199.5 89.3-199.5 199.5-199.5z" fill="#4CE77D" p-id="8296"></path><path d="M418.6 636.7c110.2 0 199.5-89.3 199.5-199.5s-89.3-199.5-199.5-199.5S219.1 327 219.1 437.2s89.3 199.5 199.5 199.5z m-18.8-359.3c76.8 0 139 62.2 139 139s-62.2 139-139 139-139-62.2-139-139 62.2-139 139-139z" fill="#5CEE73" p-id="8297"></path><path d="M399.8 416.5m-139 0a139 139 0 1 0 278 0 139 139 0 1 0-278 0Z" fill="#6CF468" p-id="8298"></path><path d="M590.3 91.9c24.8 0 45 19.6 45 43.7v5.5c0 20.6 17 37.4 37.8 37.4h108.2c34 0 61.7 26.9 61.7 60V831c0 33.1-27.7 60-61.7 60H244.7c-34 0-61.7-26.9-61.7-60V238.6c0-33.1 27.7-60 61.7-60h108.2c20.9 0 37.8-16.8 37.8-37.4v-5.5c0-24.1 20.2-43.7 45-43.7l154.6-0.1m0-18H435.7c-34.8 0-63 27.6-63 61.7v5.5c0 10.7-8.9 19.4-19.8 19.4H244.7c-44 0-79.7 34.9-79.7 78V831c0 43.1 35.7 78 79.7 78h536.7c44 0 79.7-34.9 79.7-78V238.6c0-43.1-35.7-78-79.7-78H673.1c-10.9 0-19.8-8.7-19.8-19.4v-5.5c0-34.1-28.2-61.8-63-61.8z" fill="#0EC69A" p-id="8299"></path><path d="M687 343.3H339c-28.8 0-52.2 23.4-52.2 52.2v348c0 28.8 23.4 52.2 52.2 52.2h348c28.8 0 52.2-23.4 52.2-52.2v-348c0-28.8-23.4-52.2-52.2-52.2zM648.7 559L474.3 722.8c-9.2 8.6-24.3-0.6-19.8-12l38.2-96c2.9-7.4-2.9-15.3-11.3-15.3h-78.1c-10.6 0-16-11.9-8.7-19.1l166.1-163.8c9-8.9 24.5 0.1 20.1 11.6L544 524.5c-2.8 7.4 3 15.1 11.3 15.1h84.9c10.7 0 16.1 12.2 8.5 19.4z" fill="#9CFFBD" p-id="8300"></path><path d="M239.4 378.6c-9.9 0-18-8.1-18-18V236.5c0-9.9 8.1-18 18-18s18 8.1 18 18v124.1c0 9.9-8 18-18 18zM239.4 448.2c-9.9 0-18-8.1-18-18v-10.5c0-9.9 8.1-18 18-18s18 8.1 18 18v10.5c0 9.9-8 18-18 18z" fill="#FFFFFF" p-id="8301"></path></svg>