<?xml version="1.0" standalone="no"?><!DOCTYPE svg PUBLIC "-//W3C//DTD SVG 1.1//EN" "http://www.w3.org/Graphics/SVG/1.1/DTD/svg11.dtd"><svg t="1740620597547" class="icon" viewBox="0 0 1024 1024" version="1.1" xmlns="http://www.w3.org/2000/svg" p-id="27257" xmlns:xlink="http://www.w3.org/1999/xlink" width="200" height="200"><path d="M32 32m496 0l0 0q496 0 496 496l0 0q0 496-496 496l0 0q-496 0-496-496l0 0q0-496 496-496Z" fill="#323a6b" p-id="27258" data-spm-anchor-id="a313x.search_index.0.i6.15da3a81CaU74a" class=""></path><path d="M256 686.762667c0-21.290667 15.786667-40.106667 35.925333-47.317334l86.272-38.144s23.381333-7.125333 29.781334-14.250666c3.157333-3.498667 4.693333-12.928 3.114666-21.76a29.141333 29.141333 0 0 0-2.645333-7.509334c-4.821333-9.173333-40.277333-55.296-47.786667-98.816a93.013333 93.013333 0 0 1-1.621333-16.64c0-76.373333 50.602667-138.24 112.981333-138.24 38.528 0 72.576 23.594667 92.970667 59.648 12.970667 22.570667 20.608 50.090667 20.608 79.786667 0 49.493333-49.152 104.064-53.162667 117.461333-2.986667 9.813333-3.925333 18.090667-2.432 23.552a9.002667 9.002667 0 0 0 2.133334 3.413334c7.082667 6.869333 25.301333 13.909333 25.301333 13.909333l95.701333 36.992c13.738667 4.906667 25.429333 15.488 31.488 28.458667 3.328 6.528 5.248 13.653333 5.248 21.077333v10.112c0 23.253333-19.072 37.504-42.453333 37.504H298.453333c-23.381333 0-42.453333-14.250667-42.453333-37.504z m320.170667-398.762667c55.168 0 99.84 54.698667 99.84 122.197333 0 43.690667-43.306667 91.776-46.890667 103.637334-3.541333 11.818667-3.84 21.077333 0.170667 25.002666 6.272 6.144 22.4 12.373333 22.4 12.373334l84.565333 32.682666c17.792 6.314667 31.744 23.509333 31.744 42.325334v8.917333c0 20.48-16.810667 33.066667-37.461333 33.066667h-10.282667a84.906667 84.906667 0 0 0-16.938667-33.237334h27.221334a12.245333 12.245333 0 0 0 3.968-0.554666v-8.192c0-3.626667-3.925333-9.045333-9.6-11.093334a33.706667 33.706667 0 0 1-0.853334-0.298666l-84.48-32.682667c-6.826667-2.56-23.637333-9.728-33.749333-19.626667-9.813333-9.514667-14.037333-22.485333-12.714667-38.613333 0.512-6.058667 1.834667-12.629333 3.925334-19.626667 2.432-7.978667 7.253333-15.232 14.592-26.24l2.474666-3.669333c11.605333-17.536 28.458667-44.117333 28.458667-64.170667 0-25.045333-7.765333-48.298667-21.76-65.493333-12.373333-15.146667-28.245333-23.466667-44.629333-23.466667a159.573333 159.573333 0 0 0-30.592-27.392c9.642667-3.797333 19.925333-5.845333 30.592-5.845333z" fill="#ffffff" p-id="27259" data-spm-anchor-id="a313x.search_index.0.i11.15da3a81CaU74a" class=""></path></svg>