<?xml version="1.0" standalone="no"?><!DOCTYPE svg PUBLIC "-//W3C//DTD SVG 1.1//EN" "http://www.w3.org/Graphics/SVG/1.1/DTD/svg11.dtd"><svg t="1748329128613" class="icon" viewBox="0 0 1024 1024" version="1.1" xmlns="http://www.w3.org/2000/svg" p-id="29884" xmlns:xlink="http://www.w3.org/1999/xlink" width="512" height="512"><path d="M526.6176 709.4784a51.2 51.2 0 0 1 51.2 51.2V921.6a51.2 51.2 0 0 1-51.2 51.2H497.408a51.2 51.2 0 0 1-51.2-51.2v-160.9216a51.2 51.2 0 0 1 51.2-51.2h29.2352z m207.7696-68.1728l113.792 113.7664a51.2 51.2 0 0 1 0 72.4224l-20.6848 20.6848a51.2 51.2 0 0 1-72.4224 0l-113.7664-113.792a51.2 51.2 0 0 1 0-72.3968l20.6848-20.6848a51.2 51.2 0 0 1 72.3968 0z m-372.3776 0l20.6848 20.6848a51.2 51.2 0 0 1 0 72.3968l-113.7664 113.792a51.2 51.2 0 0 1-72.4224 0l-20.6848-20.6848a51.2 51.2 0 0 1 0-72.4224l113.792-113.7664a51.2 51.2 0 0 1 72.3968 0zM921.6 446.1824a51.2 51.2 0 0 1 51.2 51.2v29.2352a51.2 51.2 0 0 1-51.2 51.2h-160.9216a51.2 51.2 0 0 1-51.2-51.2V497.408a51.2 51.2 0 0 1 51.2-51.2H921.6z m-658.2784 0a51.2 51.2 0 0 1 51.2 51.2v29.2352a51.2 51.2 0 0 1-51.2 51.2H102.4a51.2 51.2 0 0 1-51.2-51.2V497.408a51.2 51.2 0 0 1 51.2-51.2h160.9216zM827.4944 175.8208l20.6848 20.6848a51.2 51.2 0 0 1 0 72.4224l-113.792 113.7664a51.2 51.2 0 0 1-72.3968 0l-20.6848-20.6848a51.2 51.2 0 0 1 0-72.3968l113.7664-113.792a51.2 51.2 0 0 1 72.4224 0z m-558.592 0l113.792 113.792a51.2 51.2 0 0 1 0 72.3968l-20.6848 20.6848a51.2 51.2 0 0 1-72.3968 0l-113.792-113.7664a51.2 51.2 0 0 1 0-72.4224l20.6848-20.6848a51.2 51.2 0 0 1 72.4224 0zM526.6432 51.2a51.2 51.2 0 0 1 51.2 51.2v160.9216a51.2 51.2 0 0 1-51.2 51.2H497.408a51.2 51.2 0 0 1-51.2-51.2V102.4a51.2 51.2 0 0 1 51.2-51.2h29.2352z" fill="#C8E8FF" p-id="29885"></path><path d="M734.3872 641.28l113.792 113.792a51.2 51.2 0 0 1 0 72.4224l-20.6848 20.6848a51.2 51.2 0 0 1-72.4224 0l-113.7664-113.792a51.2 51.2 0 0 1 0-72.3968l20.6848-20.6848a51.2 51.2 0 0 1 72.3968 0zM921.6 446.208a51.2 51.2 0 0 1 51.2 51.2v29.2352a51.2 51.2 0 0 1-51.2 51.2h-160.9216a51.2 51.2 0 0 1-51.2-51.2V497.408a51.2 51.2 0 0 1 51.2-51.2H921.6zM827.4944 175.8208l20.6848 20.6848a51.2 51.2 0 0 1 0 72.4224l-113.792 113.7664a51.2 51.2 0 0 1-72.3968 0l-20.6848-20.6848a51.2 51.2 0 0 1 0-72.3968l113.7664-113.792a51.2 51.2 0 0 1 72.4224 0z m-558.592 0l113.792 113.792a51.2 51.2 0 0 1 0 72.3968l-20.6848 20.6848a51.2 51.2 0 0 1-72.3968 0l-113.792-113.7664a51.2 51.2 0 0 1 0-72.4224l20.6848-20.6848a51.2 51.2 0 0 1 72.4224 0zM526.6432 51.2a51.2 51.2 0 0 1 51.2 51.2v160.9216a51.2 51.2 0 0 1-51.2 51.2H497.408a51.2 51.2 0 0 1-51.2-51.2V102.4a51.2 51.2 0 0 1 51.2-51.2h29.2352z" fill="#2876FF" p-id="29886"></path></svg>