<?xml version="1.0" standalone="no"?><!DOCTYPE svg PUBLIC "-//W3C//DTD SVG 1.1//EN" "http://www.w3.org/Graphics/SVG/1.1/DTD/svg11.dtd"><svg t="1748231839114" class="icon" viewBox="0 0 1024 1024" version="1.1" xmlns="http://www.w3.org/2000/svg" p-id="49984" xmlns:xlink="http://www.w3.org/1999/xlink" width="512" height="512"><path d="M0 0m512 0l0 0q512 0 512 512l0 0q0 512-512 512l0 0q-512 0-512-512l0 0q0-512 512-512Z" fill="#a77908" p-id="49985" data-spm-anchor-id="a313x.search_index.0.i11.2a383a81HZvxxT" class=""></path><path d="M686.60224 713.78944H330.8544a33.86368 33.86368 0 0 1-33.88416-33.88416v-288a33.86368 33.86368 0 0 1 33.88416-33.88416h355.75808a33.86368 33.86368 0 0 1 33.8944 33.8944v287.98976a33.86368 33.86368 0 0 1-33.8944 33.88416z" fill="#FFFFFF" p-id="49986"></path><path d="M432.4864 416.52224a33.10592 33.10592 0 0 1-33.08544-33.08544v-50.82112a33.10592 33.10592 0 0 1 33.08544-33.09568 33.10592 33.10592 0 0 1 33.09568 33.09568v50.82112a33.10592 33.10592 0 0 1-33.09568 33.08544z m152.4736 0a33.10592 33.10592 0 0 1-33.09568-33.08544v-50.82112a33.10592 33.10592 0 0 1 33.09568-33.09568 33.10592 33.10592 0 0 1 33.09568 33.09568v50.82112a33.10592 33.10592 0 0 1-33.09568 33.08544z" fill="#FFFFFF" p-id="49987"></path><path d="M499.69152 616.0896l-0.37888 0.37888a17.03936 17.03936 0 0 1-24.00256 0l-61.93152-61.93152a17.03936 17.03936 0 0 1 0-23.99232l0.37888-0.37888a17.03936 17.03936 0 0 1 24.00256 0l61.93152 61.93152c6.58432 6.67648 6.58432 17.408 0 23.99232z" fill="#FF9091" p-id="49988"></path><path d="M480.768 616.46848l-0.36864-0.37888a17.03936 17.03936 0 0 1 0-23.99232l99.28704-99.29728a17.03936 17.03936 0 0 1 24.00256 0l0.37888 0.37888a17.03936 17.03936 0 0 1 0 24.00256l-99.38944 99.28704a16.92672 16.92672 0 0 1-23.9104 0z" fill="#FF9091" p-id="49989"></path></svg>