<?xml version="1.0" standalone="no"?><!DOCTYPE svg PUBLIC "-//W3C//DTD SVG 1.1//EN" "http://www.w3.org/Graphics/SVG/1.1/DTD/svg11.dtd"><svg t="1727194251404" class="icon" viewBox="0 0 1024 1024" version="1.1" xmlns="http://www.w3.org/2000/svg" p-id="214297" xmlns:xlink="http://www.w3.org/1999/xlink" width="512" height="512"><path d="M51.2 512c2.048-152.7808 28.672-279.2448 106.1888-354.6112C232.7552 79.7696 359.3216 53.248 512 51.2c152.7808 2.048 279.2448 28.5696 354.6112 106.1888C944.2304 232.7552 970.752 359.2192 972.8 512c-2.048 152.7808-28.5696 279.2448-106.1888 354.6112C791.2448 944.2304 664.7808 970.752 512 972.8c-152.7808-2.048-279.2448-28.5696-354.6112-106.1888C79.872 791.2448 53.248 664.7808 51.2 512z" fill="#409EFF" p-id="214298"></path><path d="M713.1136 456.704L553.5744 304.5376c-22.1184-21.0944-61.0304-21.0944-83.1488 0L310.8864 456.704c-9.0112 8.6016-14.0288 19.6608-14.0288 31.1296v200.3968c0 25.9072 24.8832 47.0016 55.6032 47.0016h88.576c16.9984 0 30.72-11.6736 30.72-26.0096v-72.0896c0-16.2816 12.9024-31.1296 31.744-34.4064 25.8048-4.608 48.8448 12.1856 48.8448 33.28v73.216c0 14.336 13.7216 26.0096 30.72 26.0096h88.576c30.72 0 55.6032-20.992 55.6032-47.0016V487.8336c-0.1024-11.4688-5.12-22.528-14.1312-31.1296z" fill="#FFFFFF" p-id="214299"></path></svg>