<?xml version="1.0" standalone="no"?><!DOCTYPE svg PUBLIC "-//W3C//DTD SVG 1.1//EN" "http://www.w3.org/Graphics/SVG/1.1/DTD/svg11.dtd"><svg t="1695713240314" class="icon" viewBox="0 0 1024 1024" version="1.1" xmlns="http://www.w3.org/2000/svg" p-id="14947" xmlns:xlink="http://www.w3.org/1999/xlink" width="400" height="400"><path d="M937.51 195.12h-852a80.09 80.09 0 0 0-80 80v473a80.09 80.09 0 0 0 80 80h852a80.09 80.09 0 0 0 80-80v-473a80.09 80.09 0 0 0-80-80z m20 553a20 20 0 0 1-20 20h-852a20 20 0 0 1-20-20v-473a20 20 0 0 1 20-20h852a20 20 0 0 1 20 20z" fill="#3e5a6e" p-id="14948"></path><path d="M197.51 374.12l100 0 0 80-100 0 0-80Z" fill="#3e5a6e" p-id="14949"></path><path d="M197.51 570.12l100 0 0 80-100 0 0-80Z" fill="#3e5a6e" p-id="14950"></path><path d="M373.51 374.12l100 0 0 80-100 0 0-80Z" fill="#3e5a6e" p-id="14951"></path><path d="M373.51 570.12l276 0 0 80-276 0 0-80Z" fill="#3e5a6e" p-id="14952"></path><path d="M550.51 374.12l100 0 0 80-100 0 0-80Z" fill="#3e5a6e" p-id="14953"></path><path d="M726.51 374.12l100 0 0 80-100 0 0-80Z" fill="#3e5a6e" p-id="14954"></path><path d="M726.51 570.12l100 0 0 80-100 0 0-80Z" fill="#3e5a6e" p-id="14955"></path></svg>