<?xml version="1.0" standalone="no"?><!DOCTYPE svg PUBLIC "-//W3C//DTD SVG 1.1//EN" "http://www.w3.org/Graphics/SVG/1.1/DTD/svg11.dtd"><svg t="1739957556799" class="icon" viewBox="0 0 1024 1024" version="1.1" xmlns="http://www.w3.org/2000/svg" p-id="10304" xmlns:xlink="http://www.w3.org/1999/xlink" width="200" height="200"><path d="M683.20974287 637.19618181c-39.47550159-40.3820987-78.93982564-80.77537492-118.39918233-121.172377-0.93640385-0.9587577-1.74240685-2.04419163-3.04269083-3.58292351 3.20910738-3.42147557 6.25800837-6.77091859 9.41247207-10.01852594 44.93868449-46.23027526 89.99162493-92.34753733 134.77258611-138.72932576 11.85035059-12.27632731 24.50421987-24.25335293 33.92290088-38.28947232 18.84357215-28.09086923 21.36590109-58.99219156 7.44279488-89.98168894-6.98328678-15.54504697-16.03560334-30.2046079-28.66960187-42.31576023-25.69148947-24.63462074-53.89909894-42.97894329-91.62350046-40.42308175-22.94685878 1.5573611-43.03482849 9.89433401-59.76466196 25.28786781-12.76564093 11.74478787-24.32786736 24.79979452-36.45143875 37.24378112-6.14623551 6.31016895-12.35084174 12.56196718-19.03482683 19.35399928-1.01712843-1.52382973-1.31021998-2.17210941-1.78338991-2.63906918-19.97123069-19.74768618-38.49563037-41.30608348-60.29123401-58.78230767-31.59803677-25.33257671-67.4794361-27.65868237-104.03643878-9.79249713-26.83032554 13.11586167-47.33433719 33.4534568-62.50929386 58.84316148-18.83115308 31.50861895-20.82566842 63.98344609-3.35317007 97.07426429 6.63927618 12.57066041 16.49262714 22.17190407 26.28885131 32.13330205 49.21211229 50.05040511 98.10008595 100.41377253 147.05388081 150.71752889 3.14204464 3.23021968 5.86804733 6.86530499 9.12186361 10.7053044-4.02131931 4.29578286-7.52600374 8.17800806-11.17474846 11.91368748-45.69997737 46.76802484-91.48192207 93.45780819-137.10117607 140.30283177-14.27456729 14.65831939-29.55508668 28.32434851-37.8945439 48.0198741-11.43555019 27.00419376-11.16357093 53.60849047 1.72253609 79.3881562 17.1272462 34.26815302 43.13169798 59.7783238 79.30743284 74.0268114 29.42841166 11.58954766 57.35783173 6.71254907 84.08632041-8.18049237 14.98866939-8.35063474 25.65795809-21.76331381 37.4462121-33.85459537 10.94499502-11.22442476 22.40165751-21.95705279 31.9929652-31.30618675 14.9787334 13.94049266 30.67405198 27.01909712 44.53009423 41.8239623 17.58551276 18.78768572 37.73309474 31.98427197 63.24326552 36.5420993 25.99575856 4.641035 49.39219066-2.58566705 71.04994175-16.23306695 23.6485406-14.90049312 41.83513983-34.86054627 55.03172487-59.76838781 19.78245908-37.3431337 12.27632731-79.14598369-14.01500711-109.64740899C715.75039242 668.7557186 699.02304324 653.37212078 683.20974287 637.19618181zM377.3186946 308.37441968c-7.00936647-7.20310545-14.13423165-14.29816388-21.03182525-21.60807481-13.26364899-14.05599137-10.11539543-39.01847658 5.36258758-50.75953861 19.05842343-14.45961303 36.7730955-10.54758229 51.13459629 5.83824058 12.61536931 14.39255028 26.48258909 27.68600481 39.79218973 41.47001694 1.70763271 1.76972807 3.37055653 3.57795613 6.36978002 6.76967703-13.67472355 12.52346843-26.96072639 24.68926442-40.69506222 37.26986081 19.74768618 18.70696114 38.08455702 36.07886416 55.73961682 52.80621454 11.56595227-10.67674041 25.10033898-23.16791899 39.20476388-36.18939547 11.93852564 12.59549855 24.57376692 25.92000258 36.21547516 38.19881297 18.44491788-17.83513695 36.49614765-35.29149038 55.09754607-53.27938324-12.87741379-13.49837104-25.41330128-26.64279669-38.45340577-40.31379441 5.43834476-5.59358377 10.64941917-10.94499502 15.85304188-16.30385676 11.4516951-11.78701247 22.67612107-23.80502115 34.40973142-35.30390945 12.62903114-12.37692265 25.95974288-13.42882399 40.80186648-3.99523961 16.01573259 10.18245939 21.55964006 23.38525457 16.93474877 41.85252629-1.0084352 4.03001375-3.04269085 8.35311783-5.89412701 11.29273025-50.0789691 51.68103909-100.35664455 103.17330781-150.60327295 154.69165621-1.5809577 1.62442506-3.28362303 3.12714126-6.05309186 5.75130708-8.6673229-8.99891442-17.13593943-17.85997509-25.68031315-26.64652254C449.66892157 382.72040353 413.49194516 345.54865376 377.3186946 308.37441968zM657.90573014 792.20204188c-14.38012999 8.58783986-30.04440151 7.52724529-42.89821871-5.30421806-16.30385676-16.27032539-33.22494491-31.92217661-50.4416089-48.38002961 8.2127822-8.76295085 14.44967826-15.42085503 20.69029895-22.07379183 6.22323424-6.63555035 12.45143708-13.26240746 19.19130859-20.43819047-18.7032353-17.70473609-37.05004214-35.07043018-55.69614946-52.71803827-10.90152767 11.50882429-23.44610838 24.75384407-35.53738995 37.51700192-13.78525366-12.76564093-27.30101115-25.27917458-40.02566903-37.0649443-17.25516276 16.54354618-35.47653613 34.01356022-54.22199724 51.98158234 13.2872456 13.89205792 26.01687207 27.20041582 38.8694465 40.63917579-8.16434745 8.62261399-16.04305381 17.09123053-24.08445208 25.39839791-7.93210971 8.1916699-16.34608135 15.93500801-23.98634106 24.38375379-15.73878474 17.40543439-38.90422064 14.12429566-53.12787008-2.15596449-11.13749125-12.74825447-12.49738752-33.86825599 1.66540811-48.09935713 38.36522951-38.55151681 76.05361535-77.77366714 113.97920753-116.75861236 10.0383967-10.31782764 20.06064848-20.65304174 29.88295236-31.17578467 2.94457981-3.15446371 5.17878458-6.96714187 7.68248431-10.39979376 11.76093279 11.52496921 21.6813477 20.88652223 31.20310711 30.63927786 37.04755783 37.93304386 73.97092496 75.98903569 110.93775823 113.99907828 5.41474816 5.56750407 10.93133319 11.04310606 16.21692203 16.73107502C681.95913516 753.72131365 676.56177345 781.06206633 657.90573014 792.20204188z" fill="#d81e06" p-id="10305"></path><path d="M969.01778758 466.80175533c-16.21692204-51.6735874-54.37847779-80.63876513-107.08037116-82.08559491-33.92662672-0.93267801-63.95612486 9.84590048-89.08254352 32.6052292-14.26711681 12.92336423-27.29852806 27.21159335-40.26535966 40.26163383-15.76113979-14.73159229-32.73190422-30.59332741-48.62841349-45.45159472-17.41537038 16.72114025-35.66158066 34.23958903-54.20460956 52.04243616 15.83192837 16.43177332 31.27017108 32.45619914 48.11301774 49.94111654-16.60936738 15.54132112-32.60647075 30.51260283-49.18603261 46.03032736 19.43720694 18.63368826 37.70328921 36.14468657 55.08015961 52.80124594 16.11384362-15.18240715 33.02251269-31.11244778 50.04543773-47.1505342 0.24093097 0.26080173 0.93019372 0.85692082 1.43441192 1.5809577 13.30587481 19.0944391 29.75627734 34.92015855 48.52533384 48.69671776 23.62618554 17.34209748 49.86163473 24.87431017 78.89759983 24.06333979 26.91850179-0.75632549 51.29977127-8.42514917 71.64109225-26.51612168 24.94758305-22.18929053 36.47627689-51.29852974 41.37563052-83.46412039C978.97794401 508.52636505 975.54653366 487.60382715 969.01778758 466.80175533zM895.72619059 542.40082997c-12.00931545 20.3289019-34.62458269 22.7320075-52.16786963 17.40791869-21.0591477-6.39089354-36.45764889-21.02189049-51.17558055-36.50235779-11.661579-12.26390823-11.35979421-10.44698695 0.136611-21.67762186 10.06447638-9.83223865 20.5102218-19.54773826 32.00165842-27.57671624 14.64714187-10.23586153 31.3260575-14.85578422 49.26303133-9.25226447 16.10639193 5.03223879 30.50266806 22.50349439 29.30918712 48.09190544C903.76510457 523.17723276 901.20924304 533.12124428 895.72619059 542.40082997z" fill="#d81e06" p-id="10306"></path><path d="M287.74435316 568.40404142c0.98111276-1.49526574 1.59710261-3.23394553 2.53102217-5.16884859 17.63891488 18.45733695 33.51555216 35.07043018 47.87705416 50.09883986 18.74049373-17.77676743 37.07115444-35.16233106 57.13677032-54.19591635-16.52988556-15.38483936-32.55555292-30.29775155-48.95876225-45.56336757 16.57707756-17.23405046 32.00538427-33.26841105 47.93790798-49.82810215-18.71689713-18.11953527-36.76688535-35.58706623-55.12611128-53.36010781-15.49661221 16.22313218-31.38939441 32.86354785-47.63736473 49.87032795-1.43192762-1.35617043-2.31492934-2.07896576-3.06380315-2.91850013-10.59477428-11.89133365-20.26183916-24.7861339-31.92838554-35.50758441-30.80569439-28.31068789-66.80631827-41.49609662-109.29718946-35.78204676-33.98996363 4.57272949-60.78799933 20.37857819-78.08787221 49.54867121-23.8273762 40.17097326-28.88569469 82.65066693-12.65014345 127.59556035 22.43891473 62.12181591 75.51338269 84.67871365 134.79990735 74.88994114 20.97966589-3.46121588 39.56119355-13.82996256 56.1357868-27.10727217C262.76944889 598.67819637 276.85897163 585.0134088 287.74435316 568.40404142zM238.30497053 515.47860355c-16.10266609 17.78421911-32.29847583 35.65040435-56.00290285 43.60238361-5.55632655 1.86287172-11.51130738 2.53847385-17.28248522 3.75927603-23.40636687-0.46820132-40.98939532-16.5311271-43.423548-39.65309565-1.69272934-16.06168303-0.93019372-31.3993304 9.30939245-44.90763621 11.3622773-14.99239402 36.21299086-19.80481414 54.91871046-11.61066116 21.11875997 9.24853862 36.57066329 25.20465893 51.66489417 41.68114236C238.85141333 509.83906813 239.40779091 514.26276876 238.30497053 515.47860355z" fill="#d81e06" p-id="10307"></path></svg>