<?xml version="1.0" standalone="no"?><!DOCTYPE svg PUBLIC "-//W3C//DTD SVG 1.1//EN" "http://www.w3.org/Graphics/SVG/1.1/DTD/svg11.dtd"><svg t="1745570627057" class="icon" viewBox="0 0 1024 1024" version="1.1" xmlns="http://www.w3.org/2000/svg" p-id="16372" xmlns:xlink="http://www.w3.org/1999/xlink" width="200" height="200"><path d="M235.52 235.52h552.96v552.96H235.52z" fill="#FFFFFF" fill-opacity=".01" p-id="16373"></path><path d="M510.0475173 233.41976955c1.81580891-49.00731556 15.58081189-92.05955891 41.00213652-128.06333976 25.5384736-36.15997946 67.77067423-61.85465169 125.58368672-76.42017254l1.19101447 5.33027772v9.31334247c0 21.12586273-5.11550466 45.33664809-15.229365 71.968512-10.601981 25.79229635-27.13950943 50.06165621-49.14398935 71.96851203-20.57916758 19.31005382-39.59634898 32.09881547-56.42674979 37.87816424a182.55713166 182.55713166 0 0 1-22.35592681 4.74453294c-8.18090245 1.26911374-16.4008546 2.36250404-24.60128192 3.2801709z" fill="#000000" p-id="16374"></path><path d="M519.71230662 306.16927466c-65.31054604 0-110.64719413-57.75443802-175.04007331-57.75443805-64.43192884 0-197.10312773 59.19927519-197.1031277 263.58516339s117.83233043 336.06132091 131.01158862 351.4468845c13.17925817 15.38556359 43.65751299 54.90381329 90.86854446 54.9038133 47.23055632 0 98.91277315-37.54624218 150.26306793-37.54624217 51.33076997 0 115.93842222 37.54624218 158.11204839 37.54624217 42.17362613 0 59.55072211-17.18184768 88.25221765-46.85958462 28.70149558-29.65821209 83.46863508-120.17530966 102.58344063-174.49337814-31.49354582-18.74383382-115.00123055-69.66458244-115.00123055-184.99773504 0-76.88876839 28.11575076-140.77400206 84.32772747-191.63617618-36.88239804-47.97249974-79.64176899-71.9489872-128.27811286-71.94898721-73.00332784 0-124.70506951 57.75443802-189.99609073 57.75443805z" fill="#000000" p-id="16375"></path></svg>