<?xml version="1.0" standalone="no"?><!DOCTYPE svg PUBLIC "-//W3C//DTD SVG 1.1//EN" "http://www.w3.org/Graphics/SVG/1.1/DTD/svg11.dtd"><svg t="1738742196302" class="icon" viewBox="0 0 1024 1024" version="1.1" xmlns="http://www.w3.org/2000/svg" p-id="6184" xmlns:xlink="http://www.w3.org/1999/xlink" width="200" height="200"><path d="M575.996729 607.501121a63.931359 63.931359 0 1 0-63.931359 63.916931 63.931359 63.931359 0 0 0 63.931359-63.916931z m94.216152-158.219652a223.911252 223.911252 0 0 0-316.439304 0l67.812544 67.812544a127.76172 127.76172 0 0 1 180.814216 0l67.812544-67.812544z m108.427931-17.991967l68.880232-68.880232c125.943767 171.926443 101.487966 411.247014-56.54412 554.187202s-398.680051 143.228752-557.116126 0.663697-182.920733-382.635891-57.409812-554.894183l68.880232 68.923516a319.324945 319.324945 0 0 0 477.155036 415.820753c120.201343-105.325867 144.498433-282.605173 56.154558-415.820753z m-40.629814-49.762865l67.812545-67.812545a415.791897 415.791897 0 0 0-587.660628 0l67.812545 67.812545a319.411514 319.411514 0 0 1 452.035538 0zM150.364799 245.858262l-67.812545-67.812544a606.922276 606.922276 0 0 1 858.88195 0l-67.812545 67.812544a511.76829 511.76829 0 0 0-723.25686 0z" fill="#00A0E9" p-id="6185"></path></svg>