<?xml version="1.0" standalone="no"?><!DOCTYPE svg PUBLIC "-//W3C//DTD SVG 1.1//EN" "http://www.w3.org/Graphics/SVG/1.1/DTD/svg11.dtd"><svg t="1745571106584" class="icon" viewBox="0 0 4328 1024" version="1.1" xmlns="http://www.w3.org/2000/svg" p-id="27179" xmlns:xlink="http://www.w3.org/1999/xlink" width="845.3125" height="200"><path d="M1095.03497715 529.99679501V35.99359001h153.99496996v32.66983098c0 17.96375299 0.27922902 32.66982997 0.65153509 32.66983001 0.32576803 0 10.05225599-5.91035404 21.59373393-13.17031603C1407.53912418 2.81183899 1605.55925014-22.87725797 1783.19563519 21.75289498c160.09147698 40.16248399 276.11125899 135.612373 317.39066094 260.93979903 24.06026001 73.25115801 22.75719002 154.69304299-3.72305798 225.52421399-32.90252199 88.143389-100.52255498 158.97455893-198.11320202 207.56046105-85.39763402 42.442857-182.895204 63.71082301-292.16694496 63.71082295-90.60991399 0-175.12332201-15.12492101-249.53793606-44.630153a584.28735199 584.28735199 0 0 1-90.28414596-45.84014602l-17.68452401-11.54147897V1023.99999999h-154.088046V529.99679501z m586.05580399 118.16054098c86.65416601-12.28608999 153.85535493-39.79017798 204.30278603-83.53610499a232.45840899 232.45840899 0 0 0 74.78691893-129.51586597c4.14190199-20.56989299 4.14190199-69.20233301 0-89.77222705-11.820708-59.24315402-45.74707007-110.99365499-96.61334496-147.29346598-20.47681697-14.65953899-62.128524-35.50866201-88.70184699-44.444-75.01961102-25.22371498-166.00183101-32.71636902-249.305244-20.476817-144.640788 21.22142796-242.46412603 92.98336298-268.665144 197.13590004a244.18604001 244.18604001 0 0 0 5.77073896 138.96312495c34.76404993 98.474873 137.194672 164.04722499 281.97507506 180.38213999 29.086387 3.25767506 108.99251099 2.46652594 136.45006101-1.44268399z m510.71042598-118.16054098V35.99359001h154.08804606v32.66983098c0 17.96375299 0.32576803 32.66982997 0.744612 32.66983001 0.37230602 0 8.84226201-5.30535703 18.84797896-11.82070798 22.98988101-14.985307 68.45772202-37.46326706 97.59064699-48.21359602C2588.91183812-5.14619598 2742.53450211-12.63885003 2877.07649615 21.10135999c219.14847798 55.05471397 348.19896199 205.79200901 336.00594799 392.50334702-9.30764397 142.54656801-104.10599797 259.68326701-260.14864999 321.16025597-50.86627402 20.05797295-103.03561897 32.71636902-168.28220302 40.86055702-34.43828295 4.28151602-127.28203197 4.28151602-163.25607602 0-101.77908698-12.14647498-191.13246903-42.34978002-260.80018395-88.23646501l-14.65954005-9.63341201V1023.99999999h-154.08804599V529.99679501z m589.82539997 117.41592901c120.06860799-17.91721499 204.582015-66.27042502 249.02601506-142.36041499 25.82871201-44.21130899 35.50866201-102.98908103 25.92178798-157.57841302-19.91835799-113.46018-119.60322501-191.97015694-272.24858699-214.40157899-100.801784-14.752616-214.54119399 0-291.934253 37.835573-78.92882101 38.62672301-126.44434401 96.33411501-142.68618304 173.21525394-4.23497798 20.19758699-4.18843996 72.134241 0.046538 91.91298505 11.49494 53.28626203 37.46326706 97.35795603 76.88114 130.44663001 54.26356405 45.60745601 124.86204399 72.785776 216.49579903 83.30341401 30.296381 3.49036597 108.38751398 2.14075799 138.49774296-2.32691102zM458.67135711 778.464351c-81.72111401-7.21342394-151.48190599-23.31564798-210.81813595-48.67897793C113.03199713 672.171057 27.77397812 574.90617699 4.64448313 452.184891 0.22335217 428.72962796-1.45202391 375.90874899 1.38680816 350.68503398 18.14056711 203.53118197 126.57461913 86.95294102 297.92834515 31.89822698c91.214911-29.31907899 203.46509801-38.90595201 304.22034397-25.968327 184.66365699 23.73449205 324.32485498 109.318279 385.70876704 236.41415701 49.98204802 103.501001 43.60631199 229.200733-16.47453001 325.860617-27.03870603 43.513236-71.622321 88.42261798-117.50900504 118.486308-71.43616802 46.77091095-156.78726295 75.857299-260.38134096 88.79492301-20.80258401 2.55960202-115.55440001 4.65382201-134.82122304 2.978446z m109.27174007-128.67817797c80.37150599-8.563032 147.99153898-31.50637502 198.85781393-67.48041902 41.55863003-29.45869302 74.46115199-72.83231396 89.26030604-117.69515801 8.60957099-26.24755599 10.33148501-38.53364604 10.33148496-74.461152 0-35.74135306-1.67537598-47.934367-10.23840793-74.22846099-28.202161-86.32839803-110.66788694-150.55114199-225.84998205-175.91447098-100.98793699-22.245269-218.77617203-14.51992502-306.03533398 20.05797299-62.966212 24.94448604-112.622492 65.339661-141.80195699 115.22863197-30.99445401 53.05357102-38.02172601 125.32742604-18.24298199 187.64210301 21.31450508 67.061575 77.39306 123.23320601 154.59996694 154.73958102 42.07055101 17.17260294 94.14681901 29.13292601 145.66462806 33.46098096 19.82528201 1.62883802 82.838032 0.837688 103.45446301-1.39614699z m3177.86235097 128.72471698c-3.25767506-0.37230602-14.51992502-1.48922299-25.13063901-2.46652601-85.025328-8.09765003-174.42524801-34.90366499-239.99759998-72.13424097-88.60877093-50.26127801-150.31845002-121.65090703-178.47407399-206.53662008a346.663201 346.663201 0 0 1-9.168029-181.45251994c19.91835799-89.81876495 74.600767-166.14144505 159.533018-222.499229C3564.53908111 19.00714003 3729.19130316-14.03499593 3888.16586306 5.97643804c132.02892999 16.66068298 240.78874999 64.967355 316.50643405 140.54542502 57.66085499 57.56777799 90.79606701 125.001659 100.38294001 204.30278493a440.623867 440.623867 0 0 1-0.791149 84.04802504c-20.75604601 157.39225996-145.52501401 277.693559-336.61094495 324.557546-57.89354598 14.19415696-94.28643396 18.47567297-162.41838799 19.22028496a1453.853992 1453.853992 0 0 1-59.42930705-0.13961398z m101.31370498-127.98010501c101.732549-9.30764397 184.617119-42.86170099 237.81030401-96.14796297 36.06712003-36.06712003 57.00931902-75.81076003 65.246584-123.79166501 3.39728999-19.82528201 3.35075203-61.05814496-0.09307602-81.58149903-18.56875002-110.43519602-115.973244-190.527473-260.28826399-213.93619799-34.62443602-5.58458597-57.70739303-7.446115-93.77451396-7.446115-161.766853 0-287.32696999 60.965068-335.633642 163.06992301-14.38030999 30.43599603-21.03527503 61.89583302-21.03527604 99.498714 0 49.65628097 11.63455495 89.02761501 37.695959 128.259334 47.934367 72.04116507 138.91658704 118.067464 259.31096101 131.23778102 24.80487098 2.652679 85.63032501 3.16459899 110.76096399 0.83768797z" fill="#006B33" p-id="27180"></path></svg>