<?xml version="1.0" standalone="no"?><!DOCTYPE svg PUBLIC "-//W3C//DTD SVG 1.1//EN" "http://www.w3.org/Graphics/SVG/1.1/DTD/svg11.dtd"><svg t="1772610299623" class="icon" viewBox="0 0 1024 1024" version="1.1" xmlns="http://www.w3.org/2000/svg" p-id="14439" xmlns:xlink="http://www.w3.org/1999/xlink" width="256" height="256"><path d="M789.333333 264.533333l-217.6-115.2c-38.4-21.333333-81.066667-21.333333-119.466666 0L234.666667 264.533333c-42.666667 21.333333-68.266667 64-68.266667 110.933334v226.133333c0 46.933333 25.6 89.6 68.266667 110.933333l217.6 115.2c38.4 21.333333 81.066667 21.333333 119.466666 0l217.6-115.2c42.666667-21.333333 68.266667-64 68.266667-110.933333V375.466667c0-46.933333-25.6-89.6-68.266667-110.933334z m-298.666666-38.4c12.8-8.533333 25.6-8.533333 38.4 0l187.733333 102.4L512 422.4 311.466667 320l179.2-93.866667zM469.333333 746.666667L277.333333 640c-12.8-8.533333-21.333333-21.333333-21.333333-38.4v-213.333333l217.6 106.666666v251.733334z m29.866667 12.8h21.333333c-4.266667 4.266667-12.8 4.266667-21.333333 0z m273.066667-153.6c0 17.066667-8.533333 29.866667-21.333334 38.4L554.666667 746.666667v-247.466667l217.6-98.133333v204.8z" fill="#008000" p-id="14440"></path></svg>