<?xml version="1.0" standalone="no"?><!DOCTYPE svg PUBLIC "-//W3C//DTD SVG 1.1//EN" "http://www.w3.org/Graphics/SVG/1.1/DTD/svg11.dtd"><svg t="1772961618595" class="icon" viewBox="0 0 1024 1024" version="1.1" xmlns="http://www.w3.org/2000/svg" p-id="5296" xmlns:xlink="http://www.w3.org/1999/xlink" width="256" height="256"><path d="M883.6608 250.112l-330.4448-191.0272a83.6608 83.6608 0 0 0-82.432 0L140.3392 250.112a81.6128 81.6128 0 0 0-40.96 71.0656v381.6448a81.92 81.92 0 0 0 40.96 71.0656L471.04 964.4544a83.3024 83.3024 0 0 0 40.96 11.3152 80.3328 80.3328 0 0 0 40.96-11.3152l330.4448-190.5664a82.5856 82.5856 0 0 0 41.216-71.0656V321.1776a82.5856 82.5856 0 0 0-40.96-71.0656zM504.7808 117.76a19.456 19.456 0 0 1 7.2192-1.792 20.0704 20.0704 0 0 1 6.8096 1.792l303.2576 175.2064-208.2304 120.576a137.216 137.216 0 0 0-203.6736 1.1776L201.472 293.12zM174.08 715.008a13.824 13.824 0 0 1-6.7584-12.1856V352l210.688 121.7536A132.0448 132.0448 0 0 0 373.76 506.88v0.4608a138.24 138.24 0 0 0 103.68 133.5296v249.4464z m682.1888-12.1856a14.2336 14.2336 0 0 1-7.2192 12.1856L545.4848 890.88v-249.6512A138.24 138.24 0 0 0 650.5472 506.88a135.7312 135.7312 0 0 0-4.096-33.4848l209.92-121.2928z" fill="#da790d" p-id="5297"></path></svg>