<?xml version="1.0" standalone="no"?><!DOCTYPE svg PUBLIC "-//W3C//DTD SVG 1.1//EN" "http://www.w3.org/Graphics/SVG/1.1/DTD/svg11.dtd"><svg t="1764127274597" class="icon" viewBox="0 0 1024 1024" version="1.1" xmlns="http://www.w3.org/2000/svg" p-id="19996" xmlns:xlink="http://www.w3.org/1999/xlink" width="256" height="256"><path d="M752 160H400c-61.8 0-112 50.2-112 112v16h448v320H416V416H288v208c0 61.8 50.2 112 112 112h352c61.8 0 112-50.2 112-112V272c0-61.8-50.2-112-112-112z" fill="#4B8CD4" p-id="19997"></path><path d="M736 608V400c0-61.8-50.2-112-112-112H272c-61.8 0-112 50.2-112 112v352c0 61.8 50.2 112 112 112h352c61.8 0 112-50.2 112-112v-16H288V416h320v192h128z" fill="#FF7E1B" p-id="19998"></path></svg>