<?xml version="1.0" standalone="no"?><!DOCTYPE svg PUBLIC "-//W3C//DTD SVG 1.1//EN" "http://www.w3.org/Graphics/SVG/1.1/DTD/svg11.dtd"><svg t="1763363855111" class="icon" viewBox="0 0 1024 1024" version="1.1" xmlns="http://www.w3.org/2000/svg" p-id="8440" xmlns:xlink="http://www.w3.org/1999/xlink" width="1000" height="1000"><path d="M0 512c0 282.4 229.6 512 512 512s512-229.6 512-512S794.4 0 512 0 0 229.6 0 512z" fill="#009944" p-id="8441"></path><path d="M85.6 512c0 236 191.2 426.4 426.4 426.4 236 0 426.4-191.2 426.4-426.4 0-236-191.2-426.4-426.4-426.4S85.6 276 85.6 512z" fill="#FFFFFF" p-id="8442"></path><path d="M624.8 469.6v104L720 793.6s28.8 46.4-16.8 60c0 0-30.4 4.8-46.4-24L572 668.8s-18.4-48-34.4-30.4l-60 64.8s-16.8 34.4-16.8 128c0 0 7.2 22.4-37.6 22.4 0 0-30.4 1.6-30.4-20.8V745.6s4.8-99.2 92-197.6v-28.8l-15.2-81.6s-16.8-20.8-28.8-3.2c0 0 3.2 24-48 51.2l-58.4 20.8s-32.8 12-37.6-7.2c0 0-12-25.6 7.2-32.8l52.8-28.8s61.6-40.8 58.4-92c0 0 10.4-58.4 63.2-75.2 0 0 25.6-20.8 58.4-8.8l138.4 63.2s18.4 12 18.4 25.6v136.8s3.2 25.6-15.2 25.6c0 0-30.4-10.4-30.4-18.4l1.6-102.4s-3.2-8.8-25.6-22.4l-22.4-16.8S576 336 580.8 360c-2.4-1.6 44 66.4 44 109.6zM445.6 256c-32.8 0-60-25.6-60-60 0-32.8 25.6-60 60-60s60 25.6 60 60-26.4 60-60 60z" fill="#009944" p-id="8443"></path></svg>