<?xml version="1.0" encoding="iso-8859-1"?>
<!-- Generator: Adobe Illustrator 16.0.0, SVG Export Plug-In . SVG Version: 6.00 Build 0)  -->
<!DOCTYPE svg PUBLIC "-//W3C//DTD SVG 1.1//EN" "http://www.w3.org/Graphics/SVG/1.1/DTD/svg11.dtd">
<svg version="1.1" id="Layer_1" xmlns="http://www.w3.org/2000/svg" xmlns:xlink="http://www.w3.org/1999/xlink" x="0px" y="0px"
	 width="200px" height="200px" viewBox="0 0 200 200" style="enable-background:new 0 0 200 200;" xml:space="preserve">
<path style="fill-rule:evenodd;clip-rule:evenodd;fill:#3BAE36;" d="M76.889,144.656c-7.708-13.416-15.133-26.36-22.597-39.281
	c-0.572-0.99-0.571-1.738,0.003-2.731c7.369-12.748,14.695-25.521,22.4-38.928c7.823,13.629,15.222,26.543,22.656,39.436
	c0.773,1.342,0.52,2.446-0.209,3.682C91.812,119.253,84.511,131.689,76.889,144.656z"/>
<path style="fill-rule:evenodd;clip-rule:evenodd;fill:#EFE939;" d="M27.933,102.426c-6.5-0.001-13-0.057-19.499,0.027
	c-2.55,0.033-3.433-0.533-1.96-3.075C13.319,87.563,20.116,75.72,26.863,63.85c1.254-2.205,3.213-2.032,5.208-2.026
	c12.656,0.032,25.313,0.098,37.968,0.078c2.391-0.003,3.117,0.634,1.823,2.888c-6.799,11.843-13.596,23.688-20.3,35.584
	c-1.126,1.999-2.738,2.079-4.63,2.067C40.599,102.402,34.266,102.426,27.933,102.426z"/>
<path style="fill-rule:evenodd;clip-rule:evenodd;fill:#3BAE36;" d="M79.453,61.787c15.334,0,29.639,0.016,43.943-0.02
	c1.649-0.004,2.818,0.442,3.686,1.957c7.092,12.396,14.236,24.763,21.936,38.129c-3.523,0-6.233,0-8.943,0
	c-11.166,0-22.331,0.006-33.496-0.007c-1.788-0.002-3.658,0.36-4.836-1.677C94.511,87.657,87.232,75.171,79.453,61.787z"/>
<path style="fill-rule:evenodd;clip-rule:evenodd;fill:#EFE939;" d="M5.887,106.423c11.269,0,22.551,0.609,33.729-0.204
	c8.106-0.59,12.625,1.95,16.1,9.338c4.441,9.442,10.185,18.277,15.475,27.312c1.599,2.729,1.267,3.641-2.082,3.607
	c-12.638-0.123-25.277-0.073-37.916-0.024c-1.942,0.008-3.45-0.233-4.546-2.175c-6.864-12.151-13.832-24.244-20.744-36.369
	C5.768,107.669,5.887,107.285,5.887,106.423z"/>
<path style="fill-rule:evenodd;clip-rule:evenodd;fill:#EFE939;" d="M79.409,58.473c6.568-11.533,12.982-22.185,18.733-33.183
	c2.455-4.693,5.436-6.032,10.519-5.882c12.784,0.376,25.587,0.124,38.724,0.124c-0.688,4.069-3.203,6.833-4.938,9.924
	c-4.882,8.701-9.947,17.3-14.955,25.931c-0.819,1.412-1.432,3.089-3.521,3.088C109.403,58.47,94.835,58.473,79.409,58.473z"/>
<path style="fill-rule:evenodd;clip-rule:evenodd;fill:#EFE939;" d="M147.927,188.468c-10.382,0-21.06-0.902-31.513,0.242
	c-11.476,1.256-18.462-2.189-22.872-13.143c-3.326-8.262-8.604-15.736-12.998-23.57c-0.147-0.264-0.123-0.623-0.301-1.634
	c5.16,0,10.211,0,15.261,0c8.989,0,17.98,0.111,26.966-0.063c2.986-0.058,4.809,0.745,6.361,3.477
	c5.998,10.556,12.287,20.946,18.425,31.424C147.727,186.002,148.561,186.786,147.927,188.468z"/>
<path style="fill-rule:evenodd;clip-rule:evenodd;fill:#EFE939;" d="M152.15,100.259c-7.739-13.165-14.893-25.326-22.033-37.494
	c-0.752-1.28-1.571-2.512-0.629-4.139c7.054-12.188,14.066-24.401,21.401-37.142c7.653,13.237,14.963,25.879,22.272,38.521
	c0.6,1.037,0.957,2.019,0.253,3.238C166.458,75.299,159.542,87.377,152.15,100.259z"/>
<path style="fill-rule:evenodd;clip-rule:evenodd;fill:#EFE939;" d="M152.139,107.343c7.455,12.704,14.412,24.619,21.455,36.484
	c0.926,1.559,0.609,2.743-0.192,4.134c-7.149,12.388-14.267,24.794-21.823,37.943c-2.416-3.967-4.576-7.395-6.619-10.892
	c-4.786-8.196-9.473-16.45-14.303-24.62c-1.033-1.748-1.318-3.15-0.23-5.033C137.582,132.968,144.633,120.515,152.139,107.343z"/>
<path style="fill-rule:evenodd;clip-rule:evenodd;fill:#3BAE36;" d="M149.025,106.146c-7.531,13.078-14.577,25.268-21.559,37.493
	c-0.877,1.534-2.037,1.89-3.674,1.885c-14.141-0.044-28.283-0.025-43.218-0.025c3.551-6.132,6.819-11.817,10.131-17.479
	c3.694-6.313,7.43-12.602,11.143-18.904c0.937-1.591,1.785-3.026,4.099-3.012C119.915,106.189,133.883,106.146,149.025,106.146z"/>
<path style="fill-rule:evenodd;clip-rule:evenodd;fill:#EFE939;" d="M97.651,19.533c-7.4,12.992-14.32,25.104-21.188,37.244
	c-0.902,1.593-2.244,1.732-3.806,1.73c-13.825-0.018-27.65-0.01-41.395-0.01c-0.948-1.711,0.286-2.694,0.885-3.745
	c6.021-10.561,12.122-21.075,18.138-31.638c1.207-2.12,2.355-3.685,5.278-3.651C69.219,19.62,82.878,19.533,97.651,19.533z"/>
<path style="fill-rule:evenodd;clip-rule:evenodd;fill:#EFE939;" d="M30.975,150.375c14.283,0,28.365,0.021,42.447-0.023
	c2.1-0.007,2.809,1.442,3.635,2.882c6.036,10.517,12.009,21.069,18.142,31.529c1.864,3.18,0.985,3.794-2.359,3.758
	c-12.466-0.134-24.934-0.07-37.401-0.035c-1.908,0.005-3.458-0.14-4.576-2.123c-6.443-11.431-13.012-22.791-19.516-34.188
	C31.127,151.79,31.15,151.267,30.975,150.375z"/>
<path style="fill-rule:evenodd;clip-rule:evenodd;fill:#EFE939;" d="M176.83,142.022c-3.044-5.132-5.746-9.674-8.434-14.224
	c-3.979-6.74-7.796-13.581-11.989-20.185c-1.745-2.749-1.862-4.777-0.157-7.645c6.635-11.156,12.971-22.491,19.652-34.171
	c3.27,3.674,5.012,7.927,7.303,11.799c4.664,7.882,9.174,15.854,13.717,23.806c0.794,1.39,1.828,2.612,0.701,4.54
	C190.75,117.697,184.009,129.53,176.83,142.022z"/>
<path style="fill:none;enable-background:new    ;" d="z"/>
</svg>
