<?xml version="1.0" standalone="no"?><!DOCTYPE svg PUBLIC "-//W3C//DTD SVG 1.1//EN" "http://www.w3.org/Graphics/SVG/1.1/DTD/svg11.dtd"><svg t="1743583259928" class="icon" viewBox="0 0 1024 1024" version="1.1" xmlns="http://www.w3.org/2000/svg" p-id="4437" xmlns:xlink="http://www.w3.org/1999/xlink" width="200" height="200"><path d="M296.661333 476.672l200.448-207.786667a17.578667 17.578667 0 0 0 0-24.405333l-25.173333-25.941333a17.066667 17.066667 0 0 0-24.576 0l-271.786667 281.258666a17.578667 17.578667 0 0 0 0 24.405334l271.786667 281.258666a17.066667 17.066667 0 0 0 24.576 0l25.173333-25.941333a17.578667 17.578667 0 0 0 0-24.448l-200.448-207.786667h539.434667A17.322667 17.322667 0 0 0 853.333333 529.92v-35.754667a17.322667 17.322667 0 0 0-17.237333-17.450666H296.661333z" fill="#ffffff" p-id="4438"></path></svg>