<?xml version="1.0" standalone="no"?><!DOCTYPE svg PUBLIC "-//W3C//DTD SVG 1.1//EN" "http://www.w3.org/Graphics/SVG/1.1/DTD/svg11.dtd"><svg t="1743583935374" class="icon" viewBox="0 0 1024 1024" version="1.1" xmlns="http://www.w3.org/2000/svg" p-id="12028" xmlns:xlink="http://www.w3.org/1999/xlink" width="200" height="200"><path d="M736 912H281.6c-70.4 0-131.2-51.2-140.8-121.6L92.8 428.8c0-6.4 0-12.8 3.2-19.2v-9.6c0-3.2 3.2-6.4 3.2-9.6l6.4-6.4c6.4-12.8 19.2-25.6 35.2-35.2l224-185.6c83.2-70.4 204.8-70.4 288 0l224 185.6c16 6.4 28.8 19.2 35.2 35.2v3.2c3.2 3.2 3.2 6.4 3.2 9.6 0 3.2 3.2 6.4 3.2 12.8s3.2 12.8 3.2 19.2v3.2l-48 355.2c-6.4 70.4-67.2 124.8-137.6 124.8zM156.8 428.8l48 352c6.4 38.4 38.4 67.2 76.8 67.2H736c38.4 0 70.4-28.8 76.8-67.2l48-352v-3.2c0-3.2-3.2-6.4-3.2-6.4-3.2-6.4-6.4-9.6-9.6-9.6l-6.4-3.2-227.2-188.8c-60.8-51.2-147.2-51.2-208 0l-233.6 192c-6.4 0-9.6 3.2-12.8 6.4 0 3.2 0 3.2-3.2 3.2V428.8z" p-id="12029"></path><path d="M460.8 608h92.8v156.8h-92.8z" p-id="12030"></path></svg>