<?xml version="1.0" standalone="no"?><!DOCTYPE svg PUBLIC "-//W3C//DTD SVG 1.1//EN" "http://www.w3.org/Graphics/SVG/1.1/DTD/svg11.dtd"><svg t="1727193027445" class="icon" viewBox="0 0 1024 1024" version="1.1" xmlns="http://www.w3.org/2000/svg" p-id="105724" xmlns:xlink="http://www.w3.org/1999/xlink" width="512" height="512"><path d="M0 0m512 0l0 0q512 0 512 512l0 0q0 512-512 512l0 0q-512 0-512-512l0 0q0-512 512-512Z" fill="#818BA4" p-id="105725" data-spm-anchor-id="a313x.search_index.0.i18.1c553a81zI5OvT" class=""></path><path d="M800 617.472L752.128 288.8A75.936 75.936 0 0 0 677.312 224H346.72a76.096 76.096 0 0 0-74.88 64.736L224 618.144v106.112A75.68 75.68 0 0 0 299.68 800h424.576A75.936 75.936 0 0 0 800 724.256v-106.784z m-46.144-4.16H270.336l46.208-318.016a30.528 30.528 0 0 1 30.176-26.176h330.528c15.168 0 28.032 11.168 30.24 26.176l46.368 318.016zM269.12 658.432H754.88v65.92a30.592 30.592 0 0 1-30.528 30.496H299.68a30.592 30.592 0 0 1-30.528-30.528v-65.888z m442.496 25.728h-45.184v44.96h45.12V684.16h0.064z m-115.936 0h45.056v45.12h-45.184v-45.12h0.128z m-283.136 0h44.96v45.12H312.48v-45.12h0.096z m70.688 0h45.12v45.12h-45.12v-45.12z m141.568 0h45.12v45.12h-45.12v-45.12z m-70.72 0H499.2v45.12H454.08v-45.12h0.064z m158.816-276.48h-67.296l-7.456-44.928h47.68l-73.28-56-73.12 56h47.712l-8.768 44.928h-67.264v-33.696l-67.264 56.096 67.264 44.8v-33.6h67.264v67.296h-67.264l100.864 67.2 100.864-67.232h-67.232v-67.232h67.232v33.6l67.264-44.8-67.264-56.128v33.696h0.064z" fill="#FFFFFF" p-id="105726"></path></svg>