<?xml version="1.0" standalone="no"?><!DOCTYPE svg PUBLIC "-//W3C//DTD SVG 1.1//EN" "http://www.w3.org/Graphics/SVG/1.1/DTD/svg11.dtd"><svg t="1780884199812" class="icon" viewBox="0 0 1024 1024" version="1.1" xmlns="http://www.w3.org/2000/svg" p-id="7987" xmlns:xlink="http://www.w3.org/1999/xlink" width="256" height="256"><path d="M322.852996 15.541677C156.419964 43.784258 55.192609 137.265548 21.879577 298.396903c-27.796645 134.523871-29.283097 282.954323-3.369291 411.747097 32.289032 167.556129 133.615484 268.172387 300.857807 297.736258 120.798968 21.355355 258.791226 21.437935 381.803355 0.578065 163.394065-27.714065 269.361548-128.776258 303.500387-290.915097 25.715613-129.32129 25.715613-277.140645 0.396387-408.625549C973.043448 142.765419 873.319061 45.914839 704.656351 16.119742 583.857383-5.235613 445.865125-5.318194 322.852996 15.541677z" fill="#E8A010" p-id="7988"></path><path d="M632.249641 398.748903c0 65.486452-53.495742 117.991226-120.237419 117.991226-66.725161 0-120.237419-52.52129-120.237419-117.991226C391.774803 333.262452 445.287061 280.774194 512.012222 280.774194c66.741677 0 120.237419 52.488258 120.237419 117.974709zM512.012222 726.709677c-98.502194 0-181.677419-15.723355-181.677419-76.37058 0-60.663742 83.687226-75.825548 181.677419-75.825549 98.535226 0 181.677419 15.723355 181.677419 76.370581C693.689641 711.547871 610.002415 726.709677 512.012222 726.709677z" fill="#FFFFFF" p-id="7989"></path></svg>