<?xml version="1.0" standalone="no"?><!DOCTYPE svg PUBLIC "-//W3C//DTD SVG 1.1//EN" "http://www.w3.org/Graphics/SVG/1.1/DTD/svg11.dtd"><svg t="1746857930595" class="icon" viewBox="0 0 1024 1024" version="1.1" xmlns="http://www.w3.org/2000/svg" p-id="26327" xmlns:xlink="http://www.w3.org/1999/xlink" width="512" height="512"><path d="M0 0m512 0l0 0q512 0 512 512l0 0q0 512-512 512l0 0q-512 0-512-512l0 0q0-512 512-512Z" fill="#6F5EA9" p-id="26328"></path><path d="M717.5168 469.333333h-34.6112v-83.899733c0-78.9504-69.188267-143.1552-154.146133-143.1552-84.992 0-154.146133 64.2048-154.146134 143.1552v83.8656h-33.9968c-27.8528 0-50.4832 20.957867-50.4832 46.8992v225.348267c0 25.9072 22.6304 46.865067 50.4832 46.865066h376.900267c27.8528 0 50.4832-20.957867 50.4832-46.865066v-225.348267c0-25.941333-22.6304-46.8992-50.4832-46.8992z m-278.528-83.797333c0-46.011733 40.311467-83.421867 89.770667-83.421867 49.4592 0 89.770667 37.410133 89.770666 83.421867v83.8656h-179.541333v-83.8656z m123.118933 295.253333c0 17.8176-15.598933 32.290133-34.7136 32.290134-19.182933 0-34.679467-14.472533-34.679466-32.256v-97.5872c0-17.749333 15.598933-32.221867 34.679466-32.221867 19.217067 0 34.7136 14.4384 34.7136 32.221867v97.5872z" fill="#FFFFFF" p-id="26329"></path></svg>