<?xml version="1.0" standalone="no"?><!DOCTYPE svg PUBLIC "-//W3C//DTD SVG 1.1//EN" "http://www.w3.org/Graphics/SVG/1.1/DTD/svg11.dtd"><svg t="1741182827482" class="icon" viewBox="0 0 1126 1024" version="1.1" xmlns="http://www.w3.org/2000/svg" p-id="7578" xmlns:xlink="http://www.w3.org/1999/xlink" width="219.921875" height="200"><path d="M344.73911 382.012725a206.3919 206.3919 0 0 0-34.79709 120.77158 181.777165 181.777165 0 0 0 50.646146 137.638871 179.607881 179.607881 0 0 0 129.448717 48.698218 305.691993 305.691993 0 0 0 86.01876-10.270897 251.504158 251.504158 0 0 0 112.581425-77.784335c2.744809 3.497417 7.481817 10.093812 14.432381 20.054812a230.519654 230.519654 0 0 0 14.78655 20.01054c3.010435 3.364604 8.145884 8.854221 15.317803 16.291768a326.587956 326.587956 0 0 0 25.057446 23.552228 28.289237 28.289237 0 0 0 29.705913-2.125013l92.128173-79.687992a17.708443 17.708443 0 0 0 8.145884-14.255297 30.547064 30.547064 0 0 0-6.153684-16.42458l-23.463686-31.211131a119.886158 119.886158 0 0 1-14.78655-31.786654 143.349844 143.349844 0 0 1-7.747444-48.698218V209.178324c0-2.656266-0.265627-11.377674-0.973964-26.031411a144.810791 144.810791 0 0 0-3.098978-28.687677q-3.320333-11.908928-6.197955-23.906398a101.159479 101.159479 0 0 0-9.164119-26.562664 175.092228 175.092228 0 0 0-13.812585-20.984505 208.428371 208.428371 0 0 0-18.859492-22.135553A258.897433 258.897433 0 0 0 601.777156 0.484326h-25.544428a320.257187 320.257187 0 0 0-159.110359 49.096657 196.38663 196.38663 0 0 0-85.398965 135.026877 30.989775 30.989775 0 0 0-1.018235 7.171919c0 9.518288 5.843786 15.671972 17.354274 18.461051l117.672602 14.343839a26.208495 26.208495 0 0 0 20.541793-23.552229 83.451037 83.451037 0 0 1 31.653842-51.177399 111.828816 111.828816 0 0 1 58.39359-21.515758h7.924528a76.589015 76.589015 0 0 1 67.557709 30.989775 182.219876 182.219876 0 0 1 14.432381 87.966689v17.354274q-45.067987 3.453146-90.047431 8.145884a515.050058 515.050058 0 0 0-136.000841 33.778854 215.069037 215.069037 0 0 0-95.18288 75.747864z m161.058287 164.245807a97.396435 97.396435 0 0 1-19.877727-64.060292 109.57099 109.57099 0 0 1 90.00316-113.511118 373.072618 373.072618 0 0 1 90.047431-8.234426v25.500158q0 32.760619-0.486982 47.148729a196.38663 196.38663 0 0 1-6.109413 37.276272 166.857802 166.857802 0 0 1-16.867291 42.455991 104.125643 104.125643 0 0 1-66.406661 55.206071 50.77896 50.77896 0 0 0-7.747443 1.062506 56.534204 56.534204 0 0 1-8.854222 0.929693 66.40666 66.40666 0 0 1-53.700852-23.729313z" fill="#221F1F" p-id="7579"></path><path d="M915.570762 811.663818a36.302308 36.302308 0 0 1 6.109413-8.190155 161.766625 161.766625 0 0 1 49.273742-23.463686 336.460413 336.460413 0 0 1 75.615051-11.244862 61.448296 61.448296 0 0 1 19.435016 1.018236c30.724148 2.833351 49.229471 7.880257 55.294612 15.494887a32.096553 32.096553 0 0 1 4.072942 18.283967v7.17192a233.264462 233.264462 0 0 1-19.435016 84.38073 198.37883 198.37883 0 0 1-54.143564 78.315588 15.317803 15.317803 0 0 1-9.296932 4.117213 8.854221 8.854221 0 0 1-4.072942-1.018236c-4.427111-2.125013-5.135448-5.843786-3.098978-11.244861a387.682083 387.682083 0 0 0 37.807526-123.959099 26.562664 26.562664 0 0 0-4.072942-16.424581c-6.81775-8.101613-25.898598-12.218826-57.331084-12.218826-11.554759 0-25.19026 0.708338-40.773689 2.125014-17.177189 2.125013-32.849161 4.117213-47.148729 6.153683a11.510488 11.510488 0 0 1-8.190155-2.125013 3.18752 3.18752 0 0 1-0.973964-4.072942 6.950564 6.950564 0 0 1 0.973964-3.054706z" fill="#FF9900" p-id="7580"></path><path d="M2.125013 794.353815q5.046906-8.190155 16.336039-1.062506a1090.043195 1090.043195 0 0 0 556.576356 148.39675 1102.350562 1102.350562 0 0 0 396.005051-74.729628l14.78655-6.153684a392.242007 392.242007 0 0 0 13.812585-6.109413 18.328238 18.328238 0 0 1 24.127754 6.109413c5.755244 8.145884 3.851586 15.716243-5.622431 22.489722-12.351639 8.854221-28.023611 19.125118-47.148729 30.679877a764.252119 764.252119 0 0 1-196.38663 80.883312 829.419188 829.419188 0 0 1-211.748705 28.643407 820.033713 820.033713 0 0 1-301.751864-55.737324 830.216068 830.216068 0 0 1-254.824492-157.073887 13.901128 13.901128 0 0 1-6.242226-10.182355 10.580795 10.580795 0 0 1 2.125013-6.153684z" fill="#FF9900" p-id="7581"></path></svg>