<?xml version="1.0" standalone="no"?><!DOCTYPE svg PUBLIC "-//W3C//DTD SVG 1.1//EN" "http://www.w3.org/Graphics/SVG/1.1/DTD/svg11.dtd"><svg t="1763363882257" class="icon" viewBox="0 0 1024 1024" version="1.1" xmlns="http://www.w3.org/2000/svg" p-id="10530" xmlns:xlink="http://www.w3.org/1999/xlink" width="1000" height="1000"><path d="M512 512m-512 0a512 512 0 1 0 1024 0 512 512 0 1 0-1024 0Z" fill="#FF090B" p-id="10531"></path><path d="M512 512m-426.666667 0a426.666667 426.666667 0 1 0 853.333334 0 426.666667 426.666667 0 1 0-853.333334 0Z" fill="#FFFFFF" p-id="10532"></path><path d="M624.64 469.333333v104.106667l95.573333 220.16s29.013333 46.08-17.066666 59.733333c0 0-30.72 5.12-46.08-23.893333l-85.333334-160.426667s-18.773333-47.786667-34.133333-30.72L477.866667 703.146667s-17.066667 34.133333-17.066667 128c0 0 6.826667 22.186667-37.546667 22.186666 0 0-30.72 1.706667-30.72-20.48v-87.04s5.12-98.986667 92.16-197.973333v-29.013333l-15.36-81.92s-17.066667-20.48-29.013333-3.413334c0 0 3.413333 23.893333-47.786667 51.2l-58.026666 20.48s-32.426667 11.946667-37.546667-6.826666c0 0-11.946667-25.6 6.826667-32.426667l52.906666-29.013333s61.44-40.96 58.026667-92.16c0 0 10.24-58.026667 63.146667-75.093334 0 0 25.6-20.48 58.026666-8.533333l138.24 63.146667s18.773333 11.946667 18.773334 25.6v136.533333s3.413333 25.6-15.36 25.6c0 0-30.72-10.24-30.72-18.773333l1.706666-102.4s-3.413333-8.533333-25.6-22.186667l-22.186666-17.066667s-25.6-17.066667-20.48 6.826667c-1.706667 0 44.373333 68.266667 44.373333 110.933333zM445.44 256c-32.426667 0-59.733333-25.6-59.733333-59.733333 0-32.426667 25.6-59.733333 59.733333-59.733334s59.733333 25.6 59.733333 59.733334-25.6 59.733333-59.733333 59.733333z" fill="#1E1C1A" p-id="10533"></path><path d="M200.6528 152.3712l670.976 670.976-48.2816 48.264533L152.3712 200.635733z" fill="#FF090B" p-id="10534"></path></svg>