<?xml version="1.0" standalone="no"?><!DOCTYPE svg PUBLIC "-//W3C//DTD SVG 1.1//EN" "http://www.w3.org/Graphics/SVG/1.1/DTD/svg11.dtd"><svg t="1764128490890" class="icon" viewBox="0 0 1548 1024" version="1.1" xmlns="http://www.w3.org/2000/svg" p-id="28169" xmlns:xlink="http://www.w3.org/1999/xlink" width="387" height="256"><path d="M717.33248 272.41984h-177.61792a41.78944 41.78944 0 0 0-41.66144 41.66144v177.60768c0 4.64896 0.78848 9.27232 2.3296 13.66016a41.472 41.472 0 0 0-10.90048-1.46944h-177.6128a41.78944 41.78944 0 0 0-41.66144 41.67168v177.60768a41.79456 41.79456 0 0 0 41.66144 41.66144h177.60768a41.7792 41.7792 0 0 0 41.66144-41.66144v-177.60768c0-4.64896-0.77824-9.27232-2.31936-13.66016a41.37984 41.37984 0 0 0 10.89024 1.4592h177.61792a41.7792 41.7792 0 0 0 41.67168-41.66144V314.08128a41.78944 41.78944 0 0 0-41.66656-41.66144z" fill="#F7C341" p-id="28170"></path><path d="M849.3824 64.22016H396.17024c-58.4704 0-106.31168 47.84128-106.31168 106.31168V293.9392H174.6176c-58.4704 0-106.31168 47.84128-106.31168 106.31168v453.2224c0 58.48576 47.84128 106.32704 106.31168 106.32704h453.21216c58.4704 0 106.31168-47.84128 106.31168-106.32704V730.0608h115.23584c58.4704 0 106.3168-47.84128 106.3168-106.31168v-453.2224c-0.00512-58.46528-47.8464-106.30656-106.31168-106.30656z m0.22528 489.69216c-0.10752 38.66112-31.40096 69.98016-70.07744 70.08768h-155.93984v162.048c-0.10752 38.65088-31.4112 69.94944-70.06208 70.07232H254.85824c-38.65088-0.10752-69.95968-31.42144-70.07232-70.07232V487.36256c0.10752-38.65088 31.41632-69.95968 70.07232-70.07232h155.9296V255.22176c0.11264-38.64576 31.41632-69.94432 70.06208-70.06208h298.7008c38.65088 0.11264 69.94432 31.41632 70.06208 70.06208v298.69056h-0.00512z" fill="#85B24B" p-id="28171"></path><path d="M788.608 818.49856h83.67104v22.67136h-56.3968v31.50848h47.91808v22.8608h-47.91808v36.48512h58.42432v22.85568h-85.69856v-136.38144zM892.93312 937.55392l15.6672-18.79552c9.76896 9.03168 22.67136 15.10912 34.65216 15.10912 14.18752 0 21.74464-6.08256 21.74464-15.6672 0-10.13248-8.2944-13.27104-20.4544-18.432l-18.24256-7.74144c-13.824-5.71392-27.64288-16.768-27.64288-36.67456 0-22.2976 19.5328-39.43936 47.1808-39.43936 15.85152 0 31.69792 6.26688 42.75712 17.5104l-13.81888 17.14176c-8.66304-7.18848-17.69472-11.24352-28.93312-11.24352-11.9808 0-19.72224 5.34528-19.72224 14.37696 0 9.76896 9.76384 13.27104 21.376 17.87904l17.87904 7.55712c16.58368 6.81472 27.45856 17.32608 27.45856 37.0432 0 22.2976-18.61632 41.27744-50.12992 41.27744-18.2528 0.00512-36.50048-7.17824-49.77152-19.90144zM1041.1264 884.48l-35.9424-65.98144h30.22336l13.63968 28.01152c3.12832 6.45632 6.08256 13.09184 10.13248 21.56544h0.9216a413.2096 413.2096 0 0 1 9.03168-21.56544l12.90752-28.01152h28.7488l-35.9424 67.27168 38.33344 69.10976h-30.22336l-15.29344-30.22336c-3.5072-7.00416-6.63552-14.18752-10.69056-22.48704h-0.7424a580.57216 580.57216 0 0 1-9.94816 22.48704l-14.56128 30.22336h-28.93312l38.33856-70.4zM1127.76192 820.34176c0-8.84224 6.81984-14.74048 16.21504-14.74048 9.216 0 16.03584 5.89824 16.03584 14.74048 0 8.47872-6.81984 14.75072-16.03584 14.75072-9.3952 0-16.21504-6.272-16.21504-14.75072z m2.58048 31.3344h26.9056V954.88h-26.9056v-103.20384z" p-id="28172"></path></svg>