<?xml version="1.0" standalone="no"?><!DOCTYPE svg PUBLIC "-//W3C//DTD SVG 1.1//EN" "http://www.w3.org/Graphics/SVG/1.1/DTD/svg11.dtd"><svg t="1764125698873" class="icon" viewBox="0 0 1287 1024" version="1.1" xmlns="http://www.w3.org/2000/svg" p-id="6383" width="321.75" height="256" xmlns:xlink="http://www.w3.org/1999/xlink"><path d="M1152.497371 0s62.698057 123.465143 33.967543 195.3792c-14.716343 36.805486-57.344 80.6912-104.067657 80.6912H470.396343a159.275886 159.275886 0 0 0-159.275886 159.275886v448.073143a121.0368 121.0368 0 0 0 121.0368 121.066057h166.619429a78.584686 78.584686 0 0 0 78.555428-78.584686v-103.160686h114.980572a78.584686 78.584686 0 0 0 78.555428-78.555428v-90.112c98.684343 0 191.751314-45.8752 251.874743-124.1088l5.792914-7.548343H817.737143a78.584686 78.584686 0 0 0-78.555429 78.584686v73.084342c0 9.362286-7.606857 16.969143-16.9984 16.969143h-97.952914a78.584686 78.584686 0 0 0-78.584686 78.584686v72.616229c0 16.881371-13.692343 30.573714-30.544457 30.573714h-41.7792a30.544457 30.544457 0 0 1-30.573714-30.573714V435.346286c0-15.242971 12.375771-27.618743 27.618743-27.618743h654.482285a159.275886 159.275886 0 0 0 159.275886-159.275886 288.768 288.768 0 0 0-91.516343-210.885486L1152.497371 0zM97.6896 195.9936C68.959086 124.050286 131.657143 0.585143 131.657143 0.585143L91.487086 38.180571A288.768 288.768 0 0 0 0 249.066057a159.275886 159.275886 0 0 0 159.275886 159.275886h38.912v-0.6144c0-50.9952 19.104914-97.4848 50.556343-132.768914-103.570286-8.484571-138.093714-46.4896-151.054629-78.994286z" fill="#1296db" p-id="6384"></path></svg>