<?xml version="1.0" standalone="no"?><!DOCTYPE svg PUBLIC "-//W3C//DTD SVG 1.1//EN" "http://www.w3.org/Graphics/SVG/1.1/DTD/svg11.dtd"><svg t="1748231595396" class="icon" viewBox="0 0 1024 1024" version="1.1" xmlns="http://www.w3.org/2000/svg" p-id="29134" xmlns:xlink="http://www.w3.org/1999/xlink" width="512" height="512"><path d="M0 512c0-159.061333 0-238.549333 25.984-301.269333a341.333333 341.333333 0 0 1 184.746667-184.746667C273.450667 0 352.938667 0 512 0c159.018667 0 238.549333 0 301.269333 25.984a341.333333 341.333333 0 0 1 184.746667 184.746667C1024 273.450667 1024 352.938667 1024 512c0 159.018667 0 238.549333-25.984 301.269333a341.333333 341.333333 0 0 1-184.746667 184.746667C750.549333 1024 671.018667 1024 512 1024c-159.061333 0-238.549333 0-301.269333-25.984a341.333333 341.333333 0 0 1-184.746667-184.746667C0 750.549333 0 671.018667 0 512z" fill="#27AD9A" p-id="29135"></path><path d="M544.085333 223.616l230.528 164.949333a86.229333 86.229333 0 0 1 36.053334 69.973334v265.941333c0 47.616-38.698667 86.186667-86.442667 86.186667H606.293333v-125.354667c0-51.882667-42.24-93.994667-94.293333-93.994667s-94.293333 42.112-94.293333 93.994667V810.666667H299.733333A86.314667 86.314667 0 0 1 213.333333 724.48v-265.941333a85.930667 85.930667 0 0 1 36.053334-69.973334l230.528-164.949333a55.125333 55.125333 0 0 1 64.170666 0z" fill="#FFFFFF" p-id="29136"></path></svg>