<?xml version="1.0" standalone="no"?><!DOCTYPE svg PUBLIC "-//W3C//DTD SVG 1.1//EN" "http://www.w3.org/Graphics/SVG/1.1/DTD/svg11.dtd"><svg t="1764127307656" class="icon" viewBox="0 0 1024 1024" version="1.1" xmlns="http://www.w3.org/2000/svg" p-id="21136" xmlns:xlink="http://www.w3.org/1999/xlink" width="256" height="256"><path d="M353.28 999.424L27.648 902.144V162.816l325.632 97.28z" fill="#BFE3EA" p-id="21137"></path><path d="M353.28 394.24L27.648 296.96v-19.456l325.632 97.28zM353.28 513.024L27.648 415.744v-19.456l325.632 97.28zM353.28 632.832L27.648 535.552v-19.456l325.632 97.28zM353.28 751.616L27.648 654.336v-18.432l325.632 96.256z" fill="#00616A" p-id="21138"></path><path d="M805.888 817.152L353.28 1000.448V260.096L805.888 101.376z" fill="#0F9CB6" p-id="21139"></path><path d="M353.28 260.096L27.648 162.816 449.536 23.552l356.352 77.824z" fill="#3FBCCF" p-id="21140"></path><path d="M718.848 997.376l-204.8-61.44V471.04l204.8 61.44z" fill="#BFE3EA" p-id="21141"></path><path d="M718.848 616.448l-204.8-60.416v-12.288l204.8 60.416zM718.848 692.224l-204.8-61.44v-12.288l204.8 61.44zM718.848 766.976l-204.8-61.44v-12.288l204.8 61.44zM718.848 841.728l-204.8-60.416v-12.288l204.8 60.416z" fill="#00616A" p-id="21142"></path><path d="M1003.52 882.688L718.848 997.376V532.48L1003.52 433.152z" fill="#0F9CB6" p-id="21143"></path><path d="M718.848 532.48l-204.8-61.44 266.24-87.04L1003.52 433.152z" fill="#3FBCCF" p-id="21144"></path></svg>