<?xml version="1.0" standalone="no"?><!DOCTYPE svg PUBLIC "-//W3C//DTD SVG 1.1//EN" "http://www.w3.org/Graphics/SVG/1.1/DTD/svg11.dtd"><svg t="1748058991369" class="icon" viewBox="0 0 1024 1024" version="1.1" xmlns="http://www.w3.org/2000/svg" p-id="5349" xmlns:xlink="http://www.w3.org/1999/xlink" width="512" height="512"><path d="M972.8 788.48c0 101.80096-82.51904 184.32-184.32 184.32H235.52c-101.79584 0-184.32-82.51904-184.32-184.32V235.52c0-101.79584 82.52416-184.32 184.32-184.32h552.96c101.80096 0 184.32 82.52416 184.32 184.32v552.96z" fill="#F30213" p-id="5350"></path><path d="M643.6096 316.61056H551.3216v400.54784h92.288c93.696 0 169.58976-89.48736 169.58976-200.50944 0-110.09024-75.89376-200.0384-169.58976-200.0384z" fill="#FFFFFF" p-id="5351"></path><path d="M412.65152 593.95072c0 102.12864-82.92352 185.05216-185.05216 185.05216h-30.91968V717.1584h30.91968c67.93216 0 123.20768-55.28064 123.20768-123.20768V255.24224h61.83936l0.00512 338.70848z" fill="#FFFFFF" p-id="5352"></path><path d="M643.6096 778.99776H489.48224V255.24224h154.13248c127.42656 0 230.95296 117.12 230.95296 261.87776 0 144.75776-103.05536 261.87776-230.95808 261.87776z" fill="#FFFDFD" p-id="5353"></path><path d="M654.12096 708.9152h-112.88064V325.32992h112.88064c93.33248 0 169.14944 85.77536 169.14944 191.79008 0 106.01984-75.47904 191.7952-169.14944 191.7952z" fill="#D81E06" p-id="5354"></path></svg>