<?xml version="1.0" standalone="no"?><!DOCTYPE svg PUBLIC "-//W3C//DTD SVG 1.1//EN" "http://www.w3.org/Graphics/SVG/1.1/DTD/svg11.dtd"><svg t="1722747611831" class="icon" viewBox="0 0 1024 1024" version="1.1" xmlns="http://www.w3.org/2000/svg" p-id="1142" width="512" height="512" xmlns:xlink="http://www.w3.org/1999/xlink"><path d="M452 234.857q-6.286 0.572-8.857 6t-4.857 5.429q-2.857 0.571-2.857-2.857 0-6.858 10.857-8.572H452z m49.714 8q-2.285 0.572-6.571-3.714t-10-2.572q13.714-6.285 18.286 1.143 1.714 3.429-1.715 5.143z m-200.571 244q-2.286-0.571-3.429 1.714t-2.571 7.143T292 503.43t-5.714 7.428q-4 5.714-0.572 6.857 2.286 0.572 7.143-4T300 503.43q0.571-1.715 1.143-4t1.143-3.429 0.857-2.571 0.286-2.286v-1.714l-0.572-1.429-1.714-1.143zM789.714 692q0-10.286-31.428-24 2.285-8.571 4.285-15.714t2.858-14.857 1.714-12.286 0.286-12.857-0.572-11.143-2-12.572-2.286-11.714-2.857-14.286-3.143-15.142Q750.857 520 729.714 488.57t-41.143-42.857q13.715 11.429 32.572 47.429Q770.857 585.714 752 652q-6.286 22.857-28.571 24-17.715 2.286-22-10.571t-4.572-47.715-6.571-61.143q-5.143-22.285-11.143-39.428t-11.143-26-8.857-14-7.429-8.572-4.285-4q-8-35.428-17.715-58.857t-16.857-32-13.428-18.857T590.857 332q-2.286-12 3.429-30.571t2.571-28.286-25.428-14.286q-8.572-1.714-25.429-10.286t-20.286-9.142q-4.571-0.572-6.285-14.858T524 195.43 544.571 180q21.143-1.714 29.143 17.143T576 230.286q-6.286 10.857-1.143 15.143t17.143 0.285q7.429-2.285 7.429-20.571V204q-2.858-17.143-7.715-28.571t-12-17.429-13.428-8.571-15.429-4.286q-61.143 4.571-50.857 76.571 0 8.572-0.571 8.572-5.143-5.143-16.858-6t-18.857 0.285-8.857-2.857q0.572-32.571-9.143-51.428T420 150.857q-15.429-0.571-23.714 15.714t-9.429 34q-0.571 8.572 2 21.143t7.429 21.429 8.857 7.714q5.714-1.714 9.143-8 2.285-5.143-4-4.571-4 0-8.857-8.286T396 210.857q-0.571-12.571 5.143-21.143t19.428-8q9.715 0 15.429 12T441.429 216t-0.858 12.571q-12.571 8.572-17.714 16.572-4.571 6.857-15.714 13.428t-11.714 7.143q-7.429 8-8.858 15.429t4.286 10.286q8 4.571 14.286 11.142t9.143 10.858 10.571 7.428 20.286 3.714Q472 325.714 503.429 316q1.142-0.571 13.142-4t19.715-6 16.857-7.429 12-10q5.143-8 11.428-4.571 2.858 1.714 3.715 4.857t-1.715 6.857-9.428 5.429q-11.429 3.428-32.286 12.286t-26 11.142q-25.143 10.858-40 13.143-14.286 2.857-45.143-1.143-5.714-1.142-5.143 1.143t9.715 10.857q14.285 13.143 38.285 12.572 9.715-0.572 20.572-4t20.571-8 19.143-10T546 329.429t14-6.858 10-1.428 4.857 6.286q0 1.142-0.571 2.571T572 332.857t-3.429 2.572-4.857 2.857-5.143 2.571-5.714 2.857-5.428 2.572q-16 8-38.572 25.143t-38 24.571-28 0.571q-12-6.285-36-41.714-12.571-17.714-14.286-12.571Q392 344 392 348q0 14.286-8.571 32.286T366.57 412t-12 33.143 6.572 36Q348 484.57 325.429 532.57t-27.143 80.572q-1.143 10.286-0.857 39.428t-3.143 33.715Q289.714 700 277.714 688q-18.285-17.714-20.571-53.714-1.143-16 2.286-32 2.285-10.857-0.572-10.286l-2.286 2.857Q236 632 262.286 689.714q2.857 6.857 14.285 16t13.715 11.429q11.428 13.143 59.428 51.714t53.143 43.714q9.143 8.572 10 21.715t-8 24.571-26 13.143q4.572 8.571 16.572 25.429t16 30.857 4 40.285q26.285-13.714 4-52.571-2.286-4.571-6-9.143T408 900t-1.143-3.429q1.714-2.857 7.429-5.428t11.428 1.428q26.286 29.715 94.857 20.572 76-8.572 101.143-49.714 13.143-21.715 19.429-17.143Q648 849.714 646.857 876q-0.571 14.286-13.143 52.571-5.143 13.143-3.428 21.429T644 958.857q1.714-10.857 8.286-44T660 863.43q1.143-12-3.714-42T652 766t13.143-40.286q8.571-10.285 29.143-10.285 0.571-21.143 19.714-30.286t41.429-6T789.714 692zM430.857 219.429q1.714-9.715-1.428-17.143t-6.572-8.572q-5.143-1.143-5.143 4 1.143 2.857 2.857 3.429 5.715 0 4 8.571-1.714 11.429 4.572 11.429 1.714 0 1.714-1.714zM670.286 332q-1.143-4.571-3.715-6.571t-7.428-2.858-8.286-3.142q-2.857-1.715-5.428-4.572t-4-4.571-3.143-3.715-2.286-2.285-2.286 0.857q-8 9.143 4 24.857T660 348q5.143 0.571 8.286-4.571t2-11.429zM568.57 210.286q0-6.286-2.857-11.143T559.43 192t-5.143-1.714q-8 0.571-4 4l2.285 1.143q8 2.285 10.286 17.714 0 1.714 4.572-1.143zM599.43 77.143q0-1.143-1.429-2.857t-5.143-4-5.428-3.429q-8.572-8.571-13.715-8.571-5.143 0.571-6.571 4.285T566.57 70t-0.285 7.143q-0.572 2.286-3.429 6t-3.428 5.143 1.714 4.857q2.286 1.714 4.571 0T572 88t8.571-5.143q0.572-0.571 5.143-0.571t8.572-1.143 5.143-4z m322.857 766.286q11.428 6.857 17.714 14t6.857 13.714T945.43 884t-8.858 12.571-13.428 11.143T906 918.286t-18 9.428-18.286 8.857T854.286 944q-21.715 10.857-48.857 32t-43.143 36.571q-9.715 9.143-38.857 11.143t-50.858-8.285q-10.285-5.143-16.857-13.429t-9.428-14.571-12.572-11.143-26.857-5.429q-25.143-0.571-74.286-0.571-10.857 0-32.571 0.857t-33.143 1.428q-25.143 0.572-45.428 8.572t-30.572 17.143T366 1014.57t-30.571 6.572q-16.572-0.572-63.429-17.714t-83.429-24.572q-10.857-2.286-29.142-5.428t-28.572-5.143-22.571-5.429-19.143-8.286-9.714-11.142q-5.715-13.143 4-38t10.285-31.143q0.572-9.143-2.285-22.857t-5.715-24.286-2.571-20.857 6-15.429q8-6.857 32.571-8T156 776q17.143-10.286 24-20t6.857-29.143q12 41.714-18.286 60.572-18.285 11.428-47.428 8.571-19.429-1.714-24.572 5.714-7.428 8.572 2.858 32.572 1.142 3.428 4.571 10.285t4.857 10.286 2.572 9.714 0.571 12.572q0 8.571-9.714 28t-8 27.428q1.714 9.715 21.143 14.858 11.428 3.428 48.285 10.571t56.857 11.714q13.715 3.429 42.286 12.572T310 995.429t31.714 2.285q24.572-3.428 36.857-16t13.143-27.428-4.285-33.429-10.858-29.714-11.428-20.857Q296 761.714 268.57 732 229.714 689.714 204 709.143q-6.286 5.143-8.571-8.572-1.715-9.142-1.143-21.714 0.571-16.571 5.714-29.714t13.714-26.857 12.572-24q4.571-12 15.143-41.143t16.857-44.572 17.143-34.857 22.285-30.857q62.857-81.714 70.857-111.428-6.857-64-9.142-177.143-1.143-51.429 13.714-86.572T433.714 12Q456 0 493.143 0q30.286-0.571 60.571 7.714t50.857 23.715q32.572 24 52.286 69.428t16.857 84.286q-2.857 54.286 17.143 122.286Q710.286 372 766.857 432q31.429 33.714 56.857 93.143t34 109.143q4.572 28 2.857 48.285t-6.857 31.715-11.428 12.571q-5.715 1.143-13.429 10.857T813.43 758t-23.143 19.143-34.857 8q-10.286-0.572-18-2.857t-12.858-7.715-7.714-8.857T710.286 754t-5.143-11.143q-12.572-21.143-23.429-17.143t-16 28 4 55.429q11.429 40 0.572 111.428Q664.57 957.714 680.57 978t41.715 18.857 48.571-20.286q33.714-28 51.143-38t59.143-24.285q30.286-10.286 44-20.857t10.571-19.715-14.285-16.285T892 844q-18.857-6.286-28.286-27.429t-8.571-41.428T864 748q0.571 17.714 4.571 32.286t8.286 23.143 11.714 16.285 12 10.857T912.857 838t9.429 5.429z" p-id="1143"></path></svg>