<?xml version="1.0" standalone="no"?><!DOCTYPE svg PUBLIC "-//W3C//DTD SVG 1.1//EN" "http://www.w3.org/Graphics/SVG/1.1/DTD/svg11.dtd"><svg t="1738497509776" class="icon" viewBox="0 0 1024 1024" version="1.1" xmlns="http://www.w3.org/2000/svg" p-id="15389" xmlns:xlink="http://www.w3.org/1999/xlink" width="200" height="200"><path d="M524.8 163.2c-9.6 6.4-16 16-22.4 25.6-3.2 12.8-3.2 28.8 3.2 41.6 3.2 12.8 12.8 25.6 25.6 35.2 6.4 3.2 12.8 6.4 19.2 6.4 6.4 0 16 0 22.4-3.2 6.4-3.2 12.8-9.6 16-19.2 3.2-9.6 6.4-16 6.4-25.6 0-12.8 0-22.4-3.2-32-3.2-12.8-12.8-22.4-22.4-28.8-3.2-3.2-9.6-3.2-16-6.4-6.4 0-12.8 0-19.2 3.2-3.2 0-6.4 3.2-9.6 3.2" fill="#FFFFFF" p-id="15390"></path><path d="M841.6 617.6c-6.4-32-16-60.8-25.6-92.8-9.6-22.4-19.2-41.6-32-60.8-12.8-19.2-32-35.2-44.8-51.2l-19.2-28.8-9.6-19.2c-9.6-19.2-16-38.4-28.8-57.6-3.2-3.2-3.2-6.4-6.4-9.6 0-19.2-3.2-35.2-3.2-54.4 0-35.2-3.2-70.4-9.6-105.6-3.2-16-12.8-32-22.4-48-9.6-16-25.6-32-41.6-44.8-25.6-19.2-57.6-28.8-92.8-28.8-25.6 0-48 6.4-70.4 16-22.4 12.8-41.6 32-51.2 54.4-9.6 22.4-16 48-16 73.6 0 25.6 0 51.2 3.2 73.6 0 25.6 0 51.2 3.2 76.8 0 9.6 3.2 16 3.2 25.6v12.8c-12.8 19.2-22.4 38.4-38.4 54.4-9.6 12.8-19.2 25.6-28.8 35.2-12.8 12.8-22.4 28.8-32 48-6.4 16-9.6 28.8-12.8 44.8-6.4 16-12.8 35.2-19.2 51.2 0 0 0 3.2-3.2 3.2-6.4 9.6-9.6 19.2-16 28.8l-3.2 16c-3.2 6.4-6.4 12.8-9.6 22.4-3.2 3.2-3.2 9.6-3.2 12.8 0 9.6 0 19.2 3.2 28.8 0 3.2 0 3.2 3.2 6.4l9.6 19.2c0 3.2 3.2 6.4 3.2 9.6v3.2c3.2 3.2 3.2 6.4 6.4 9.6 3.2 3.2 3.2 6.4 6.4 9.6 3.2 3.2 3.2 6.4 6.4 9.6 9.6 32 22.4 60.8 44.8 86.4-3.2 6.4-6.4 12.8-9.6 16-12.8 16-19.2 35.2-28.8 51.2-3.2 9.6-3.2 19.2-3.2 28.8 3.2 9.6 6.4 19.2 16 25.6 6.4 3.2 9.6 6.4 16 9.6 6.4 0 12.8 3.2 19.2 3.2 25.6-3.2 48-6.4 73.6-12.8 12.8-3.2 28.8-6.4 41.6-9.6 16-3.2 28.8-6.4 44.8-6.4h57.6c19.2 0 35.2 3.2 54.4 6.4l48 9.6c25.6 6.4 48 12.8 73.6 12.8h19.2c6.4 0 12.8-3.2 19.2-9.6 6.4-6.4 12.8-16 16-25.6 3.2-9.6 0-19.2-3.2-28.8-12.8-22.4-22.4-38.4-32-54.4-3.2-6.4-6.4-12.8-12.8-19.2 16-19.2 32-41.6 44.8-64 6.4 0 16 0 22.4-3.2 19.2-6.4 35.2-19.2 48-35.2 3.2-6.4 6.4-9.6 9.6-16 6.4-12.8 12.8-25.6 16-38.4 3.2-25.6 3.2-48-3.2-70.4z" fill="#020204" p-id="15391"></path><path d="M416 304c-3.2 3.2-6.4 9.6-6.4 16s-3.2 9.6-3.2 16c0 9.6 0 22.4-3.2 32-3.2 12.8-9.6 22.4-16 32-12.8 16-22.4 35.2-28.8 54.4-6.4 9.6-6.4 22.4-6.4 35.2-12.8 19.2-25.6 41.6-35.2 64-16 32-25.6 67.2-28.8 105.6-3.2 44.8 3.2 89.6 19.2 131.2 12.8 28.8 32 57.6 54.4 76.8 12.8 9.6 25.6 19.2 41.6 25.6 51.2 25.6 112 25.6 163.2-3.2 25.6-16 48-32 70.4-54.4 12.8-12.8 25.6-25.6 35.2-41.6 16-28.8 28.8-64 28.8-99.2 9.6-60.8 3.2-121.6-19.2-176-9.6-19.2-22.4-35.2-35.2-51.2-3.2-25.6-12.8-51.2-22.4-76.8-6.4-16-19.2-35.2-25.6-51.2-3.2-6.4-6.4-16-9.6-22.4-3.2-6.4-6.4-12.8-12.8-19.2-6.4-6.4-12.8-9.6-19.2-12.8-6.4 6.4-12.8 3.2-22.4 3.2H448c-6.4 0-12.8 3.2-19.2 3.2-3.2 3.2-9.6 6.4-12.8 12.8m3.2-140.8c-6.4 0-12.8 3.2-16 6.4-3.2 3.2-6.4 9.6-9.6 16-3.2 12.8-3.2 22.4-3.2 35.2 0 9.6 3.2 22.4 6.4 32 3.2 6.4 6.4 9.6 9.6 12.8 3.2 3.2 9.6 6.4 12.8 9.6h16c6.4 0 9.6-3.2 12.8-6.4 6.4-6.4 9.6-12.8 9.6-19.2 3.2-6.4 3.2-16 3.2-22.4 0-9.6 0-19.2-3.2-28.8-3.2-9.6-6.4-16-12.8-22.4l-9.6-9.6c-6.4 0-9.6-3.2-16-3.2m105.6 0c-9.6 6.4-16 16-22.4 25.6-3.2 12.8-3.2 28.8 3.2 41.6 3.2 12.8 12.8 25.6 25.6 35.2 6.4 3.2 12.8 6.4 19.2 6.4 6.4 0 16 0 22.4-3.2 6.4-3.2 12.8-9.6 16-19.2 3.2-9.6 6.4-16 6.4-25.6 0-12.8 0-22.4-3.2-32-3.2-12.8-12.8-22.4-22.4-28.8-3.2-3.2-9.6-3.2-16-6.4-6.4 0-12.8 0-19.2 3.2-3.2 0-6.4 3.2-9.6 3.2" fill="#FFFFFF" p-id="15392"></path><path d="M547.2 192c-3.2 0-6.4 0-9.6 3.2-3.2 3.2-6.4 3.2-6.4 6.4-3.2 6.4-6.4 12.8-6.4 19.2 0 6.4 0 9.6 3.2 16s3.2 9.6 9.6 12.8c0 3.2 6.4 6.4 12.8 6.4s9.6 0 16-3.2l9.6-9.6v-12.8c0-6.4 0-16-3.2-22.4-3.2-6.4-9.6-12.8-16-16h-9.6" fill="#020204" p-id="15393"></path><path d="M419.2 163.2c-6.4 0-12.8 3.2-16 6.4-3.2 3.2-6.4 9.6-9.6 16-3.2 12.8-3.2 22.4-3.2 35.2 0 9.6 3.2 22.4 6.4 32 3.2 6.4 6.4 9.6 9.6 12.8 3.2 3.2 9.6 6.4 12.8 9.6h16c6.4 0 9.6-3.2 12.8-6.4 6.4-6.4 9.6-12.8 9.6-19.2 3.2-6.4 3.2-16 3.2-22.4 0-9.6 0-19.2-3.2-28.8-3.2-9.6-6.4-16-12.8-22.4l-9.6-9.6c-6.4 0-9.6-3.2-16-3.2" fill="#FFFFFF" p-id="15394"></path><path d="M406.4 214.4v22.4c3.2 3.2 3.2 9.6 6.4 12.8 3.2 3.2 6.4 3.2 6.4 6.4 3.2 0 6.4 3.2 9.6 0 3.2 0 6.4-3.2 6.4-6.4 3.2-3.2 3.2-6.4 3.2-9.6 9.6-6.4 9.6-16 6.4-22.4-3.2-6.4-6.4-12.8-9.6-16-3.2-3.2-6.4-3.2-9.6-3.2H416c-3.2 0-6.4 3.2-6.4 6.4-3.2 3.2-3.2 6.4-3.2 9.6" fill="#020204" p-id="15395"></path><path d="M393.6 307.2c3.2 3.2 3.2 6.4 6.4 6.4l3.2 3.2 19.2 19.2c6.4 9.6 16 19.2 25.6 28.8 6.4 6.4 16 6.4 25.6 9.6 9.6 0 19.2 0 28.8-3.2 9.6-3.2 19.2-6.4 25.6-12.8 12.8-12.8 28.8-22.4 44.8-28.8 3.2 0 6.4-3.2 9.6-3.2 3.2 0 6.4-3.2 9.6-6.4 0-3.2 3.2-6.4 3.2-9.6 0-3.2 3.2-6.4 3.2-12.8v-12.8c0-3.2-3.2-6.4-6.4-6.4s-6.4-3.2-9.6-3.2c-6.4 0-12.8 0-19.2 3.2h-25.6c-9.6 0-22.4 3.2-32 3.2-12.8 0-25.6 0-38.4-3.2h-16c-6.4 0-9.6 3.2-16 6.4-9.6 0-12.8 3.2-19.2 6.4-3.2 3.2-3.2 3.2-6.4 3.2s-6.4 3.2-6.4 3.2h-3.2-3.2l-3.2 3.2v6.4" fill="#D99A03" p-id="15396"></path><path d="M419.2 278.4c-3.2 3.2-6.4 6.4-12.8 9.6-3.2 0-3.2 3.2-6.4 6.4v22.4h6.4c3.2 0 6.4 3.2 9.6 6.4l9.6 9.6c9.6 6.4 19.2 9.6 32 9.6 9.6 0 22.4-3.2 32-3.2 9.6-3.2 16-3.2 25.6-6.4 12.8-3.2 22.4-12.8 35.2-19.2 3.2-3.2 9.6-6.4 12.8-12.8 3.2-3.2 9.6-3.2 12.8-6.4v-3.2V288l-3.2-3.2c-6.4-3.2-9.6-6.4-16-6.4h-19.2c-6.4 0-12.8-3.2-16-6.4-6.4-3.2-12.8-3.2-19.2-3.2-12.8-3.2-28.8-3.2-44.8 0-12.8-3.2-25.6 3.2-38.4 9.6" fill="#604405" p-id="15397"></path><path d="M419.2 262.4c-6.4 3.2-12.8 9.6-16 16-3.2 3.2-6.4 6.4-6.4 12.8 0 3.2-3.2 6.4-3.2 9.6V310.4h6.4c6.4 0 9.6 3.2 12.8 6.4 3.2 3.2 6.4 6.4 12.8 9.6 9.6 6.4 19.2 9.6 32 9.6 9.6 0 22.4 0 32-3.2 9.6 0 16-3.2 25.6-6.4 12.8-6.4 22.4-12.8 35.2-19.2 6.4-3.2 9.6-6.4 12.8-12.8l3.2-3.2s3.2-3.2 6.4-3.2h19.2s3.2 0 3.2-3.2v-3.2-3.2l-6.4-6.4c-3.2 0-6.4-3.2-12.8-3.2-12.8-3.2-25.6-6.4-35.2-12.8-6.4-3.2-12.8-6.4-16-9.6l-19.2-9.6c-12.8-3.2-28.8-3.2-44.8 3.2-19.2 3.2-32 12.8-41.6 22.4" fill="#F5BD0C" p-id="15398"></path><path d="M489.6 246.4c0 3.2 3.2 3.2 6.4 3.2s3.2 3.2 6.4 3.2 6.4 0 6.4-3.2-3.2-3.2-6.4-6.4c-3.2 0-6.4 0-12.8 3.2 3.2-3.2 0 0 0 0z m-38.4-3.2c-3.2 0-6.4 3.2-6.4 6.4 0 0 3.2 3.2 3.2 0l3.2-3.2c3.2 0 3.2 0 0-3.2z" fill="#CD8907" p-id="15399"></path><path d="M928 864c-3.2 6.4-6.4 9.6-9.6 16-9.6 9.6-19.2 19.2-32 22.4-22.4 9.6-41.6 19.2-60.8 32-12.8 9.6-25.6 19.2-35.2 28.8-9.6 9.6-19.2 19.2-28.8 25.6-9.6 9.6-22.4 12.8-35.2 16-16 3.2-32 0-48-6.4-9.6-3.2-19.2-12.8-25.6-22.4-6.4-9.6-9.6-22.4-6.4-32 0-19.2 3.2-41.6 6.4-60.8 3.2-16 6.4-32 6.4-51.2 3.2-32 3.2-60.8 0-92.8v-16c0-9.6 9.6-19.2 19.2-19.2h12.8c9.6 0 22.4 3.2 32 6.4 6.4 3.2 12.8 3.2 19.2 6.4 12.8 3.2 22.4 3.2 35.2 3.2 12.8-3.2 25.6-6.4 38.4-6.4 6.4 0 9.6 0 16 3.2 6.4 0 9.6 3.2 12.8 6.4 3.2 3.2 6.4 6.4 6.4 9.6 3.2 6.4 3.2 12.8 3.2 16v16c3.2 9.6 6.4 16 12.8 22.4l19.2 19.2c6.4 6.4 12.8 12.8 19.2 16 3.2 3.2 6.4 3.2 9.6 6.4l9.6 9.6c3.2 12.8 3.2 19.2 3.2 25.6" fill="#F5BD0C" p-id="15400"></path><path d="M928 864c-3.2 6.4-6.4 9.6-9.6 16-9.6 9.6-19.2 19.2-32 22.4-22.4 9.6-41.6 19.2-60.8 32-12.8 9.6-25.6 19.2-35.2 28.8-9.6 9.6-19.2 19.2-28.8 25.6-9.6 9.6-22.4 12.8-35.2 16-16 3.2-32 0-48-6.4-9.6-3.2-19.2-12.8-25.6-22.4-6.4-9.6-9.6-22.4-6.4-32 0-19.2 3.2-41.6 6.4-60.8 3.2-16 6.4-32 6.4-51.2 3.2-32 3.2-60.8 0-92.8v-16c0-9.6 9.6-19.2 19.2-19.2h12.8c9.6 0 22.4 3.2 32 6.4 6.4 3.2 12.8 3.2 19.2 6.4 12.8 3.2 22.4 3.2 35.2 3.2 12.8-3.2 25.6-6.4 38.4-6.4 6.4 0 9.6 0 16 3.2 6.4 0 9.6 3.2 12.8 6.4 3.2 3.2 6.4 6.4 6.4 9.6 3.2 6.4 3.2 12.8 3.2 16v16c3.2 9.6 6.4 16 12.8 22.4l19.2 19.2c6.4 6.4 12.8 12.8 19.2 16 3.2 3.2 6.4 3.2 9.6 6.4l9.6 9.6c3.2 12.8 3.2 19.2 3.2 25.6M230.4 694.4c6.4-3.2 12.8-3.2 16 0 6.4 0 9.6 3.2 16 6.4 9.6 6.4 16 16 22.4 25.6 16 22.4 32 44.8 44.8 67.2 9.6 19.2 22.4 38.4 35.2 54.4 9.6 12.8 19.2 22.4 25.6 32 9.6 9.6 16 22.4 19.2 38.4 6.4 19.2 3.2 38.4-6.4 54.4-6.4 12.8-16 22.4-25.6 28.8-9.6 6.4-22.4 9.6-35.2 9.6-19.2-3.2-41.6-9.6-57.6-19.2-38.4-16-80-19.2-121.6-32-12.8-3.2-25.6-9.6-35.2-12.8-6.4 0-9.6-3.2-16-6.4s-9.6-6.4-12.8-9.6c-3.2-6.4-3.2-9.6-3.2-16 0-3.2 0-9.6 3.2-12.8 3.2-9.6 6.4-16 9.6-22.4 6.4-12.8 6.4-28.8 6.4-41.6s-3.2-28.8-3.2-41.6v-19.2c3.2-12.8 12.8-22.4 25.6-25.6h38.4c6.4 0 12.8-3.2 16-3.2 0-6.4 6.4-12.8 9.6-16 3.2-3.2 6.4-9.6 9.6-16 3.2-6.4 6.4-9.6 9.6-12.8 0-3.2 6.4-6.4 9.6-9.6" fill="#F5BD0C" p-id="15401"></path><path d="M230.4 694.4c6.4-3.2 12.8-3.2 16 0 6.4 0 9.6 3.2 16 6.4 9.6 6.4 16 16 22.4 25.6 16 22.4 32 44.8 44.8 67.2 9.6 19.2 22.4 38.4 35.2 54.4 9.6 12.8 19.2 22.4 25.6 32 9.6 9.6 16 22.4 19.2 38.4 6.4 19.2 3.2 38.4-6.4 54.4-6.4 12.8-16 22.4-25.6 28.8-9.6 6.4-22.4 9.6-35.2 9.6-19.2-3.2-41.6-9.6-57.6-19.2-38.4-16-80-19.2-121.6-32-12.8-3.2-25.6-9.6-35.2-12.8-6.4 0-9.6-3.2-16-6.4s-9.6-6.4-12.8-9.6c-3.2-6.4-3.2-9.6-3.2-16 0-3.2 0-9.6 3.2-12.8 3.2-9.6 6.4-16 9.6-22.4 6.4-12.8 6.4-28.8 6.4-41.6s-3.2-28.8-3.2-41.6v-19.2c3.2-12.8 12.8-22.4 25.6-25.6h38.4c6.4 0 12.8-3.2 16-3.2 0-6.4 6.4-12.8 9.6-16 3.2-3.2 6.4-9.6 9.6-16 3.2-6.4 6.4-9.6 9.6-12.8 0-3.2 6.4-6.4 9.6-9.6" fill="#F5BD0C" p-id="15402"></path><path d="M240 704c6.4-3.2 9.6-3.2 16 0 6.4 0 9.6 3.2 12.8 6.4 6.4 6.4 16 16 19.2 25.6 12.8 22.4 25.6 44.8 38.4 64l28.8 48c6.4 9.6 16 19.2 22.4 28.8 9.6 9.6 12.8 22.4 19.2 32 3.2 16 3.2 32-6.4 48-6.4 9.6-12.8 19.2-22.4 25.6-9.6 6.4-22.4 9.6-35.2 9.6-19.2-3.2-35.2-9.6-54.4-16-35.2-12.8-70.4-12.8-105.6-22.4l-38.4-9.6c-6.4 0-9.6-3.2-16-3.2-6.4-3.2-9.6-6.4-12.8-9.6-3.2-3.2-3.2-6.4-3.2-12.8 0-3.2 0-9.6 3.2-12.8 3.2-6.4 6.4-16 9.6-22.4 3.2-12.8 6.4-25.6 3.2-38.4 0-12.8-3.2-25.6-3.2-38.4v-16c0-6.4 3.2-9.6 6.4-16 3.2-3.2 9.6-6.4 16-6.4h38.4c6.4 0 12.8-3.2 19.2-6.4 3.2-3.2 9.6-6.4 9.6-12.8 3.2-6.4 3.2-9.6 6.4-16s3.2-9.6 6.4-16c12.8-6.4 16-12.8 22.4-12.8" fill="#F5BD0C" p-id="15403"></path></svg>