<?xml version="1.0" standalone="no"?><!DOCTYPE svg PUBLIC "-//W3C//DTD SVG 1.1//EN" "http://www.w3.org/Graphics/SVG/1.1/DTD/svg11.dtd"><svg t="1764127377758" class="icon" viewBox="0 0 1085 1024" version="1.1" xmlns="http://www.w3.org/2000/svg" p-id="23067" xmlns:xlink="http://www.w3.org/1999/xlink" width="271.25" height="256"><path d="M826.88 31.232c68.608 25.6 71.68 55.296 18.432 108.032-93.696 92.672-180.736 192-268.8 289.792-26.624 29.696-44.544 29.184-71.68-1.024C417.28 329.728 330.24 230.4 236.032 138.24c-50.176-49.152-49.664-77.824 12.8-106.496h78.336c73.728 35.84 124.416 97.792 174.592 158.72 32.768 39.424 50.688 33.792 80.896-1.536 49.664-57.856 98.816-117.76 166.4-157.184 26.112-0.512 52.224-0.512 77.824-0.512zM248.832 962.048c-62.464-28.672-62.976-57.344-12.8-106.496 92.672-90.112 178.176-186.88 263.68-284.16 31.232-35.328 49.664-38.912 82.432-1.536 85.504 96.768 171.008 194.048 263.168 284.672 53.76 52.736 49.152 82.432-18.432 108.032h-78.336c-67.072-40.448-116.736-99.84-166.4-157.696-30.208-35.328-48.64-40.448-80.896-1.024-49.664 60.928-101.376 122.368-174.592 158.72-25.6-0.512-51.712-0.512-77.824-0.512z" fill="#070707" p-id="23068"></path><path d="M326.656 962.048c73.728-35.84 124.928-97.28 174.592-158.72 32.256-39.424 50.176-34.304 80.896 1.024 49.664 57.856 99.328 117.248 166.4 157.696H326.656z m422.4-930.816c-67.584 39.936-116.736 99.328-166.4 157.184-30.208 35.328-48.128 40.96-80.896 1.536-50.176-60.928-100.864-122.88-174.592-158.72h421.888z" fill="#F6F6F6" p-id="23069"></path><path d="M101.376 840.704c-5.632-1.024-27.136-2.048-46.08-9.728-38.4-15.872-61.952-34.304-20.48-76.8 69.12-70.144 132.096-145.92 201.216-216.064 29.696-30.72 32.256-50.176 1.024-81.92-69.12-69.632-132.096-145.92-201.216-216.064-39.936-40.96-22.016-61.952 18.944-76.288 73.728-26.624 139.264-8.192 192.512 47.104 78.848 82.432 154.624 167.424 232.448 250.88 19.968 20.992 30.72 38.4 5.12 65.024C400.896 614.912 320 706.048 235.52 794.112c-31.232 32.256-72.192 49.664-134.144 46.592z" fill="#E57307" p-id="23070"></path><path d="M978.944 840.704c-62.464 4.096-105.472-18.944-140.288-55.808-80.384-84.48-157.696-171.52-238.08-256-23.04-24.064-23.04-39.424 0-63.488 80.384-84.48 157.184-172.544 238.592-256 58.368-59.904 136.192-72.192 199.168-40.96 35.328 17.408 46.592 33.28 13.824 67.072-70.656 72.192-136.192 149.504-206.848 221.184-31.232 31.744-29.184 51.2 1.024 81.408 60.416 60.416 118.272 123.904 173.568 188.416 19.456 23.04 67.584 39.424 47.616 76.8-16.896 30.72-58.88 39.424-88.576 37.376z" fill="#E57305" p-id="23071"></path></svg>