<?xml version="1.0" standalone="no"?><!DOCTYPE svg PUBLIC "-//W3C//DTD SVG 1.1//EN" "http://www.w3.org/Graphics/SVG/1.1/DTD/svg11.dtd"><svg t="1745395139950" class="icon" viewBox="0 0 1024 1024" version="1.1" xmlns="http://www.w3.org/2000/svg" p-id="9472" xmlns:xlink="http://www.w3.org/1999/xlink" width="200" height="200"><path d="M827.565386 1024 196.434614 1024C88.132459 1024 0.015995 935.883536 0.015995 827.581381L0.015995 196.418619C0.015995 88.116464 88.132459 0 196.434614 0l631.130772 0c108.302156 0 196.402624 88.116464 196.402624 196.418619l0 631.162762C1024.015995 935.883536 935.883536 1024 827.565386 1024zM196.434614 15.707092C96.785754 15.707092 15.723087 96.769759 15.723087 196.418619l0 631.162762c0 99.632865 81.062668 180.711528 180.711528 180.711528l631.130772 0c99.632865 0 180.711528-81.062668 180.711528-180.711528L1008.276913 196.418619c0-99.64886-81.062668-180.711528-180.711528-180.711528L196.434614 15.707092z" fill="#231815" p-id="9473"></path><path d="M850.559575 461.393315c-10.840362-72.977195-44.236176-139.222118-96.563574-191.540144-52.327398-52.302405-118.556701-85.713839-191.549516-96.547954C527.351203 168.072477 491.79044 168.322399 456.763886 174.008122c-35.510778 5.754452-69.650109 16.969697-101.499531 33.348953-7.606998 3.92065-10.596689 13.261481-6.691659 20.868479 3.92065 7.622618 13.261481 10.612309 20.868479 6.701031 120.781006-62.121212 266.516714-39.275226 362.642924 56.84786 73.758201 73.758201 104.373633 176.757263 86.535458 275.26398-14.46423-24.820369-33.302093-42.861606-65.229616-66.729147-6.51359-4.857857-22.680412-11.77757-25.210872 3.989378-1.077788 6.738519 28.662918 42.742893 42.11184 79.965636 15.8388 44.017495 10.762262 55.826304 17.197751 80.084349 0.171821 0.859107 0.374883 1.686973 0.687285 2.499219l0 0c4.233052 14.682912 19.306467 12.730397 24.617307 6.419869 0-0.01562 0-0.03124 0.03124-0.04686 1.468291-1.249609 2.717901-2.811621 3.670728-4.623555 16.369884-31.865042 27.60075-66.010622 33.364574-101.483911C855.542393 532.083724 855.761075 496.516714 850.559575 461.393315zM654.264667 789.078413c-120.774758 62.105592-266.501093 39.253358-362.627304-56.857232-73.733208-73.74258-104.348641-176.663543-86.572946-275.139019 14.667291 26.116838 33.651984 44.554827 66.666667 69.203374 6.51359 4.857857 22.664792 11.79319 25.185879-3.98313 1.099656-6.732271-28.662918-42.736645-42.086848-79.990628-16.376132-45.501406-10.402999-56.56045-17.906904-82.558575-1.015308-3.514527-2.646048-6.082474-4.629803-7.847548-1.171509-1.255858-2.567948-2.349266-4.186192-3.192752-7.628866-3.90503-16.969697-0.896595-20.884099 6.691659-16.376132 31.849422-27.591378 65.985629-33.348953 101.499531-5.685723 35.026554-5.935645 70.587316-0.693533 105.685723 10.83099 72.992815 44.226804 139.222118 96.547954 191.549516 52.311778 52.327398 118.562949 85.723211 191.533896 96.563574 35.120275 5.2015 70.687285 4.982818 105.707591-0.702905 35.48891-5.763824 69.618869-16.994689 101.499531-33.364574 7.591378-3.93627 10.57482-13.277101 6.685411-20.852858C671.228116 788.156826 661.887285 785.157763 654.264667 789.078413z" fill="#272636" p-id="9474"></path></svg>