<?xml version="1.0" standalone="no"?><!DOCTYPE svg PUBLIC "-//W3C//DTD SVG 1.1//EN" "http://www.w3.org/Graphics/SVG/1.1/DTD/svg11.dtd"><svg t="1746858069918" class="icon" viewBox="0 0 1024 1024" version="1.1" xmlns="http://www.w3.org/2000/svg" p-id="37587" xmlns:xlink="http://www.w3.org/1999/xlink" width="512" height="512"><path d="M22.022887 304.77077C56.710445 137.220906 163.281886 43.858897 329.526167 15.673656c122.904033-20.863734 245.859265-21.119731 368.532901 0.563193 171.185017 30.258814 274.070106 129.047955 306.863287 299.157786 25.343677 131.479924 25.727672 264.34223-0.383995 395.694155-35.071553 166.423478-144.382159 269.154968-310.012047 297.23781-122.904033 20.863734-245.859265 21.119731-368.532901-0.563193C154.782795 977.504593 51.436912 873.774715 18.64373 703.664884c-26.623661-132.350313-24.063693-266.057408 3.404757-398.894114z" fill="#2FC25B" p-id="37588"></path><path d="M526.336457 557.925942a23.193304 23.193304 0 0 0 22.604512-22.604511 23.193304 23.193304 0 0 0-22.604512-22.630112 23.193304 23.193304 0 0 0-22.604511 22.630112c0 12.031847 10.547066 22.604512 22.604511 22.604511z m0-75.365439a23.193304 23.193304 0 0 0 22.604512-22.604511 23.193304 23.193304 0 0 0-22.604512-22.604512 23.193304 23.193304 0 0 0-22.604511 22.604512c0 12.031847 10.547066 22.604512 22.604511 22.604511z m7.526304 120.574463h-15.052608a23.193304 23.193304 0 0 0-22.604512 22.604512c0 12.057446 10.547066 22.604512 22.604512 22.604512h15.052608a23.193304 23.193304 0 0 0 22.630112-22.604512 23.193304 23.193304 0 0 0-22.630112-22.604512z m186.903217-203.466206c-10.547066-81.406962-79.870982-143.204574-164.273105-143.204574a166.26988 166.26988 0 0 0-155.262021 105.521855h-10.547065a105.08666 105.08666 0 0 0-102.475494 81.406962c-63.307993 18.07337-108.542616 76.85022-108.542616 144.663755 0 82.917343 67.839135 150.730878 150.730879 150.730878h346.670779c91.928428-4.531142 165.783486-79.870982 165.783487-173.30979 0-78.386201-51.250547-143.204574-122.084844-165.809086z m-284.873168 248.67523c0 16.588588-13.567827 30.156416-30.130815 30.156415h-15.078208c-16.562989 0-30.130816-13.567827-30.130816-30.156415V497.664311c0-16.588588 13.567827-30.156416 30.130816-30.156416h15.078208c16.588588 0 30.130816 13.567827 30.130815 30.156416v150.705278z m150.730879 0c0 16.588588-13.567827 30.156416-30.130816 30.156415h-60.287232c-16.588588 0-30.156416-13.567827-30.156415-30.156415v-210.99251c0-16.588588 13.567827-30.156416 30.156415-30.156416h60.287232c16.562989 0 30.130816 13.567827 30.130816 30.156416v210.99251z m105.521854 0c0 16.588588-13.567827 30.156416-30.156415 30.156415h-15.078208c-16.562989 0-30.130816-13.567827-30.130816-30.156415V497.664311c0-16.588588 13.567827-30.156416 30.130816-30.156416h15.078208c16.588588 0 30.156416 13.567827 30.156415 30.156416v150.705278z" fill="#FFFFFF" p-id="37589"></path></svg>