<?xml version="1.0" standalone="no"?><!DOCTYPE svg PUBLIC "-//W3C//DTD SVG 1.1//EN" "http://www.w3.org/Graphics/SVG/1.1/DTD/svg11.dtd"><svg t="1722747645550" class="icon" viewBox="0 0 1024 1024" version="1.1" xmlns="http://www.w3.org/2000/svg" p-id="1768" width="512" height="512" xmlns:xlink="http://www.w3.org/1999/xlink"><path d="M130.88 429.152A82.848 82.848 0 1 0 213.728 512a82.848 82.848 0 0 0-82.848-82.848z m591.584 376.576a82.848 82.848 0 1 0 113.152 30.336 82.816 82.816 0 0 0-113.152-30.336zM310.848 512a241.696 241.696 0 0 1 102.912-198.016l-60.576-101.44a360.736 360.736 0 0 0-148.832 209.216 116.384 116.384 0 0 1 0 180.48 360.448 360.448 0 0 0 148.832 209.248l60.576-101.472A241.568 241.568 0 0 1 310.848 512z m242.016-242.048a242.016 242.016 0 0 1 241.056 220.576l118.08-1.728a358.88 358.88 0 0 0-106.976-233.6 116.32 116.32 0 0 1-156.032-90.08 360.096 360.096 0 0 0-255.68 24.192l57.6 103.168a241.376 241.376 0 0 1 101.952-22.496z m0 484.064a240.928 240.928 0 0 1-101.952-22.4l-57.6 103.168a359.648 359.648 0 0 0 255.648 24.192 116.32 116.32 0 0 1 156.032-90.208 358.784 358.784 0 0 0 106.976-233.6l-118.08-1.728a241.984 241.984 0 0 1-241.024 220.608z m169.6-535.776a82.848 82.848 0 1 0-30.336-113.12 82.784 82.784 0 0 0 30.304 113.152z" fill="" p-id="1769"></path></svg>