<?xml version="1.0" standalone="no"?><!DOCTYPE svg PUBLIC "-//W3C//DTD SVG 1.1//EN" "http://www.w3.org/Graphics/SVG/1.1/DTD/svg11.dtd"><svg t="1745571122211" class="icon" viewBox="0 0 3910 1024" version="1.1" xmlns="http://www.w3.org/2000/svg" p-id="28272" xmlns:xlink="http://www.w3.org/1999/xlink" width="763.671875" height="200"><path d="M3481.771062 849.397238H3149.227374c-186.929303 0-203.538085-154.12581-203.538085-201.145684 0-47.065882 16.608781-201.145684 203.538085-201.145684h332.543688c186.929303 0 203.584092 154.079802 203.584092 201.145684 0 47.065882-16.654789 201.145684-203.584092 201.145684z m7.223209-570.955612h-334.015934c-347.128131 0-377.9993 283.269437-377.999301 369.809928 0 86.540492 30.87117 369.809929 377.999301 369.809929h334.015934c347.174138 0 378.045308-283.269437 378.045308-369.809929 0-86.540492-30.917177-369.855937-378.045308-369.855936z m-778.772414 25.902337h-108.302136c-46.375766 0-55.899361 7.82131-73.796358 33.999694-17.943005 26.178384-327.620864 492.604492-327.620864 492.604492-9.891656 14.354404-20.381413 20.151375-33.401594 20.151375-13.066188 0-23.509937-5.796971-33.401593-20.151375 0 0-309.769874-466.426108-327.666872-492.604492-17.850989-26.224392-27.420592-33.999694-73.796358-33.999694h-108.302136c-24.890168 0-36.346087 19.23122-20.657459 42.69515l369.947952 554.070785C2030.642054 984.383844 2072.739104 1018.061483 2167.100905 1018.061483c94.315794 0 136.458852-33.67764 193.876467-116.951585l369.901945-554.070785c15.64262-23.463929 4.278717-42.69515-20.65746-42.69515z m-1425.548724 45.271581c0-32.435432 12.652119-45.271581 44.627473-45.271581h79.501314c31.929347 0 44.581466 12.882157 44.581465 45.271581v623.174358c0 32.435432-12.652119 45.271581-44.581465 45.271581h-79.547321c-31.929347 0-44.581466-12.882157-44.581466-45.271581V349.615544z m-6.625109-197.465067c-25.764315-25.764315-25.764315-46.145728 0-71.910042L1333.073238 25.21522c25.764315-25.764315 46.145728-25.764315 71.910042 0l55.071223 55.025215c25.718307 25.764315 25.718307 46.145728 0 71.910042l-55.071223 55.025214c-25.764315 25.764315-46.145728 25.764315-71.910042 0L1278.094031 152.196484z m-164.523552 152.193486h-108.164113c-46.329758 0-55.899361 7.82131-73.75035 33.999694-17.896997 26.178384-327.29881 492.604492-327.29881 492.604492-9.845649 14.308396-20.335405 20.151375-33.355586 20.151375s-23.463929-5.842978-33.355586-20.151375c0 0-309.401813-466.472116-327.252802-492.604492-17.896997-26.178384-27.420592-33.999694-73.75035-33.999694H28.432761c-27.788654 0-36.346087 19.23122-20.657459 42.69515l369.533883 554.070785C434.634784 984.383844 476.731834 1018.061483 571.001621 1018.061483c94.177771 0 136.274821-33.67764 193.60042-116.951585l369.533883-554.070785c15.64262-23.463929 7.177202-42.69515-20.611452-42.69515z" fill="#415FFF" p-id="28273"></path></svg>