<?xml version="1.0" standalone="no"?><!DOCTYPE svg PUBLIC "-//W3C//DTD SVG 1.1//EN" "http://www.w3.org/Graphics/SVG/1.1/DTD/svg11.dtd"><svg t="1745458938525" class="icon" viewBox="0 0 1024 1024" version="1.1" xmlns="http://www.w3.org/2000/svg" p-id="3743" xmlns:xlink="http://www.w3.org/1999/xlink" width="200" height="200"><path d="M0 0m184.32 0l655.36 0q184.32 0 184.32 184.32l0 655.36q0 184.32-184.32 184.32l-655.36 0q-184.32 0-184.32-184.32l0-655.36q0-184.32 184.32-184.32Z" fill="#FE7945" p-id="3744"></path><path d="M184.32 286.72h317.44a153.6 153.6 0 0 1 153.6 153.6v307.2H184.32v-460.8z" fill="#FFFFFF" p-id="3745"></path><path d="M737.28 286.72h102.4v460.8H737.28z" fill="#FFFFFF" p-id="3746"></path><path d="M286.72 389.12h215.04a51.2 51.2 0 0 1 51.2 51.2v307.2H286.72v-358.4z" fill="#FE7945" p-id="3747"></path><path d="M368.64 491.52h102.4v256H368.64z" fill="#FFFFFF" p-id="3748"></path></svg>