<?xml version="1.0" standalone="no"?><!DOCTYPE svg PUBLIC "-//W3C//DTD SVG 1.1//EN" "http://www.w3.org/Graphics/SVG/1.1/DTD/svg11.dtd"><svg t="1727194041488" class="icon" viewBox="0 0 1024 1024" version="1.1" xmlns="http://www.w3.org/2000/svg" p-id="189976" xmlns:xlink="http://www.w3.org/1999/xlink" width="512" height="512"><path d="M64.67 512c2.03-148.27 27.78-271.04 103.07-344.26C240.96 92.45 363.73 66.7 512 64.67c148.27 2.03 271.04 27.78 344.26 103.07C931.55 240.96 957.3 363.73 959.33 512c-2.03 148.27-27.78 271.04-103.07 344.26C783.04 931.55 660.27 957.3 512 959.33c-148.27-2.03-271.04-27.78-344.26-103.07C92.45 783.04 66.7 660.27 64.67 512z" fill="#9d9237" p-id="189977" data-spm-anchor-id="a313x.search_index.0.i42.1c553a81zI5OvT" class="selected"></path><path d="M710.38 679.44v-61.48c0-11.97-9.71-21.68-21.68-21.68h-54.98c-29.71 0-53.8 24.09-53.8 53.8v61.48c0 11.97 9.71 21.68 21.68 21.68h54.98c29.71 0 53.8-24.09 53.8-53.8z" fill="#FFFFFF" p-id="189978"></path><path d="M633.72 564.01h46.92c16.43 0 29.74-13.32 29.74-29.74V344.56c0-29.71-24.09-53.8-53.8-53.8H367.42c-29.71 0-53.8 24.09-53.8 53.8v334.88c0 29.71 24.09 53.8 53.8 53.8H517.9c16.43 0 29.74-13.32 29.74-29.74v-53.42c0-47.54 38.54-86.07 86.08-86.07zM413.01 372.8h197.98c11.76 0 21.38 7.82 21.38 17.39 0 9.56-9.62 17.39-21.38 17.39H413.01c-11.76 0-21.38-7.82-21.38-17.39 0-9.56 9.62-17.39 21.38-17.39z m0 132.6c-11.76 0-21.38-7.82-21.38-17.39s9.62-17.39 21.38-17.39h197.98c11.76 0 21.38 7.82 21.38 17.39s-9.62 17.39-21.38 17.39H413.01z" fill="#FFFFFF" p-id="189979"></path></svg>