<?xml version="1.0" standalone="no"?><!DOCTYPE svg PUBLIC "-//W3C//DTD SVG 1.1//EN" "http://www.w3.org/Graphics/SVG/1.1/DTD/svg11.dtd"><svg t="1725003502046" class="icon" viewBox="0 0 1024 1024" version="1.1" xmlns="http://www.w3.org/2000/svg" p-id="15787" xmlns:xlink="http://www.w3.org/1999/xlink" width="512" height="512"><path d="M512 519.616m-408.64 0a408.64 408.64 0 1 0 817.28 0 408.64 408.64 0 1 0-817.28 0Z" fill="#FD7968" p-id="15788"></path><path d="M512 519.616m-290.688 0a290.688 290.688 0 1 0 581.376 0 290.688 290.688 0 1 0-581.376 0Z" fill="#FFD100" p-id="15789"></path><path d="M512 944.256a424.64 424.64 0 1 1 424.64-424.64A425.152 425.152 0 0 1 512 944.256z m0-817.28a392.64 392.64 0 1 0 392.64 392.64A393.088 393.088 0 0 0 512 126.976z" fill="#5E482A" p-id="15790"></path><path d="M512 826.304a306.688 306.688 0 1 1 306.688-306.688A307.2 307.2 0 0 1 512 826.304z m0-581.376a274.688 274.688 0 1 0 274.688 274.688A275.2 275.2 0 0 0 512 244.928z" fill="#5E482A" p-id="15791"></path><path d="M526.144 561.024h65.536a11.648 11.648 0 0 1 13.184 13.184 11.456 11.456 0 0 1-13.184 12.8H526.144v55.552a23.744 23.744 0 0 1-2.624 13.376c-1.728 2.24-5.632 3.392-11.776 3.392a15.68 15.68 0 0 1-11.392-3.392 19.2 19.2 0 0 1-3.392-13.376v-55.552H432.256a11.456 11.456 0 0 1-13.184-12.8c0-8.768 4.096-13.184 12.352-13.184h65.6v-38.72H432.256a11.456 11.456 0 0 1-13.184-12.8q0-13.184 12.352-13.184h47.936l-28.544-46.72-28.416-46.72q-7.168-13.184 2.816-19.968a12.8 12.8 0 0 1 9.6-2.816c2.944 0.576 5.824 3.2 8.768 8l65.024 108.224h7.616l31.552-53.504 31.552-53.504c3.712-6.4 7.04-9.088 9.984-8.96a20.672 20.672 0 0 1 9.6 3.392 11.2 11.2 0 0 1 6.016 8 20.608 20.608 0 0 1-4.032 11.456l-56 93.12h46.72a11.648 11.648 0 0 1 13.184 13.184 11.456 11.456 0 0 1-13.184 12.8H526.144z" fill="#FFFFFF" p-id="15792"></path><path d="M433.088 379.968h1.6c2.944 0.576 5.824 3.2 8.768 8l65.152 108.352h7.616l31.552-53.504 31.552-53.504c3.648-5.952 6.912-8.96 9.792-8.96a20.672 20.672 0 0 1 9.6 3.392 11.2 11.2 0 0 1 6.016 8 20.608 20.608 0 0 1-3.84 11.456l-56 93.12h46.72a11.648 11.648 0 0 1 13.184 13.184 11.456 11.456 0 0 1-13.184 12.8H526.144v38.72h65.536a11.648 11.648 0 0 1 13.184 13.184 11.456 11.456 0 0 1-13.184 12.8H526.144v55.552a23.744 23.744 0 0 1-2.624 13.376c-1.728 2.24-5.632 3.392-11.776 3.392a15.68 15.68 0 0 1-11.392-3.392 19.2 19.2 0 0 1-3.392-13.376v-55.552H432.256a11.456 11.456 0 0 1-13.184-12.8c0-8.768 4.096-13.184 12.352-13.184h65.6v-38.72H432.256a11.456 11.456 0 0 1-13.184-12.8q0-13.184 12.352-13.184h47.936l-28.544-46.72-28.416-46.72q-7.168-13.184 2.816-19.968a14.336 14.336 0 0 1 8-2.944m0-32a45.568 45.568 0 0 0-26.176 8.576c-16.768 11.392-27.264 34.944-12.8 61.632l0.768 1.344 9.856 16.128 17.984 29.376a42.624 42.624 0 0 0-35.712 44.48 44.8 44.8 0 0 0 12.416 32 45.568 45.568 0 0 0-12.416 32.64 43.008 43.008 0 0 0 45.184 44.8h32.704v23.552a49.856 49.856 0 0 0 12.8 35.968A46.144 46.144 0 0 0 512 691.2a44.032 44.032 0 0 0 37.184-15.936 53.12 53.12 0 0 0 9.152-32.768v-23.488h33.536a43.008 43.008 0 0 0 45.184-44.8 45.184 45.184 0 0 0-12.8-32.512 44.8 44.8 0 0 0 12.8-32 42.816 42.816 0 0 0-35.84-44.352l27.264-45.376a50.176 50.176 0 0 0 8.384-31.104 42.368 42.368 0 0 0-20.544-32l-0.64-0.448a52.16 52.16 0 0 0-24.704-8H588.8c-14.784 0-27.264 8.192-37.12 24.32v0.384q-15.616 26.432-31.616 53.632L512 440.192l-41.088-68.608a45.376 45.376 0 0 0-30.208-22.976h-0.448a41.216 41.216 0 0 0-7.168-0.64z" fill="#5E482A" p-id="15793"></path></svg>