<?xml version="1.0" standalone="no"?><!DOCTYPE svg PUBLIC "-//W3C//DTD SVG 1.1//EN" "http://www.w3.org/Graphics/SVG/1.1/DTD/svg11.dtd"><svg t="1773816306207" class="icon" viewBox="0 0 1024 1024" version="1.1" xmlns="http://www.w3.org/2000/svg" p-id="24144" xmlns:xlink="http://www.w3.org/1999/xlink" width="256" height="256"><path d="M0 0m128 0l768 0q128 0 128 128l0 768q0 128-128 128l-768 0q-128 0-128-128l0-768q0-128 128-128Z" fill="#3B86FF" p-id="24145"></path><path d="M170.666667 170.666667h469.333333v682.666666H170.666667z m85.333333 170.666666v85.333334h128V341.333333z m213.333333 170.666667v128h85.333334v-128z m0-170.666667v85.333334h85.333334V341.333333z m-213.333333 170.666667v128h128v-128z m469.333333-128h128v469.333333h-128z" fill="#FFFFFF" p-id="24146"></path></svg>