<?xml version="1.0" standalone="no"?><!DOCTYPE svg PUBLIC "-//W3C//DTD SVG 1.1//EN" "http://www.w3.org/Graphics/SVG/1.1/DTD/svg11.dtd"><svg t="1773816262999" class="icon" viewBox="0 0 1024 1024" version="1.1" xmlns="http://www.w3.org/2000/svg" p-id="18671" xmlns:xlink="http://www.w3.org/1999/xlink" width="256" height="256"><path d="M0 0m256 0l512 0q256 0 256 256l0 512q0 256-256 256l-512 0q-256 0-256-256l0-512q0-256 256-256Z" fill="#F99D5E" p-id="18672"></path><path d="M295.3472 760.3456h388.9664c12.6464 0 22.8864 11.1872 22.8864 24.96 0 13.7984-10.24 24.96-22.8864 24.96H272.4864a21.8112 21.8112 0 0 1-16.1792-7.3216A26.0864 26.0864 0 0 1 249.6 785.3056V402.5856C249.6 388.8128 259.84 377.6256 272.4864 377.6256c12.6208 0 22.8608 11.1872 22.8608 24.96v357.76z" fill="#FFFFFF" p-id="18673"></path><path d="M840.192 618.8288c1.3824 4.864 2.4832 10.8032 3.328 17.792 0.8448 6.9888 1.28 14.08 1.28 21.248 0 7.168-0.512 13.8752-1.536 20.1472-1.024 6.2976-2.56 11.008-4.608 14.1568-1.3568 2.0992-5.376 4.1984-12.0064 6.2976-6.6304 2.0992-14.8992 4.0192-24.7808 5.76a812.8 812.8 0 0 1-68.7104 8.9088c-12.0832 1.024-23.7568 1.92-34.9952 2.6112-11.264 0.6912-21.12 1.0496-29.6448 1.0496-8.4992 0-18.304-0.3584-29.3632-1.024a1387.3152 1387.3152 0 0 1-34.5088-2.6368 2036.864 2036.864 0 0 1-35.2512-3.4048 582.4768 582.4768 0 0 1-31.9232-4.1984c-9.728-1.5872-17.8944-3.1488-24.5248-4.7104-6.656-1.5872-10.8288-3.072-12.544-4.4544-2.7136-2.4576-4.9152-9.7792-6.6304-22.016-1.6896-12.2112-1.1776-27.9296 1.536-47.1552 1.7152-11.1872 6.0416-19.5584 13.056-25.1392 6.9632-5.6064 15.232-10.1376 24.7552-13.6448 9.5488-3.4816 19.328-6.528 29.3888-9.1648a87.6288 87.6288 0 0 0 40.8576-23.296c3.2512-3.5072 5.632-7.0144 7.168-10.496 1.536-3.4816 2.304-7.168 2.304-11.008 0-3.84-0.1792-8.192-0.512-13.1072-0.6912-6.9632-3.072-12.4672-7.168-16.4864a180.3008 180.3008 0 0 0-13.2608-11.776 28.0064 28.0064 0 0 1-6.4-8.9344c-1.8688-3.84-3.4816-7.68-4.864-11.52a247.424 247.424 0 0 1-4.096-14.1568 25.6256 25.6256 0 0 1-6.1184-3.1488 29.1072 29.1072 0 0 1-5.376-6.272 51.456 51.456 0 0 1-5.3504-11.52 34.0736 34.0736 0 0 1-2.048-13.9008c0.3328-4.352 1.2032-7.936 2.56-10.752 1.3568-3.4816 3.2256-6.6304 5.632-9.4208a229.632 229.632 0 0 1 1.536-34.048c1.3568-9.7792 3.4816-19.9936 6.3744-30.6688 2.8928-10.6496 7.424-20.5056 13.5424-29.5936 5.4528-8.3968 11.5712-15.2064 18.3808-20.4288a89.8816 89.8816 0 0 1 42.4192-18.3296c7.168-1.0752 13.952-1.5872 20.4288-1.5872 17.3824 0 32.8704 3.6608 46.5152 11.008 13.6192 7.3216 23.6544 15.1808 30.1312 23.552 7.5008 9.472 13.056 20.0192 16.6144 31.744 3.584 11.6736 6.2208 22.6048 7.936 32.7168 1.6896 11.8784 2.3552 23.7568 2.0224 35.6352 1.7152 1.408 3.2256 3.328 4.608 5.76 1.024 2.0992 1.9456 4.8128 2.816 8.1408 0.8448 3.328 0.9216 7.424 0.256 12.288-0.6912 6.2976-2.048 11.3664-4.096 15.2064-2.048 3.84-4.096 6.8096-6.144 8.9088a16.384 16.384 0 0 1-8.192 4.7104 246.3488 246.3488 0 0 1-4.0704 14.1568c-1.3568 3.84-3.072 7.68-5.12 11.52a24.3968 24.3968 0 0 1-6.6304 8.3968 155.904 155.904 0 0 1-7.424 6.272c-2.2016 1.7664-4.1472 3.584-5.8624 5.504-1.6896 1.92-3.1488 4.096-4.352 6.5536a36.1984 36.1984 0 0 0-2.816 8.9088 75.0848 75.0848 0 0 0-0.768 13.9008c0.2048 4.7104 1.28 9.344 3.328 13.8752 2.048 4.5312 5.376 8.9088 9.984 13.1072 4.608 4.1728 10.9824 7.8592 19.1488 11.008 7.168 3.1232 15.0784 5.8368 23.7568 8.1152 8.704 2.2528 17.0496 4.9664 25.0368 8.1152 8.0128 3.1488 15.1552 7.168 21.4784 12.032 6.2976 4.9152 10.8032 11.1872 13.5168 18.8928z m-277.504-102.016c-0.64 3.584-1.4592 6.3232-2.432 8.2944-0.9984 1.9456-3.2768 4.0704-6.912 6.3488a132.5312 132.5312 0 0 1-27.5456 12.6976c-9.856 3.2512-19.2768 6.8352-28.3136 10.752-9.0112 3.8912-16.896 9.0112-23.6032 15.36-6.7328 6.3488-10.9312 15.36-12.544 27.1104a79.616 79.616 0 0 0-1.2544 10.496 150.8608 150.8608 0 0 1-0.7424 9.4976 15.9488 15.9488 0 0 1-0.9728 1.7152 15.7952 15.7952 0 0 0-0.9728 1.7152c-12.8-0.9728-25.7792-2.1248-38.912-3.4304a763.0336 763.0336 0 0 1-36.1472-4.3776c-11.008-1.6384-20.2752-3.2512-27.8272-4.8896-7.552-1.6384-12.288-3.2512-14.2592-4.864-2.9696-2.304-5.1712-9.1392-6.656-20.5312-1.4848-11.392-0.896-26.1888 1.7152-44.416 1.6384-10.112 5.8368-17.8432 12.544-23.1936 6.7328-5.376 14.6944-9.6 23.8848-12.6976 9.216-3.0976 18.6368-5.9392 28.3136-8.5504a99.968 99.968 0 0 0 25.8304-10.752 80.384 80.384 0 0 0 13.5424-10.752c3.1232-3.2256 5.3248-6.5792 6.656-9.984 1.28-3.4304 1.9456-6.912 1.9456-10.496 0-3.584-0.1536-7.5008-0.4864-11.7248-0.6656-6.5024-2.8672-11.648-6.656-15.36a222.5152 222.5152 0 0 0-12.544-11.4944 18.816 18.816 0 0 1-6.656-7.808 100.864 100.864 0 0 1-4.6592-10.752 223.0272 223.0272 0 0 1-3.9424-13.184 25.088 25.088 0 0 1-5.888-2.9184 27.4432 27.4432 0 0 1-5.1712-5.8624 47.2576 47.2576 0 0 1-5.1712-10.752 30.72 30.72 0 0 1-1.9712-12.928c0.3328-4.0704 1.152-7.5776 2.4576-10.496a23.6032 23.6032 0 0 1 5.4016-8.7808c-0.3072-10.4192 0.1792-20.992 1.4848-31.744 1.3056-8.7808 3.456-18.2272 6.4-28.3136 2.944-10.112 7.3728-19.2 13.312-27.3408 5.2224-7.8336 11.136-14.1824 17.6896-19.0464 6.5792-4.8896 13.2096-8.704 19.9424-11.4688 6.7328-2.7904 13.5424-4.6592 20.4288-5.632 6.8864-0.9728 13.6192-1.4592 20.1728-1.4592 16.4096 0 31.1808 3.4304 44.288 10.24 13.1328 6.8608 22.9888 14.1824 29.5424 21.9904 4.2752 5.5296 6.9632 10.6496 8.1152 15.36 1.152 4.736 2.7136 10.1888 4.6848 16.384-6.2464 3.584-12.8768 8.8576-19.9424 15.872-7.04 6.9888-13.2096 14.08-18.432 21.2224-6.5792 9.1136-11.52 19.2-14.7968 30.2592-3.2768 11.0848-5.7344 21.3248-7.3728 30.7712-1.6384 11.392-2.4576 22.784-2.4576 34.176-2.6368 2.944-4.608 6.1952-5.888 9.7792a38.5024 38.5024 0 0 0-0.512 25.856c1.6384 5.5552 3.456 9.7792 5.4272 12.6976 1.9456 2.944 3.7632 5.2224 5.4016 6.8352a15.5392 15.5392 0 0 0 5.888 3.9168c1.3312 5.1968 2.6368 10.0864 3.968 14.6432 1.28 3.9168 2.8672 7.9104 4.6592 11.9552 1.792 4.096 4.0192 7.0912 6.656 9.0368 2.304 1.9712 4.096 3.584 5.4016 4.8896 1.3312 1.28 2.3808 2.5344 3.2 3.6608a9.1392 9.1392 0 0 1 1.4848 4.6336c0.1536 1.9712 0.5632 4.5568 1.2288 7.808z" fill="#FFFFFF" p-id="18674"></path></svg>