<?xml version="1.0" standalone="no"?><!DOCTYPE svg PUBLIC "-//W3C//DTD SVG 1.1//EN" "http://www.w3.org/Graphics/SVG/1.1/DTD/svg11.dtd"><svg t="1722765331776" class="icon" viewBox="0 0 1024 1024" version="1.1" xmlns="http://www.w3.org/2000/svg" p-id="6352" data-spm-anchor-id="a313x.search_index.0.i4.788e3a81mWLyYr" width="512" height="512" xmlns:xlink="http://www.w3.org/1999/xlink"><path d="M287.914667 128L64 512l223.914667 384h448.170666L960 512 736.085333 128H287.914667z m148.117333 203.690667l100.608 102.72 59.648 58.922666 0.085333-0.064 89.984 87.317334c-7.466667 5.162667-14.421333 9.301333-21.034666 12.693333-5.973333 3.114667-12.16 5.802667-18.517334 8.021333a101.888 101.888 0 0 1-15.850666 4.096c-4.906667 0.853333-9.344 1.28-13.376 1.28-4.864 0-9.045333-0.533333-12.608-1.28a49.429333 49.429333 0 0 1-8.96-2.645333 35.584 35.584 0 0 1-7.466667-4.181333l-39.658667-40.341334-113.450666-112.362666-41.066667 38.912-114.624 113.493333a36.48 36.48 0 0 1-7.466667 4.096 47.936 47.936 0 0 1-8.853333 2.709333 62.506667 62.506667 0 0 1-12.608 1.216c-4.032 0-8.469333-0.341333-13.376-1.152a101.717333 101.717333 0 0 1-15.850667-4.202666 140.373333 140.373333 0 0 1-18.517333-8.021334 195.626667 195.626667 0 0 1-21.034667-12.672l253.994667-248.533333z m176.213333 29.013333l170.944 169.877333 51.584 50.005334a196.394667 196.394667 0 0 1-21.034666 12.693333 140.224 140.224 0 0 1-18.453334 8.021333 101.333333 101.333333 0 0 1-15.914666 4.096c-4.842667 0.853333-9.365333 1.28-13.44 1.28-4.8 0-8.981333-0.533333-12.586667-1.28a48.277333 48.277333 0 0 1-14.357333-5.397333 8.874667 8.874667 0 0 1-1.984-1.472l-45.994667-45.013333-78.805333-77.973334-12.458667 12.330667-58.24-57.173333 70.784-70.08-0.042667 0.085333z m-222.72 152.213333v93.44a80.213333 80.213333 0 0 1-13.312-1.28 103.936 103.936 0 0 1-15.744-4.288 139.050667 139.050667 0 0 1-18.218666-7.893333 195.136 195.136 0 0 1-20.714667-12.586667l67.925333-67.413333 0.042667 0.021333z" p-id="6353" data-spm-anchor-id="a313x.search_index.0.i3.788e3a81mWLyYr" class="selected"></path></svg>