<?xml version="1.0" standalone="no"?><!DOCTYPE svg PUBLIC "-//W3C//DTD SVG 1.1//EN" "http://www.w3.org/Graphics/SVG/1.1/DTD/svg11.dtd"><svg t="1738497370084" class="icon" viewBox="0 0 1024 1024" version="1.1" xmlns="http://www.w3.org/2000/svg" p-id="5360" xmlns:xlink="http://www.w3.org/1999/xlink" width="200" height="200"><path d="M768.042 68.554H255.96L0 512l255.958 443.446H768.04L1024 512 768.042 68.554zM294.324 590.804l77.684-77.766v107.88c-27.258-0.584-53.366-13.084-77.684-30.114z m305.21 21.148c-47.492-48.964-108.654-110.284-175.068-176.356l-177.876 175.95c-28.038 19.74-74.84 5.954-111.64-20.818l290.238-286.96c91.828 96.592 187.14 192.388 286.072 287.36-47.716 34.202-90.76 36.622-111.726 20.824z m169.63 0l-142.636-142.156-14.23 14.228-66.598-65.868 80.86-80.88c86.214 86.862 170.924 172.352 254.328 253.852-41.138 29.496-86.764 39.622-111.724 20.824z" fill="#0C597F" p-id="5361"></path></svg>