<?xml version="1.0" standalone="no"?><!DOCTYPE svg PUBLIC "-//W3C//DTD SVG 1.1//EN" "http://www.w3.org/Graphics/SVG/1.1/DTD/svg11.dtd"><svg t="1722747631237" class="icon" viewBox="0 0 1024 1024" version="1.1" xmlns="http://www.w3.org/2000/svg" p-id="1558" width="512" height="512" xmlns:xlink="http://www.w3.org/1999/xlink"><path d="M872.084 683.728h-7.161c-29.249 0-52.914-22.816-52.914-50.973v-206.438c0-28.277 23.666-51.094 52.914-51.094h7.161c29.249 0 52.914 22.816 52.914 51.094v206.56c0 28.035-23.788 50.851-52.914 50.851zM725.234 760.43h-57.769v111.411c0 28.157-23.788 50.973-53.036 50.973h-7.161c-29.249 0-52.914-22.816-52.914-50.973v-111.411h-89.081v111.411c0 28.157-23.788 50.973-53.036 50.973h-7.161c-29.249 0-53.036-22.816-53.036-50.973v-111.411h-50.486c-29.249 0-52.914-22.816-52.914-50.973v-313.359c0-5.461 0.242-10.923 0.607-16.262h528.293c0.364 5.34 0.607 10.801 0.607 16.262v313.238c0 28.277-23.666 51.094-52.914 51.094zM382.627 182.378l-44.298-74.032c-0.971-1.578-0.364-3.762 1.334-4.854l2.063-1.092c1.699-0.971 3.884-0.364 4.854 1.334l44.541 74.516c32.646-15.050 69.177-23.423 107.771-23.423h28.884c37.015 0 72.211 7.767 103.765 21.724l43.691-72.818c0.971-1.578 3.155-2.185 4.854-1.334l2.063 1.092c1.699 0.971 2.306 3.155 1.334 4.854l-43.327 72.211c70.027 34.102 121.12 98.911 134.349 176.097h-522.467c12.865-75.73 62.623-139.689 130.587-174.277zM632.513 277.77c15.292 0 27.792-9.345 27.792-20.875s-12.379-20.875-27.792-20.875c-15.17 0-27.67 9.345-27.67 20.875s12.379 20.875 27.67 20.875zM386.996 280.076c15.17 0 27.67-9.467 27.67-20.995s-12.379-20.875-27.67-20.875c-15.292 0-27.67 9.345-27.67 20.875 0 11.651 12.379 20.995 27.67 20.995zM164.295 683.728h-7.161c-29.127 0-52.914-22.816-52.914-50.973v-206.438c0-28.277 23.788-51.094 52.914-51.094h7.161c29.249 0 53.036 22.816 53.036 51.094v206.56c0 28.035-23.666 50.851-53.036 50.851z" fill="" p-id="1559"></path></svg>