<?xml version="1.0" standalone="no"?><!DOCTYPE svg PUBLIC "-//W3C//DTD SVG 1.1//EN" "http://www.w3.org/Graphics/SVG/1.1/DTD/svg11.dtd"><svg t="1741539824301" class="icon" viewBox="0 0 1024 1024" version="1.1" xmlns="http://www.w3.org/2000/svg" p-id="3477" xmlns:xlink="http://www.w3.org/1999/xlink" width="200" height="200"><path d="M511.904 0c-45.588 111.744-73.08 184.84-123.836 293.26 31.12 32.98 69.316 71.384 131.348 114.76-66.692-27.436-112.18-54.984-146.176-83.568C308.28 459.968 206.52 653 0 1024c162.316-93.688 288.14-151.452 405.4-173.492a297.056 297.056 0 0 1-7.704-69.512l0.196-5.2c2.576-103.968 56.672-183.92 120.752-178.496 64.08 5.428 113.892 94.168 111.32 198.14-0.488 19.56-2.696 38.384-6.552 55.84C739.404 873.96 863.88 931.576 1024 1024c-31.572-58.116-59.752-110.504-86.664-160.4-42.392-32.848-86.608-75.6-176.8-121.88 61.992 16.1 106.38 34.68 140.976 55.452C627.892 287.832 605.736 220.152 511.904 0z" fill="#1793D1" p-id="3478"></path></svg>