<?xml version="1.0" standalone="no"?><!DOCTYPE svg PUBLIC "-//W3C//DTD SVG 1.1//EN" "http://www.w3.org/Graphics/SVG/1.1/DTD/svg11.dtd"><svg t="1741675122699" class="icon" viewBox="0 0 1024 1024" version="1.1" xmlns="http://www.w3.org/2000/svg" p-id="5765" xmlns:xlink="http://www.w3.org/1999/xlink" width="200" height="200"><path d="M196.36044 511.578022c-3.235165 0.281319-6.189011 0.984615-8.72088 1.969231-4.782418 1.687912-8.58022 4.641758-11.534065 8.861538-2.953846 4.21978-4.501099 10.127473-4.501099 17.723077 0 2.250549 0.140659 4.641758 0.421978 7.173627s0.984615 5.204396 2.250549 8.158241c1.265934 2.813187 3.235165 5.345055 5.907692 7.454945 2.672527 2.10989 6.32967 3.235165 10.83077 3.235165 0.984615 0 2.250549-0.140659 3.797802-0.421978 1.547253-0.281319 3.375824-0.843956 5.626373-1.969231 2.250549-0.984615 4.501099-2.672527 6.892308-4.782417 2.391209-2.250549 4.36044-5.204396 6.048352-8.861539 2.250549-4.782418 3.657143-9.986813 4.360439-15.613186s1.125275-13.362637 1.265934-22.927473l-12.096703-0.562637c-3.657143 0-7.173626 0.140659-10.54945 0.562637zM713.564835 511.578022c-3.235165 0.281319-6.189011 0.984615-8.720879 1.969231-4.782418 1.687912-8.58022 4.641758-11.534066 8.861538-2.953846 4.21978-4.501099 10.127473-4.501099 17.723077 0.140659 2.250549 0.281319 4.641758 0.421978 7.173627 0.281319 2.531868 0.984615 5.204396 2.25055 8.158241 1.265934 2.813187 3.235165 5.345055 5.907692 7.454945 2.672527 2.10989 6.32967 3.235165 10.830769 3.235165 0.984615 0 2.250549-0.140659 3.797802-0.421978 1.547253-0.281319 3.375824-0.843956 5.626374-1.969231 2.250549-0.984615 4.501099-2.672527 6.892308-4.782417 2.391209-2.250549 4.36044-5.204396 6.048351-8.861539 2.250549-4.782418 3.657143-9.986813 4.36044-15.613186s1.125275-13.362637 1.265934-22.927473l-12.096703-0.562637c-3.657143 0-7.173626 0.140659-10.549451 0.562637zM574.030769 474.865934c-2.250549-3.657143-4.923077-6.47033-7.736264-8.158242s-5.907692-2.531868-9.142857-2.531868c-5.063736 0-9.424176 1.969231-13.081318 5.767033-3.657143 3.938462-6.32967 8.720879-8.298901 14.487912v0.281319c-0.703297 1.828571-1.265934 3.938462-1.687913 6.189011-0.421978 2.250549-0.843956 5.345055-1.265934 9.424176-0.421978 3.938462-0.703297 9.283516-0.984615 16.035165s-0.421978 14.90989-0.421978 24.334065 0.140659 16.035165 0.421978 19.692308c0.281319 3.657143 0.703297 7.032967 1.125275 9.986813 4.079121 0.984615 7.876923 1.547253 11.674725 1.547253 7.314286 0 13.362637-1.687912 18.285714-5.204395s8.720879-8.017582 11.252748-13.643957c2.672527-5.626374 4.501099-11.956044 5.626373-18.848351 1.125275-6.892308 1.687912-14.206593 1.687912-22.083517 0-8.861538-0.703297-16.316484-1.96923-22.505494-1.406593-6.189011-3.235165-11.112088-5.485715-14.769231z" fill="#2A2323" p-id="5766"></path><path d="M1018.514286 165.978022l5.626373-4.21978v-18.285715l-2.813186-2.813186h-50.637363V98.461538l-2.813187-8.43956-8.43956-14.065934-4.219781-5.626374-12.65934-8.43956-14.065934-5.626374h-42.197803V2.813187l-8.43956-2.813187h-7.032967l-8.43956 5.626374v50.637362h-19.692308l1.406593-2.813187V9.846154l-2.813187-5.626374-7.032967-4.21978h-8.43956l-5.626374 2.813187-4.21978 4.21978v49.230769h-18.285714V5.626374l-7.032967-4.219781-8.439561-1.406593-8.43956 2.813187c-4.923077 1.828571-2.250549 49.230769-2.813187 53.450549l-18.285714-1.406593V8.43956l-1.406594-2.813186-7.032967-4.219781-7.032967-1.406593-9.846153 4.21978v52.043956h-21.098902V4.21978c-3.797802-1.406593-11.534066-3.657143-15.472527-4.21978l-5.626374 2.813187-4.21978 4.21978v47.824176l-18.285714 1.406593c-0.562637-4.21978 2.10989-51.621978-2.813187-53.450549l-5.626374-2.813187h-9.846153l-8.439561 5.626374v50.637362h-18.285714V7.032967c-0.562637-1.125275-8.720879-6.189011-9.846154-7.032967h-8.43956l-7.032967 4.21978v52.043956h-21.098902V5.626374l-8.43956-5.626374h-7.032967l-8.43956 2.813187v53.450549h-21.098902V7.032967c-0.703297-1.265934-7.173626-4.782418-8.43956-5.626374l-7.032967-1.406593-8.439561 2.813187-4.21978 7.032967v45.010989l-15.472527 1.406593c-0.562637-4.21978 2.10989-51.621978-2.813187-53.450549l-8.43956-2.813187h-7.032967l-5.626374 2.813187c-4.923077 1.828571-2.250549 49.230769-2.813187 53.450549l-18.285714-1.406593V7.032967c-0.562637-1.125275-8.720879-6.189011-9.846154-7.032967h-8.43956l-7.032968 4.21978v52.043956h-21.098901V5.626374l-7.032967-4.219781-8.43956-1.406593-5.626374 2.813187-5.626373 5.626373v47.824176h-18.285715V7.032967c-0.703297-1.265934-7.173626-4.782418-8.43956-5.626374l-7.032967-1.406593-7.032967 2.813187v2.813187h-2.813187v50.637362h-18.285714V8.43956h-2.813187V4.21978l-7.032967-2.813187-8.439561-1.406593-5.626373 2.813187-4.21978 7.032967c0.703297 3.094505-1.687912 44.307692 1.406593 46.417582h-19.692308c-0.562637-4.21978 2.10989-51.621978-2.813186-53.450549l-5.626374-2.813187h-7.032967l-7.032967 2.813187-4.21978 5.626373v47.824176h-18.285715V7.032967c-0.703297-1.265934-7.173626-4.782418-8.43956-5.626374l-7.032967-1.406593-5.626374 2.813187-4.21978 4.21978v49.230769h-19.692308V8.43956l-1.406593-2.813186-8.439561-5.626374h-7.032967l-8.43956 5.626374v50.637362h-42.197802l-1.406594 1.406594-9.846153 1.406593-12.659341 8.439561-12.659341 14.065934-5.626373 14.065934v45.010989h-50.637363l-5.626374 7.032967v11.252747l5.626374 7.032967h50.637363v19.692308h-52.043956v2.813186l-4.219781 1.406594v14.065934l7.032967 7.032967h49.23077v18.285714h-50.637363l-5.626374 7.032967v14.065934l8.439561 5.626374h47.824176v18.285714h-49.23077l-7.032967 7.032967v14.065934l2.813187 2.813187 5.626374 1.406594v2.813186h47.824176v18.285715h-52.043956l-4.219781 7.032967v11.252747l4.219781 7.032967h52.043956v18.285714h-50.637363l-5.626374 7.032967v12.659341l4.219781 7.032967h52.043956v18.285714h-47.824176v2.813187h-5.626374l-2.813187 4.21978v14.065934l7.032967 7.032967h49.23077v18.285715h-50.637363l-5.626374 7.032967c0 10.69011-1.265934 10.69011 7.032967 18.285714h47.824176l1.406594 19.692308h-49.23077l-7.032967 7.032967v14.065934l4.219781 4.21978h52.043956l-1.406594 19.692308h-47.824176l-2.813186 1.406593-4.219781 7.032967v11.252747l5.626374 5.626374h50.637363v18.285714h-49.23077l-7.032967 7.032967v14.065934l2.813187 2.813187 5.626374 1.406594v2.813186h47.824176v18.285715h-52.043956l-4.219781 7.032967v11.252747l2.813187 5.626374 2.813187 1.406593h50.637363v19.692308h-52.043956l-4.219781 7.032967v11.252747l4.219781 7.032967h52.043956v18.285714h-47.824176v2.813187h-5.626374l-2.813187 4.21978v14.065934l7.032967 7.032968h49.23077v18.285714h-50.637363l-5.626374 5.626373v14.065935l7.032967 5.626373h47.824176l1.406594 19.692308h-52.043956l-4.219781 7.032967v11.252747l4.219781 7.032967h52.043956v19.692308h-50.637363l-5.626374 7.032967v11.252747l5.626374 7.032967h50.637363v45.010989l2.813186 8.439561 5.626374 9.846153 4.21978 4.219781 5.626374 5.626373c4.36044 3.375824 18.707692 9.142857 23.912088 11.252748h42.197802v50.637362l2.813187 2.813187h18.285714l4.21978-5.626374v-47.824175h19.692308v49.230769l4.21978 4.21978h16.879121l4.21978-4.21978v-49.230769h18.285715c0.562637 4.21978-2.10989 51.621978 2.813186 53.450549h21.098902c4.923077-1.828571 2.250549-49.230769 2.813186-53.450549h19.692308l-1.406593 2.813186v43.604396l4.21978 7.032967h19.692308l4.21978-5.626374v-47.824175h18.285714v50.637362h2.813187v2.813187h18.285714l4.21978-4.21978v-49.230769h18.285715v45.010989l5.626373 8.43956h18.285715l2.813186-2.813187v-50.637362h21.098901v52.043956l1.406594 1.406593h19.692308l4.21978-4.21978v-47.824176l18.285714-1.406593c0.562637 4.21978-2.10989 51.621978 2.813187 53.450549h18.285714l5.626374-5.626374v-47.824175l15.472527 1.406593v45.010989l7.032967 7.032967h16.879121l4.21978-4.21978v-49.230769h21.098902v50.637362l2.813186 2.813187h18.285715l2.813186-2.813187v-50.637362h21.098902v52.043956l1.406593 1.406593h19.692308l4.21978-4.21978v-49.230769h18.285714c0.562637 4.21978-2.10989 51.621978 2.813187 53.450549h21.098901c4.923077-1.828571 2.250549-49.230769 2.813187-53.450549h18.285714v49.230769l4.21978 4.21978h21.098901v-53.450549h21.098902v50.637362l2.813186 2.813187h18.285715l4.21978-5.626374v-46.417582l18.285714-1.406593v47.824175l5.626374 5.626374h18.285714c4.923077-1.828571 2.250549-49.230769 2.813187-53.450549h18.285714v49.230769l4.21978 4.21978h19.692308l4.21978-9.846154v-40.791209l-1.406593-2.813186h19.692308v50.637362l2.813186 2.813187h18.285715l2.813186-2.813187v-50.637362h42.197803c0.140659-1.687912 12.8-5.063736 14.065934-5.626374l8.43956-5.626374 7.032967-7.032967c4.079121-4.782418 10.127473-18.004396 12.659341-23.912088v-42.197802h49.230769l4.21978-2.813187v-21.098901c-0.562637-2.250549-50.496703-1.125275-53.450549-1.406593v-19.692308h49.230769l4.21978-4.21978v-18.285714l-4.21978-2.813187h-49.230769l1.406593-19.692308c2.10989-0.281319 51.621978 0.984615 52.043956-1.406593v-21.098901l-1.406593-1.406594-1.406593-1.406593h-50.637363v-18.285714h49.230769l4.21978-4.219781v-19.692307c-0.984615-0.843956-4.782418-3.657143-5.626373-4.219781h-47.824176v-18.285714h50.637363l2.813186-2.813187v-21.098901l-1.406593-1.406593h-52.043956v-19.692308h50.637363l2.813186-1.406593v-21.098901l-2.813186-2.813187h-50.637363v-18.285715h47.824176l5.626373-4.21978v-19.692307l-7.032967-4.219781h-46.417582v-18.285714h49.230769l4.21978-2.813187v-21.098901c-0.562637-2.250549-50.496703-1.125275-53.450549-1.406593v-19.692308h52.043956l1.406593-1.406593v-19.692308l-4.21978-4.21978h-49.230769v-19.692308h47.824176l5.626373-4.21978v-18.285714l-2.813186-2.813187h-50.637363v-18.285715h46.417582l7.032967-4.21978v-19.692307l-5.626373-4.219781h-47.824176v-18.285714h50.637363l2.813186-2.813187v-21.098901c-1.828571-4.923077-49.230769-2.250549-53.450549-2.813187v-18.285714h49.230769l4.21978-4.21978v-18.285714l-2.813186-2.813187h-50.637363v-18.285715h47.824176v-2.813186h5.626373v-21.098901l-7.032967-4.219781h-46.417582v-18.285714c4.21978-0.562637 51.621978 2.10989 53.450549-2.813187v-21.098901l-4.21978-2.813187h-49.230769v-18.285714h49.230769l4.21978-4.21978v-16.879121l-4.21978-4.21978h-49.230769v-19.692308h47.824176zM239.964835 583.736264c-2.813187-0.281319-4.641758-0.562637-5.345055-0.562638-3.094505 0-5.767033 0.140659-8.017582 0.281319-2.250549 0.140659-4.641758 0.281319-7.032967 0.562637-0.140659-1.828571-0.281319-4.923077-0.562638-9.424175-0.140659-4.36044-0.281319-10.549451-0.281318-18.426374-1.969231 4.36044-3.938462 8.017582-5.626374 10.830769s-3.938462 5.767033-6.610989 8.439561c-2.672527 2.813187-6.048352 5.063736-9.846154 6.892307-3.938462 1.828571-8.43956 2.672527-13.643956 2.672528-5.204396 0-9.986813-0.984615-14.206593-3.094506-6.189011-3.235165-10.830769-8.298901-13.643956-15.050549-2.813187-6.892308-4.36044-14.628571-4.36044-23.49011 0.281319-8.43956 1.547253-15.894505 3.938462-21.802198 2.391209-6.048352 5.907692-10.830769 10.54945-14.487912 4.501099-3.657143 9.846154-6.189011 15.894506-7.736264 6.048352-1.547253 12.940659-2.250549 20.536264-2.250549 5.345055 0 11.112088 0.281319 17.160439 0.984615 0-7.032967-0.140659-12.659341-0.562637-16.597802-0.281319-3.938462-1.125275-7.595604-2.531868-10.830769s-3.657143-5.767033-6.751649-7.454945c-3.094505-1.828571-7.454945-2.672527-12.8-2.672528-7.314286 0-13.784615 1.265934-19.551648 3.657143-5.767033 2.391209-10.830769 5.767033-15.472528 9.705495-0.843956-4.36044-1.687912-7.876923-2.672527-10.408792s-2.250549-5.204396-3.938462-7.876923l0.703297-0.281318c6.048352-3.235165 12.518681-5.767033 19.27033-7.876923 6.751648-1.969231 14.90989-3.094505 24.615384-3.094506 8.298901 0 15.050549 0.984615 20.254945 2.953846 5.204396 1.969231 9.283516 4.782418 12.096704 8.298901 2.813187 3.657143 4.641758 7.876923 5.767033 12.94066 0.984615 4.923077 1.547253 10.971429 1.547252 18.145055l-0.562637 55.41978c0 8.720879 0.140659 15.753846 0.562637 20.958242 0.281319 5.204396 0.703297 9.142857 1.265935 11.815384 0.562637 2.672527 1.125275 4.641758 1.96923 5.907693 0.703297 1.265934 1.687912 2.391209 2.953846 3.235164-0.562637 0-2.250549-0.140659-5.063736-0.281318z m85.802198-129.547253c-0.562637 3.938462-0.843956 7.595604-0.984615 11.112088-2.250549-0.562637-4.36044-0.703297-6.329671-0.703297-1.547253 0-3.516484 0.281319-5.907692 0.703297-2.391209 0.562637-5.345055 1.828571-8.720879 4.079121-3.375824 2.250549-6.47033 5.626374-9.283517 10.408791-2.813187 4.782418-4.641758 11.112088-5.767033 18.989011-0.281319 3.516484-0.703297 7.876923-0.843956 12.8-0.281319 4.923077-0.421978 10.408791-0.703296 16.316483-0.281319 10.69011-0.562637 19.410989-0.562638 26.162638s0.140659 12.659341 0.703297 17.723077c0.421978 5.063736 1.406593 9.142857 2.953846 12.378022-4.501099-0.843956-8.720879-1.265934-12.659341-1.265934-3.375824 0-7.314286 0.281319-11.956043 0.984615-1.125275 0.140659-2.10989 0.281319-2.813187 0.281319 0.703297-1.687912 1.125275-3.094505 1.547252-4.21978 0.281319-1.125275 0.562637-2.531868 0.703297-4.501099 0.140659-1.828571 0.281319-4.641758 0.562638-8.298901 0.140659-3.657143 0.281319-7.876923 0.562637-12.378022l0.562637-19.973627V507.78022c0-15.050549 0-24.756044-0.140659-29.116484-0.140659-4.36044-0.421978-8.298901-0.843956-11.956044-0.562637-4.782418-1.406593-8.43956-2.813187-11.112088-1.406593-2.672527-3.657143-4.782418-6.892308-6.048351 6.048352-0.140659 11.674725-0.703297 16.597803-1.687912s10.127473-2.391209 15.331868-4.501099l-1.406594 35.446154c4.923077-12.096703 10.971429-21.098901 18.145055-26.725275s14.90989-8.720879 23.208791-9.283517c-0.984615 3.657143-1.828571 7.454945-2.250549 11.393407z m156.975824 129.125275c-2.250549-0.140659-5.204396-0.281319-9.142857-0.281319-2.531868 0-4.641758 0.140659-6.32967 0.281319-1.687912 0.140659-3.657143 0.562637-5.767033 0.984615l0.281318-0.562637c0.984615-2.250549 1.828571-4.36044 2.25055-6.610989 0.562637-2.250549 0.843956-6.048352 0.984615-11.674726l0.703297-22.505494v-53.45055c0-9.142857-1.265934-15.894505-3.797802-20.395604-2.531868-4.501099-7.314286-6.751648-14.206594-6.751648-4.21978 0-7.876923 0.843956-10.971428 2.391209s-5.626374 3.657143-7.454945 6.189011c-1.406593 1.828571-2.391209 3.657143-3.094506 5.345054s-1.265934 3.938462-1.687912 6.892308c-0.421978 2.813187-0.703297 7.032967-0.843956 12.237363-0.140659 5.345055-0.281319 12.518681-0.562637 21.661538v24.615385c0 8.158242 0 14.487912 0.140659 19.27033 0.140659 4.782418 0.140659 8.58022 0.421978 11.393406 0.281319 5.204396 1.125275 9.142857 2.531868 11.956044-2.672527-0.562637-4.923077-0.843956-6.610989-0.984615-1.687912-0.140659-4.21978-0.281319-7.595604-0.281319-3.375824 0-5.907692 0.140659-7.454945 0.281319-1.547253 0.140659-3.657143 0.562637-5.907693 0.984615 0.703297-1.828571 1.265934-4.501099 1.687913-7.876923 0.421978-3.375824 0.703297-7.032967 0.984615-10.971429s0.421978-8.017582 0.703297-12.237362c0.140659-4.21978 0.281319-7.595604 0.281318-10.127473v-0.703296l0.281319-29.397803c0-19.551648-0.984615-32.773626-3.094506-39.665934s-7.454945-10.268132-16.457142-10.268132c-5.063736 0-9.142857 1.125275-12.237363 3.516484s-5.485714 5.485714-7.032967 9.424176c-1.547253 3.938462-2.531868 8.298901-3.094506 13.221978s-0.703297 10.549451-0.703296 17.01978v55.701099c0 5.204396 0.140659 9.564835 0.421978 12.940659 0.281319 3.375824 0.843956 6.610989 1.969231 9.564835-1.828571-0.562637-3.657143-0.843956-5.626374-0.984615-1.828571-0.140659-4.21978-0.281319-7.032967-0.281319-4.923077 0-9.846154 0.421978-14.628572 1.265934 1.125275-2.250549 1.969231-4.501099 2.531869-7.032967 0.562637-2.391209 0.984615-7.032967 1.265934-13.784615 0.562637-6.892308 0.703297-13.784615 0.703296-20.536264l-0.281318-5.345055v-34.461538c0-11.112088-0.140659-19.832967-0.421978-26.162637-0.281319-6.32967-0.703297-11.252747-1.547253-14.909891-0.703297-3.657143-1.828571-6.32967-3.235165-8.298901-1.406593-1.828571-3.375824-3.375824-5.907692-4.501099 4.923077-0.140659 9.846154-0.703297 14.769231-1.687912s10.549451-2.672527 16.597802-5.204395v27.006593c1.406593-3.094505 2.813187-5.767033 4.21978-8.298901 1.406593-2.391209 3.375824-5.063736 5.907692-7.736264 2.531868-2.672527 5.767033-4.923077 9.846154-6.751648 4.079121-1.828571 8.720879-2.672527 13.925275-2.672528 5.204396 0.140659 9.846154 0.984615 13.503297 2.813187 3.657143 1.828571 6.610989 4.079121 8.580219 6.892308 1.969231 2.672527 3.375824 5.345055 4.219781 8.017582 0.703297 2.672527 1.406593 5.345055 1.96923 8.017583v0.281318l0.281319-0.562637c1.687912-3.235165 3.375824-6.048352 4.923077-8.58022 1.547253-2.531868 3.797802-5.063736 6.751648-7.736263 2.813187-2.672527 6.47033-4.782418 10.69011-6.47033s9.142857-2.531868 14.628572-2.531868c6.47033 0 11.534066 1.265934 15.472527 3.657143s6.610989 5.626374 8.298901 9.424175c1.547253 3.797802 2.672527 7.736264 3.094506 11.674726 0.421978 3.938462 0.703297 8.720879 0.703296 14.347253v69.204395c0 8.43956 0.281319 15.050549 0.703297 19.692308 0.562637 4.782418 1.547253 8.720879 3.094506 12.096703-2.813187-0.562637-5.345055-0.843956-7.595605-0.984615z m118.575824-55.56044c-1.265934 8.58022-3.938462 17.441758-8.017582 26.303297-4.079121 9.002198-10.127473 16.457143-18.285714 22.505494s-18.567033 9.142857-31.367033 9.142858c-7.314286 0-13.784615-0.421978-19.551649-1.406594s-11.252747-2.531868-16.457143-4.641758c0.984615-2.672527 1.828571-6.189011 2.25055-10.69011 0.562637-4.36044 0.703297-11.674725 0.703297-21.802198 0.140659-7.736264 0.281319-22.224176 0.281318-43.323077 0.140659-20.536264 0.281319-35.586813 0.281319-44.870329 0-11.252747-0.140659-20.395604-0.562637-27.428572-0.281319-6.892308-0.984615-12.378022-1.828572-16.175824-0.843956-3.938462-1.969231-6.610989-3.235165-8.298901-1.265934-1.687912-2.953846-3.094505-4.923077-4.079121 6.048352-0.562637 11.534066-1.406593 16.175825-2.672527 4.782418-1.265934 9.986813-3.516484 15.894505-6.751649-0.281319 4.21978-0.703297 9.986813-0.843956 17.16044-0.281319 7.173626-0.421978 14.487912-0.703297 22.083516-0.140659 7.454945-0.281319 15.331868-0.421978 23.349451s-0.140659 14.769231-0.140659 20.395604c1.406593-4.21978 2.672527-7.876923 4.079121-10.971428s3.235165-6.32967 5.767033-9.564836c2.531868-3.235165 5.907692-6.048352 9.986813-8.298901 4.079121-2.250549 9.002198-3.235165 14.628571-3.235165 8.720879 0 15.753846 2.391209 20.958242 7.314286 5.204396 4.923077 9.002198 10.830769 11.393407 17.723077 2.391209 6.892308 3.797802 13.221978 4.501099 18.989011 0.562637 5.767033 0.843956 10.971429 0.843956 15.753846 0.562637 7.032967-0.140659 14.90989-1.406594 23.49011z m25.459341-122.514286c1.969231-3.094505 5.204396-4.641758 9.564835-4.641758 2.813187 0 4.923077 0.562637 6.610989 1.687912 1.547253 1.125275 2.813187 2.531868 3.516484 4.219781s1.265934 3.235165 1.406593 4.782417c0.140659 1.547253 0.281319 3.235165 0.281319 5.063736-0.140659 4.21978-0.703297 7.454945-1.828572 9.564836-0.843956 1.828571-2.10989 3.235165-3.657143 4.360439-1.547253 0.984615-3.797802 1.547253-6.470329 1.547253-4.079121 0-7.173626-1.406593-9.283517-4.21978s-3.235165-6.32967-3.235165-10.83077 0.984615-8.43956 3.094506-11.534066z m24.896703 178.918682c-2.531868-0.281319-4.782418-0.703297-6.892307-0.843956-2.10989-0.140659-4.36044-0.421978-7.032967-0.421978-3.235165 0-6.048352 0.140659-8.439561 0.421978-2.391209 0.281319-5.063736 0.562637-7.736264 0.843956 1.969231-3.516484 3.375824-8.017582 3.938462-13.362638 0.562637-5.345055 0.843956-14.487912 0.843956-27.428571 0-3.235165 0-11.674725 0.281319-25.178022v-20.817582c0-9.424176 0-16.879121-0.14066-22.224176-0.140659-5.345055-0.281319-8.861538-0.703296-10.549451-0.562637-4.36044-1.265934-7.454945-2.391209-9.283516s-2.672527-3.235165-4.641758-4.501099c8.58022-0.984615 14.90989-2.10989 18.989011-3.375824 4.079121-1.265934 7.876923-2.813187 11.674725-4.641759l-0.703297 4.782418c-0.281319 2.531868-0.703297 6.189011-0.843956 10.971429-0.140659 4.782418-0.421978 10.549451-0.703297 17.160439-0.281319 10.69011-0.562637 23.912088-0.562637 39.806594 0 7.032967 0.140659 15.050549 0.281319 24.052747v8.58022c0.140659 9.002198 0.562637 16.316484 1.125274 22.083516s1.969231 10.408791 3.938462 13.925275h-0.281319z m105.494506-0.421978c-2.813187-0.281319-4.641758-0.562637-5.345055-0.562638-3.094505 0-5.767033 0.140659-8.017583 0.281319-2.250549 0.140659-4.641758 0.281319-7.032967 0.562637-0.140659-1.828571-0.281319-4.923077-0.562637-9.424175-0.140659-4.36044-0.281319-10.549451-0.281319-18.426374-1.969231 4.36044-3.938462 8.017582-5.626373 10.830769s-3.938462 5.767033-6.610989 8.439561c-2.672527 2.813187-6.048352 5.063736-9.846154 6.892307-3.938462 1.828571-8.43956 2.672527-13.643956 2.672528s-9.986813-0.984615-14.206594-3.094506c-6.189011-3.235165-10.830769-8.298901-13.643956-15.050549-2.813187-6.892308-4.36044-14.628571-4.360439-23.49011 0.421978-8.43956 1.547253-15.894505 4.079121-21.802198 2.391209-6.048352 5.907692-10.830769 10.54945-14.487912 4.501099-3.657143 9.846154-6.189011 15.894506-7.736264 6.048352-1.547253 12.940659-2.250549 20.536263-2.250549 5.345055 0 11.112088 0.281319 17.16044 0.984615 0-7.032967-0.140659-12.659341-0.562637-16.597802-0.281319-3.938462-1.125275-7.595604-2.531868-10.830769s-3.657143-5.767033-6.751649-7.454945c-3.094505-1.828571-7.454945-2.672527-12.8-2.672528-7.314286 0-13.784615 1.265934-19.551648 3.657143-5.767033 2.391209-10.830769 5.767033-15.472528 9.705495-0.843956-4.36044-1.687912-7.876923-2.672527-10.408792-0.984615-2.531868-2.250549-5.204396-3.938462-7.876923l0.703297-0.281318c6.048352-3.235165 12.518681-5.767033 19.27033-7.876923 6.751648-1.969231 14.90989-3.094505 24.615384-3.094506 8.298901 0 15.050549 0.984615 20.254945 2.953846 5.204396 1.969231 9.283516 4.782418 12.096704 8.298901 2.813187 3.657143 4.641758 7.876923 5.767033 12.94066 0.984615 4.923077 1.547253 10.971429 1.547252 18.145055l-0.562637 55.41978c0 8.720879 0.140659 15.753846 0.562637 20.958242 0.281319 5.204396 0.703297 9.142857 1.265934 11.815384 0.562637 2.672527 1.125275 4.641758 1.828572 5.907693s1.687912 2.391209 2.953846 3.235164c-0.562637 0-2.250549-0.140659-5.063736-0.281318z m115.340659 0.281318c-2.531868-0.281319-4.782418-0.562637-6.751648-0.703296-1.969231-0.140659-4.21978-0.140659-7.032967-0.14066-2.250549 0-4.079121 0.140659-5.767033 0.281319-1.547253 0.140659-3.797802 0.421978-6.47033 0.703297l0.281319-0.562638c0.281319-0.984615 0.703297-2.250549 1.125274-3.657142s0.843956-3.516484 1.125275-6.47033c0.281319-2.813187 0.703297-6.892308 0.843956-12.096703 0.281319-5.204396 0.421978-11.534066 0.421978-19.129671v-51.481318c0-5.063736-0.140659-9.283516-0.562637-12.659341-0.281319-3.375824-1.125275-6.47033-2.391209-9.142857-1.265934-2.672527-3.235165-4.782418-5.907692-6.329671-2.672527-1.547253-6.32967-2.250549-10.830769-2.250549-3.516484 0-7.173626 0.562637-10.83077 1.828571-3.657143 1.125275-6.751648 3.797802-9.564835 7.876923-1.828571 2.531868-3.235165 5.345055-4.360439 8.298902-1.125275 2.953846-1.687912 7.032967-2.10989 11.815384-0.421978 4.782418-0.703297 10.549451-0.703297 17.16044-0.140659 6.610989-0.140659 17.01978-0.14066 31.226373v0.984616c0.140659 10.268132 0.281319 17.16044 0.281319 20.817582 0 3.516484 0.140659 6.751648 0.421978 9.564835s0.562637 5.345055 0.843956 7.314286c0.281319 1.969231 0.984615 4.36044 1.828572 6.892308-5.345055-0.703297-10.268132-0.984615-14.628572-0.984616-3.516484 0-7.454945 0.281319-11.956044 0.703297-0.562637 0.140659-0.984615 0.281319-1.265934 0.281319 0.984615-2.391209 1.687912-4.923077 2.10989-7.876923 0.421978-2.813187 0.703297-7.032967 0.843956-12.378022 0.140659-4.923077 0.281319-13.081319 0.562638-24.474726 0.140659-11.393407 0.281319-22.364835 0.281318-32.773626 0-10.69011-0.140659-19.551648-0.281318-26.584615-0.140659-7.032967-0.562637-12.378022-0.984616-15.753846-0.562637-4.21978-1.265934-7.314286-2.10989-9.142858-0.984615-1.828571-2.250549-3.516484-3.938461-4.782417l-0.281319-0.281319c7.032967-0.562637 12.518681-1.265934 16.175824-2.391209 3.657143-1.125275 7.595604-2.813187 11.674725-4.923077v26.584616c0.984615-2.813187 2.250549-5.626374 3.657143-8.298901 1.406593-2.672527 3.516484-5.204396 6.048352-7.876923 2.672527-2.672527 6.048352-4.782418 10.408791-6.610989 4.36044-1.828571 9.564835-2.672527 15.613187-2.672528 7.876923 0.281319 14.065934 1.406593 18.707692 3.657143 4.501099 2.250549 7.876923 5.204396 9.846154 8.861538s3.235165 7.454945 3.797802 11.393407 0.703297 8.58022 0.703297 13.784615V558.417582c0 11.815385 1.265934 20.395604 3.797802 25.881319l-2.531868-0.281319z" fill="#2A2323" p-id="5767"></path></svg>