<?xml version="1.0" standalone="no"?><!DOCTYPE svg PUBLIC "-//W3C//DTD SVG 1.1//EN" "http://www.w3.org/Graphics/SVG/1.1/DTD/svg11.dtd"><svg t="1738497439290" class="icon" viewBox="0 0 1024 1024" version="1.1" xmlns="http://www.w3.org/2000/svg" p-id="9836" xmlns:xlink="http://www.w3.org/1999/xlink" width="200" height="200"><path d="M172.8 172.8h160l-70.4 70.4L473.6 448v19.2h-19.2L243.2 262.4l-70.4 70.4z" fill="#ADD43B" p-id="9837"></path><path d="M697.6 172.8h153.6v153.6L780.8 256 569.6 467.2h-19.2V448l211.2-211.2z" fill="#A73A8A" p-id="9838"></path><path d="M556.8 550.4H576l204.8 211.2 70.4-70.4v153.6H697.6l64-64-204.8-211.2z" fill="#F5B52E" p-id="9839"></path><path d="M454.4 550.4h19.2v19.2L262.4 780.8l64 70.4H172.8V697.6l70.4 70.4z" fill="#34378B" p-id="9840"></path><path d="M172.8 377.6l70.4-76.8L416 473.6H172.8z" fill="#ADD43B" p-id="9841"></path><path d="M416 550.4L243.2 723.2l-70.4-70.4V550.4z" fill="#34378B" p-id="9842"></path><path d="M32 518.4l108.8-115.2v96h300.8l12.8 12.8-12.8 12.8H140.8v96z m582.4-44.8l172.8-172.8 70.4 70.4v102.4z" fill="#A73A8A" p-id="9843"></path><path d="M851.2 646.4l-70.4 76.8-166.4-172.8h236.8z" fill="#F5B52E" p-id="9844"></path><path d="M576 512l6.4-12.8h300.8v-96L992 512 883.2 620.8v-96H582.4z" fill="#34378B" p-id="9845"></path><path d="M556.8 608l166.4 172.8-70.4 64h-96z" fill="#F5B52E" p-id="9846"></path><path d="M499.2 582.4l12.8-12.8 12.8 12.8v294.4h96L512 985.6 396.8 870.4h102.4v-288z" fill="#ADD43B" p-id="9847"></path><path d="M300.8 780.8L473.6 608v236.8H371.2z" fill="#34378B" p-id="9848"></path><path d="M556.8 416l166.4-172.8-70.4-64h-96z" fill="#A73A8A" p-id="9849"></path><path d="M499.2 441.6l12.8 12.8 12.8-12.8V147.2h96L512 32 396.8 147.2h102.4v294.4z" fill="#F5B52E" p-id="9850"></path><path d="M300.8 243.2L473.6 416V179.2H371.2l-70.4 64z" fill="#ADD43B" p-id="9851"></path></svg>