<?xml version="1.0" standalone="no"?><!DOCTYPE svg PUBLIC "-//W3C//DTD SVG 1.1//EN" "http://www.w3.org/Graphics/SVG/1.1/DTD/svg11.dtd"><svg t="1722747600640" class="icon" viewBox="0 0 1024 1024" version="1.1" xmlns="http://www.w3.org/2000/svg" p-id="932" width="512" height="512" xmlns:xlink="http://www.w3.org/1999/xlink"><path d="M511.872 96L416 192.128h64V384l32 32 32-32V192.128h64L511.872 96zM224 224v128l41.376-41.376L402.752 448H448v-45.248L310.624 265.376 352 224H224z m173.248 0l-41.376 41.376L448 357.504V224h-50.752zM576 224v133.504l92.128-92.128L626.752 224H576z m96 0l41.376 41.376L576 402.752V448h45.248l137.376-137.376L800 352V224h-128zM265.376 355.872L224 397.248V448h133.504l-92.128-92.128z m493.248 0L666.496 448H800v-50.752l-41.376-41.376zM192.128 416L96 512.128 192.128 608v-64H384l32-32-32-32H192.128v-64z m639.744 0v64H640l-32 32 32 32h191.872v64L928 511.872 831.872 416zM224 576v50.752l41.376 41.376L357.504 576H224z m178.752 0l-137.376 137.376L224 672v128h128l-41.376-41.376L448 621.248V576h-45.248zM576 576v45.248l137.376 137.376L672 800h128v-128l-41.376 41.376L621.248 576H576z m90.496 0l92.128 92.128L800 626.752V576h-133.504zM512 608l-32 32v191.872h-64L512.128 928 608 831.872h-64V640l-32-32z m-64 58.496l-92.128 92.128L397.248 800H448v-133.504z m128 0V800h50.752l41.376-41.376L576 666.496z" p-id="933"></path></svg>