<?xml version="1.0" standalone="no"?><!DOCTYPE svg PUBLIC "-//W3C//DTD SVG 1.1//EN" "http://www.w3.org/Graphics/SVG/1.1/DTD/svg11.dtd"><svg t="1739957464597" class="icon" viewBox="0 0 1024 1024" version="1.1" xmlns="http://www.w3.org/2000/svg" p-id="6221" xmlns:xlink="http://www.w3.org/1999/xlink" width="200" height="200"><path d="M331.6 515.6c0-245.8 90.1-444.7 201.3-444.7 56.1 0 106.7 50.8 143.1 132.8l-37.2 10.1c-9-10.7-21.9-17.1-35.6-17.8-31.9 0-58 40.2-76.4 100.8-18.8 71.2-27.6 144.8-26.4 218.5 0 165.8 37.9 300.5 84.6 300.5 34.5 0 63.8-72.4 77.2-176.2l65.9-17.8c-21.6 194.5-100.7 338.7-195.3 338.7-111.1 0-201.2-199.1-201.2-444.9z" fill="#00438F" p-id="6222"></path><path d="M76 429c-26.4-105.2 97-230.3 285.1-304.6l9.5 38c-109.9 48.6-180 117.7-166.3 174.3 17.7 73.2 167.6 97.2 335.2 54.6s289.9-136.6 271.7-210.9c-7.6-32.2-41.4-54.6-90.7-66.6l-12.6-50.3c137 6.6 238.8 54.6 258.3 136.6C996 323.6 820.7 475.2 574.9 538.8S105.5 552.4 76 429z" fill="#00438F" p-id="6223"></path></svg>