<?xml version="1.0" standalone="no"?><!DOCTYPE svg PUBLIC "-//W3C//DTD SVG 1.1//EN" "http://www.w3.org/Graphics/SVG/1.1/DTD/svg11.dtd"><svg t="1739957623593" class="icon" viewBox="0 0 1024 1024" version="1.1" xmlns="http://www.w3.org/2000/svg" p-id="11516" xmlns:xlink="http://www.w3.org/1999/xlink" width="200" height="200"><path d="M835.776 579.776l-66.88-64.896s-15.52-11.52-33.056 5.184c0 0-64.48 62.912-119.424 113.472-52.16 47.36-104.32 96.32-123.84 110.272 0 0-84.384 86.4-191.328 1.984 0 0-145.664-114.24-289.792-310.528l-4.704 23.072s-5.376 19.136 7.36 37.056c0 0 112.576 166.016 251.072 285.056 0 0 69.024 73.632 157.344 89.568 0 0 72.864 19.904 142.112-35.84 33.856-25.856 107.52-94.72 169.216-153.28 56.96-54.144 101.92-101.12 101.92-101.12" fill="#0080CB" p-id="11517"></path><path d="M962.784 715.936l-58.944-64.896s-7.168-9.536-21.088 2.4c-13.92 11.936-195.488 188.704-264.768 236.48a232.16 232.16 0 0 1-129.76 51.744c-35.456 4-73.664-3.968-114.432-19.904-44.352-19.904-112.064-75.648-175.488-140.16-44.832-46.56-89.44-97.92-126.88-147.68-25.344-33.824-49.76-67.68-68.16-97.152 0 0 0 41.024 17.952 75.648 0 0 74.208 141.76 219.008 273.536 14.112 15.904 137.6 139.328 257.536 135.36 0 0 111.872 7.968 213.792-75.648 16.736-15.936 195.488-169.216 251.2-229.728M190.208 445.216l67.008 64.896s15.424 11.52 33.056-5.184c0 0 64.288-62.912 119.104-113.472 52.16-47.232 104.32-96.224 123.84-110.144 0 0 84.384-87.2 191.488-1.984 0 0 146.112 114.144 289.824 310.4l4.8-23.072s5.152-19.136-7.584-37.024c0 0-112.256-165.92-250.816-284.96 0 0-69.28-73.248-157.664-91.552 0 0-72.864-17.12-141.728 37.024-33.856 26.656-107.776 95.552-169.248 154.08-57.088 54.016-102.08 100.992-102.08 100.992" fill="#0080CB" p-id="11518"></path><path d="M62.88 309.184l58.88 64.896s7.424 9.536 21.248-2.4c13.792-11.936 195.584-188.32 264.768-238.08 39.84-28.256 82.432-46.592 129.408-49.76a237.632 237.632 0 0 1 114.656 19.52c44.576 19.904 112.288 74.432 175.584 140.512 44.576 46.176 89.568 97.536 127.008 147.2 25.056 33.824 49.76 67.68 68.064 97.152 0 0 0-41.024-17.92-75.648 0 0-74.432-141.632-218.976-275.392-14.336-12.736-137.728-136.576-257.6-133.76 0 0-111.84-6.4-213.856 77.216-16.544 13.952-195.392 168-251.264 228.544" fill="#0080CB" p-id="11519"></path><path d="M41.344 350.176s103.328 136.448 217.152 226.816c0 0 43.104 37.024 89.28-4.8l236.8-214.848s71.232-71.264 151.68-0.8c0 0 168.384 149.984 260.768 275.776 0 0 5.568 4.384 0 12.352-4.384 8.352-13.536 30.272-13.536 30.272s-101.12-131.008-218.176-227.744c0 0-45.376-34.624-84.8 1.984-39.04 36.64-224.544 206.24-254.016 227.744-29.44 21.504-78.272 44.16-147.296-17.536-53.984-48.16-195.2-181.536-250.784-265.536 0 0-4.992-4.8-0.992-13.824 5.728-10.752 13.92-29.856 13.92-29.856" fill="#9CC816" p-id="11520"></path></svg>