<?xml version="1.0" standalone="no"?><!DOCTYPE svg PUBLIC "-//W3C//DTD SVG 1.1//EN" "http://www.w3.org/Graphics/SVG/1.1/DTD/svg11.dtd"><svg t="1722747563942" class="icon" viewBox="0 0 1024 1024" version="1.1" xmlns="http://www.w3.org/2000/svg" p-id="722" width="512" height="512" xmlns:xlink="http://www.w3.org/1999/xlink"><path d="M592.213333 541.013333c-17.066667 0 3.413333 8.533333 25.6 11.946667 5.973333-4.266667 11.52-9.386667 16.64-14.08a128 128 0 0 1-42.24 2.133333m91.306667-22.613333c9.813333-14.08 17.066667-29.44 20.053333-45.226667-2.56 11.52-8.533333 21.333333-14.08 31.146667-32 20.053333-2.986667-11.52 0-23.893333-34.133333 43.093333-4.693333 25.6-5.973333 37.973333m33.28-87.466667c2.133333-30.72-5.973333-21.333333-8.533333-9.386666 2.986667 1.706667 5.546667 21.333333 8.533333 9.386666M528.213333 13.226667c8.533333 1.706667 19.2 2.986667 17.92 5.12 9.813333-2.133333 11.946667-4.266667-18.346666-5.12m18.346666 5.12l-6.4 1.28 5.973334-0.426667V18.346667m282.88 424.106666c0.853333 27.306667-8.533333 40.533333-16.213334 64l-14.933333 7.68c-11.946667 23.04 1.28 14.933333-7.253333 33.28-18.773333 16.64-57.173333 52.053333-69.12 55.466667-8.533333 0 5.973333-10.666667 8.106666-14.506667-25.173333 17.066667-20.48 25.6-58.453333 36.266667l-1.28-2.56c-94.72 44.373333-226.133333-43.52-224-163.84-1.28 7.253333-2.986667 5.546667-5.12 8.533333a151.466667 151.466667 0 0 1 85.333333-149.333333 143.36 143.36 0 0 1 159.146667 20.48 142.506667 142.506667 0 0 0-116.053333-55.466667c-50.346667 0.426667-97.28 32.426667-113.066667 66.986667-25.6 16.213333-28.586667 62.72-39.68 70.826667-15.36 110.933333 28.16 158.72 101.546667 215.04 11.52 8.106667 3.413333 8.96 5.12 14.933333a200.533333 200.533333 0 0 1-65.28-49.493333c9.813333 14.08 20.053333 28.16 34.133333 38.826666-23.466667-7.68-54.186667-55.466667-63.146667-57.6 39.68 70.826667 161.28 124.586667 224.426667 98.133334a264.533333 264.533333 0 0 1-99.413333-11.946667c-14.08-6.826667-32.853333-21.76-29.866667-24.32a247.466667 247.466667 0 0 0 251.733333-35.84c18.773333-14.933333 39.68-40.106667 45.653334-40.533333-8.533333 13.653333 1.706667 6.826667-5.12 18.773333 18.773333-30.72-8.533333-12.8 19.626666-52.906667l10.24 14.08c-3.84-25.6 31.573333-56.32 28.16-96.426666 8.106667-12.8 8.533333 12.8 0 41.386666 12.373333-31.573333 3.413333-36.266667 6.4-62.293333 3.413333 8.533333 7.68 17.92 9.813334 26.88-7.68-29.866667 8.533333-51.2 11.946666-68.266667-3.84-2.133333-11.946667 12.8-13.653333-22.613333 0-15.786667 4.266667-8.533333 5.973333-11.946667-3.413333-2.133333-11.093333-13.653333-16.213333-36.693333 3.413333-5.546667 9.386667 14.08 14.506667 14.506667-3.413333-17.92-8.533333-32-8.533334-46.08-14.506667-29.013333-5.12 4.266667-17.066666-12.8-14.506667-46.506667 12.8-10.666667 14.506666-31.573334 23.04 32.853333 35.84 83.626667 41.813334 104.96-4.266667-25.6-11.946667-51.2-20.906667-75.093333 6.826667 2.986667-11.093333-52.906667 8.96-15.786667A333.653333 333.653333 0 0 0 755.2 68.266667c7.68 7.253333 17.92 16.64 14.08 17.92-32-19.2-26.453333-20.48-31.146667-28.586667-26.026667-10.666667-27.733333 0.853333-45.226666 0C643.413333 31.146667 634.026667 34.133333 588.8 17.066667l2.133333 9.813333c-32.853333-10.666667-38.4 4.266667-73.813333 0-2.133333-1.706667 11.52-5.973333 22.613333-7.68-31.573333 4.266667-29.866667-5.973333-61.013333 1.28 7.253333-5.546667 15.36-8.96 23.466667-13.653333-25.6 1.706667-61.44 14.933333-50.346667 2.986666C409.6 29.013333 334.933333 55.466667 293.12 94.72L291.84 85.333333c-19.2 23.04-83.626667 68.693333-88.746667 98.56l-5.546666 1.28c-9.813333 17.066667-16.213333 36.266667-24.32 53.76-12.8 22.186667-19.2 8.533333-17.066667 11.946667-25.6 52.053333-38.4 96-49.493333 132.266667 7.68 11.52 0 70.4 2.986666 117.76-12.8 232.96 163.84 459.52 356.693334 512 28.586667 9.813333 70.4 9.813333 106.24 10.666666-42.24-11.946667-47.786667-6.4-88.746667-20.906666-29.866667-13.653333-36.266667-29.866667-57.173333-48.213334l8.533333 14.933334c-41.386667-14.506667-24.32-17.92-58.026667-28.586667l8.96-11.52c-13.226667-1.28-35.413333-22.613333-41.386666-34.56l-14.506667 0.426667c-17.493333-21.333333-26.88-37.12-26.026667-49.493334l-4.693333 8.533334c-5.546667-8.96-64.853333-81.066667-34.133333-64.426667-5.546667-5.12-13.226667-8.533333-21.333334-23.466667l5.973334-7.253333c-14.933333-18.773333-27.306667-43.52-26.453334-51.2 8.533333 10.24 13.653333 12.8 19.2 14.08-37.546667-92.586667-39.68-5.12-68.266666-93.866667l6.4-0.853333c-4.266667-6.826667-7.68-14.506667-11.093334-21.76l2.56-25.6c-26.88-31.573333-7.68-132.266667-3.84-187.733333 2.986667-23.04 22.613333-46.933333 37.546667-84.48l-8.96-1.706667c17.066667-30.293333 99.84-122.453333 138.24-117.76 18.346667-23.466667-3.84 0-7.68-5.973333 40.96-42.24 53.76-29.866667 81.066667-37.546667 29.866667-17.066667-25.6 6.826667-11.52-6.4 51.2-12.8 36.266667-29.866667 103.253333-36.266667 6.826667 4.266667-16.64 5.973333-22.186667 11.093334 42.666667-20.906667 134.4-15.786667 194.56 11.52 69.546667 32.853333 147.626667 128.426667 150.613334 218.88l3.413333 0.853333c-1.706667 36.266667 5.546667 77.653333-7.253333 115.626667l8.533333-17.92m-421.12 122.453333l-2.133333 11.946667c11.093333 14.933333 20.053333 31.146667 34.133333 43.093333-10.24-20.053333-17.92-28.16-32-55.466667m26.453333-0.853333c-5.973333-6.4-9.386667-14.506667-13.226666-22.186667 3.413333 13.653333 11.093333 25.6 18.346666 37.546667l-5.12-15.36m466.773334-101.546667l-2.986667 6.4c-4.266667 32.426667-14.506667 64.426667-29.44 94.293334 17.066667-31.146667 27.733333-65.706667 32-100.693334M531.2 5.12c11.52-4.266667 28.16-2.133333 40.533333-5.12-15.786667 1.28-31.573333 2.133333-46.933333 4.266667l6.4 0.853333M128.426667 219.306667c2.986667 24.32-18.346667 34.133333 4.693333 17.92 12.8-28.16-4.693333-7.68-4.266667-17.92M101.546667 332.8c5.12-16.64 6.4-26.453333 8.533333-35.84-14.933333 18.773333-7.253333 22.613333-8.533333 35.413333" p-id="723"></path></svg>