<?xml version="1.0" standalone="no"?><!DOCTYPE svg PUBLIC "-//W3C//DTD SVG 1.1//EN" "http://www.w3.org/Graphics/SVG/1.1/DTD/svg11.dtd"><svg t="1738497347682" class="icon" viewBox="0 0 1024 1024" version="1.1" xmlns="http://www.w3.org/2000/svg" p-id="4369" xmlns:xlink="http://www.w3.org/1999/xlink" width="200" height="200"><path d="M823.134846 437.312195L686.078204 299.872555a60.931841 60.931841 0 0 0 18.815951-17.566954h0.064l122.559679 123.390677a171.487551 171.487551 0 0 1-4.383988 31.615917z m-10.879972 37.919901l-78.719794-79.167793A110.65571 110.65571 0 0 0 719.998116 346.144434l101.215735 101.759734a254.843333 254.843333 0 0 1-8.959977 27.327928z m-16.799956 31.615917l-69.375818-69.759817c3.87199-9.215976 6.143984-19.07195 6.815982-29.023924L808.222885 484.000073a159.807582 159.807582 0 0 1-12.799967 22.84794z m-20.927945 27.327929l-66.559826-66.783825c5.727985-6.719982 10.655972-13.951963 14.719962-21.663944v-0.063999l68.223821 68.47982c-5.119987 6.943982-10.559972 13.631964-16.383957 20.031948zM749.375039 557.599881l-67.295824-67.679823a120.533685 120.533685 0 0 0 19.999948-16.223958l66.559825 66.783825a238.208377 238.208377 0 0 1-19.263949 17.119956z m-29.535923 18.719951l-72.47981-73.279809a93.144756 93.144756 0 0 0 26.111931-8.959976l68.99182 68.479821a325.202149 325.202149 0 0 1-22.623941 13.759964z m-34.39991 14.079963l-22.431941-22.719941 1.759995-15.455959a66.431826 66.431826 0 0 0-4.607988-23.743938l51.455866 51.807864a142.271628 142.271628 0 0 1-26.175932 10.079974z m-39.999895 7.967979a67.962822 67.962822 0 0 0 14.495962-21.663943l16.223957 16.159957a191.775498 191.775498 0 0 1-30.719919 5.503986z m-44.735883 0.543999l-81.279787-0.16-0.192 106.78372c-0.383999 132.159654-122.750679 220.798422-239.582373 196.222487-10.879972 0-37.951901-16.543957-37.951901-46.143879a47.455876 47.455876 0 0 1 46.687878-46.943877c11.999969 0 11.999969 3.007992 29.919922 3.007992a106.655721 106.655721 0 0 0 107.00672-106.239722v-0.319999l0.159999-89.599766c0-8.574978-8.639977-17.150955-17.022955-17.150955l-64.063832-0.223999c-62.143837-0.191999-61.919838-94.175754 0.223999-93.983754l81.279787 0.255999 0.095-106.783721a200.606475 200.606475 0 0 1 200.959474-200.222476h0.447999a166.033565 166.033565 0 0 1 38.527899 4.351989c21.311944 3.487991 37.855901 22.719941 37.855901 45.75988 0 29.567923-28.383926 53.055861-57.791849 45.631881-52.223863-11.263971-125.631671 27.486928-125.82367 104.702726l-0.16 89.599765a17.055955 17.055955 0 0 0 16.927956 17.151955h0.096l64.063832 0.16c61.951838 0.383999 61.759838 94.335753-0.383999 94.143754z m-483.005736 98.879741a155.199594 155.199594 0 0 1 3.999989-32.479915l137.69564 138.239638a71.967812 71.967812 0 0 0-18.87995 16.574957L117.697692 697.759514z m10.079974 70.526815l103.519729 104.063728a56.215853 56.215853 0 0 0 7.999979 17.535954 202.59047 202.59047 0 0 1-111.519708-121.599682z m-10.047974-58.526847l-0.032-0.032 0.032 0.032 117.951691 118.49469a59.519844 59.519844 0 0 0-6.815982 27.327929v2.047994l-105.599724-106.207722a167.231562 167.231562 0 0 1-5.535985-41.662891z m15.039961-82.015785l78.687794 79.679791c0.639998 17.342955 4.959987 34.39991 12.767966 49.91987L123.777676 655.359625c2.687993-9.279976 5.567985-18.271952 8.991977-27.583928z m16.735956-31.103919h0.032l69.407818 69.791818c-3.83999 9.215976-6.175984 19.00795-6.847982 28.991924l-75.295803-75.935801a178.839532 178.839532 0 0 1 12.735967-22.815941z m20.959945-27.295928l66.623825 66.751825a109.999712 109.999712 0 0 0-14.719961 21.727943l-68.287821-68.415821c5.311986-7.263981 10.879972-13.759964 16.383957-20.095947z m25.375933-23.455939l67.327824 67.743823a129.663661 129.663661 0 0 0-19.999947 16.159958l-66.559826-65.983828a126.03767 126.03767 0 0 1 19.231949-17.919953z m28.991925-18.591951l72.895809 73.119809a100.575737 100.575737 0 0 0-26.94393 9.023976l-67.327823-68.479821c6.847982-5.055987 13.983963-9.535975 21.375944-13.663964z m34.719909-14.239963v0.064l22.431941 22.687941-1.695996 15.23196a67.709823 67.709823 0 0 0 4.543989 23.871937L233.409389 523.039971c8.415978-4.063989 17.151955-7.45598 26.143932-9.919974z m40.223894-7.935979v0.032h-0.063999a95.839749 95.839749 0 0 0-14.655962 21.759943l-16.127958-16.255958a163.839571 163.839571 0 0 1 30.78392-5.503985l0.063999-0.032z m517.437646-169.823556l-103.519729-104.190727a50.335868 50.335868 0 0 0-7.999979-17.503954 202.302471 202.302471 0 0 1 111.551708 121.694681z m10.174974 59.231845L709.568143 275.13762c4.319989-8.959977 7.199981-17.471954 7.199981-27.199929v-3.007992l105.215725 106.94272a192.099497 192.099497 0 0 1 5.406986 42.687888zM513.855655 0.00234C231.361394-0.637658 1.859995 227.873744 0.899998 510.624004L0.003 899.933985a122.43168 122.43168 0 0 0 121.694681 123.167677h0.671999l388.733982 0.895998c282.463261 0.639998 512.221659-227.871404 512.893658-510.621664C1024.637318 230.625736 796.350916 0.674338 513.855655 0.00234z" fill="#294173" p-id="4370"></path><path d="M127.777666 768.319329l103.519729 104.062728c1.599996 6.271984 4.351989 12.191968 7.999979 17.535954a202.55947 202.55947 0 0 1-111.519708-121.599682z m-10.047974-58.559847l117.951691 118.52669c-3.519991 6.751982-5.759985 14.079963-6.495983 21.663944l-0.319999 5.663985v2.047994l-105.599724-106.207722a167.039563 167.039563 0 0 1-5.535985-41.662891z m3.967989-44.447883l137.69564 138.239638a71.149814 71.149814 0 0 0-14.719961 11.839969l-4.159989 4.734988L117.697692 697.759514a156.53459 156.53459 0 0 1 3.999989-32.447915z m11.071972-37.535902l78.719793 79.679791a120.798684 120.798684 0 0 0 9.599975 43.166887l3.135992 6.719983L123.777676 655.359625c2.687993-9.279976 5.567985-18.271952 8.991977-27.583928z m16.767956-31.071919l69.407818 69.759818c-2.879992 6.911982-4.927987 14.143963-6.047984 21.535943l-0.799998 7.455981-75.295803-75.935801a178.839532 178.839532 0 0 1 12.735967-22.815941z m20.927945-27.327928l66.623825 66.751825a109.439714 109.439714 0 0 0-11.519969 15.967958l-3.199992 5.759985-68.287821-68.383821c5.311986-7.263981 10.879972-13.759964 16.383957-20.095947z m25.375933-23.455939l67.327824 67.743823A126.863668 126.863668 0 0 0 249.473347 623.999707l-6.303983 5.823985-66.559826-65.983828a125.759671 125.759671 0 0 1 19.231949-17.919953z m28.991925-18.591951l72.863809 73.119809a100.058738 100.058738 0 0 0-20.447947 6.079984l-6.463983 2.943992-67.327823-68.479821c6.847982-5.055987 13.983963-9.535975 21.375944-13.663964z m34.719909-14.239963v0.064l22.431941 22.687941-1.695996 15.23196c0.032 6.111984 0.927998 12.191968 2.591994 18.079952l1.951995 5.759985-51.423866-51.871864c8.415978-4.063989 17.151955-7.45598 26.143932-9.919974z m40.159895-7.903979a93.902754 93.902754 0 0 0-11.51997 15.935958l-3.135992 5.791985-16.127958-16.223958c10.047974-2.815993 20.383947-4.639988 30.78392-5.503985z m360.222057 71.519813l16.223957 16.159957a192.479496 192.479496 0 0 1-30.719919 5.503986 67.962822 67.962822 0 0 0 14.495962-21.663943z m0.223999-48.255874l51.423866 51.839864a141.823629 141.823629 0 0 1-17.215955 7.295981l-8.927977 2.783993-22.431941-22.687941 1.759995-15.455959a66.495826 66.495826 0 0 0-4.607988-23.775938z m13.311965-34.36791l69.02382 68.479821c-4.927987 3.231992-9.919974 6.399983-14.975961 9.375975l-7.67998 4.383989-72.47981-73.279809a94.719752 94.719752 0 0 0 26.111931-8.959976z m28.607926-20.415947l66.559825 66.815825A270.931291 270.931291 0 0 1 755.998021 552.127895l-6.623982 5.471986-67.327824-67.679823a118.081691 118.081691 0 0 0 20.031948-16.255958z m20.639946-27.935927l68.191821 68.447821a257.630326 257.630326 0 0 1-10.687972 13.503965l-5.695985 6.495983-66.559826-66.783825c5.727985-6.719982 10.655972-13.951963 14.719962-21.663944z m10.175973-37.663901L808.222885 484.000073a161.097578 161.097578 0 0 1-8.095979 15.45596l-4.671988 7.359981-69.375818-69.727818c3.87199-9.215976 6.143984-19.07195 6.815982-29.023924zM719.998116 346.144434l101.215735 101.759734a242.555365 242.555365 0 0 1-5.631986 18.335952l-3.359991 8.959976-78.687794-79.135793A110.65571 110.65571 0 0 0 719.998116 346.144434z m-15.039961-63.839833l122.590679 123.391677c-0.351999 7.999979-1.279997 15.935958-2.751993 23.807938l-1.662995 7.807979-137.055642-137.43964a61.387839 61.387839 0 0 0 15.679959-13.439965l3.135992-4.126989h0.032z m11.807969-37.374902l105.215725 106.94272c2.559993 10.463973 4.190989 21.151945 4.959987 31.903917l0.446999 10.783971-117.854692-119.422687c3.487991-7.167981 6.015984-14.079963 6.879982-21.503944l0.319999-5.695985v-3.007992z m-11.071971-31.295918a202.302471 202.302471 0 0 1 108.479716 113.150704l3.039992 8.543977-103.519729-104.159727a50.303868 50.303868 0 0 0-7.999979-17.534954z" fill="#3C6EB4" p-id="4371"></path></svg>