<?xml version="1.0" standalone="no"?><!DOCTYPE svg PUBLIC "-//W3C//DTD SVG 1.1//EN" "http://www.w3.org/Graphics/SVG/1.1/DTD/svg11.dtd"><svg t="1722747658269" class="icon" viewBox="0 0 1084 1024" version="1.1" xmlns="http://www.w3.org/2000/svg" p-id="1978" width="542" height="512" xmlns:xlink="http://www.w3.org/1999/xlink"><path d="M821.235026 544.015116c-1.287001-129.729651 105.791442-191.891776 110.553344-194.980577-60.102924-88.030835-153.796561-100.12864-187.258574-101.54434-79.794032-7.979403-155.598362 46.975519-196.010178 46.975519-40.411816 0-102.831341-45.688518-168.983167-44.530218-86.872534 1.287001-167.052666 50.57912-211.840284 128.442651-90.347436 156.756662-23.166009 388.931554 64.864826 515.958505 42.985817 62.162125 94.337137 132.046252 161.647264 129.600951 64.864826-2.574001 89.317835-41.956217 167.696167-41.956217s100.38604 41.956217 169.111867 40.669216c69.755428-1.287001 114.028245-63.449125 156.756662-125.86865 49.42082-72.200729 69.755428-142.084856 70.913728-145.559758C957.14228 750.449998 822.522026 698.969977 821.235026 544.015116L821.235026 544.015116 821.235026 544.015116zM692.277575 163.449065c35.778614-43.371917 59.845524-103.474841 53.281821-163.449065-51.48002 2.059201-113.899545 34.234214-150.83646 77.477431C561.647023 115.958746 532.560811 177.21997 540.411514 235.907194 597.811737 240.411695 656.49896 206.692282 692.277575 163.449065L692.277575 163.449065 692.277575 163.449065z" p-id="1979"></path></svg>