<?xml version="1.0" standalone="no"?><!DOCTYPE svg PUBLIC "-//W3C//DTD SVG 1.1//EN" "http://www.w3.org/Graphics/SVG/1.1/DTD/svg11.dtd"><svg t="1745570802114" class="icon" viewBox="0 0 3071 1024" version="1.1" xmlns="http://www.w3.org/2000/svg" p-id="22018" xmlns:xlink="http://www.w3.org/1999/xlink" width="599.8046875" height="200"><path d="M3070.08659 243.808595c41.837555 240.785368-611.033101 556.078644-1458.414254 704.216746C764.437469 1096.163443 43.6905 1021.070396 1.950469 780.187504-39.887086 539.304612 613.178616 224.108861 1460.413484 76.01952 2307.745875-72.167344 3028.346559 2.974465 3070.08659 243.808595z" fill="#F5F7F9" p-id="22019"></path><path d="M2281.707117 612.105859L2277.172277 341.332033h83.772634v341.332033h-120.441446l-83.577587-280.087314h-1.852945L2159.705296 682.664066h-83.285016V341.332033h125.707712l77.774942 270.773826zM853.232559 373.02715l-40.959844 309.636916H731.425785l55.442075-341.332033h133.119492L975.23438 682.664066h-80.505598l-39.838324-309.636916zM1195.588588 602.304753L1233.525206 341.332033h125.171332L1365.328132 682.664066h-76.702184l-2.047992-306.857498h-1.560375L1233.671491 682.664066h-77.872465L1104.452935 375.806568h-1.657898L1100.844568 682.664066H1023.996099l6.826641-341.332033h125.220094l37.887856 260.97272zM595.380589 580.264456c3.364559 7.65559 2.340563 17.554219 0.780188 23.600672-2.82818 10.532531-10.435008 21.406395-32.816637 21.406395-21.162586 0-33.986918-11.459004-33.986919-28.9157v-30.866168H438.904233L438.855471 590.163085C438.855471 661.20891 498.052198 682.664066 561.442433 682.664066c61.00091 0 111.176719-19.699734 119.173641-72.801246 4.095984-27.550371 0.975234-45.592207-0.341332-52.418848-14.238422-66.706032-142.189173-86.649575-151.697708-123.903528a39.692039 39.692039 0 0 1-0.341332-16.822793c2.340563-10.142438 9.703582-21.357633 30.768645-21.357633 19.699734 0 31.353785 11.556527 31.353785 28.915699v19.699735h84.065204v-22.332868C674.374574 352.157135 608.497491 341.332033 560.759769 341.332033c-59.976914 0-109.031204 18.7245-118.00336 70.606969a105.81293 105.81293 0 0 0 0.780187 43.056598c14.726039 65.048133 134.436059 83.918918 151.843993 125.220094zM1619.474212 580.313218c3.315797 7.704352 2.243039 17.554219 0.731425 23.55191-2.779418 10.727578-10.435008 21.455156-32.865398 21.455156-21.016301 0-33.889395-11.605289-33.889395-28.818175l-0.097523-30.91493h-90.355466l-0.146285 24.575906C1462.85157 661.257671 1522.048297 682.664066 1585.438532 682.664066c60.903387 0 111.127958-19.650973 119.076117-72.801246 4.144746-27.599133 1.219043-45.543446-0.29257-52.321325-14.238422-66.754793-142.140411-86.698336-151.648946-124.049813a38.619281 38.619281 0 0 1-0.390094-16.676508c2.438086-10.337484 9.752344-21.357633 30.866168-21.357633 19.748496 0 31.2075 11.312719 31.207501 28.818176v19.699735h84.26025v-22.430391C1698.516958 352.254658 1632.542352 341.332033 1584.755868 341.332033c-59.879391 0-108.982442 18.675738-117.808314 70.704493a104.350079 104.350079 0 0 0 0.82895 43.056597c14.628516 65.048133 134.338536 83.96768 151.648946 125.220095zM1877.423705 623.272292c24.039527 0 31.548832-15.89632 33.206731-24.088289a67.291172 67.291172 0 0 0 0.828949-12.629285V341.332033H1999.230479v237.664618c0.146285 6.095215-0.487617 18.626977-0.828949 21.747727C1992.257553 662.574238 1941.057748 682.664066 1877.326182 682.664066c-63.780328 0-115.028895-20.089828-121.12411-81.919688a310.953482 310.953482 0 0 1-0.780188-21.747727V341.332033h87.673571v245.173923c0 4.291031 0.146285 9.118441 0.828949 12.678047 1.950469 8.094445 9.264727 24.088289 33.499301 24.088289zM2559.600154 624.003718c24.770953 0 33.499301-14.921086 35.108438-23.600672 0.585141-3.705891 0.780188-8.289492 0.731425-12.385477v-47.298867h-35.157199v-47.591438H2681.894545v87.527286a219.183927 219.183927 0 0 1-1.267805 21.503918C2674.970381 661.50148 2620.796111 682.664066 2560.039009 682.664066c-60.854625 0-114.88261-21.162586-120.734016-80.456836a282.671685 282.671685 0 0 1-1.219043-21.55268l0.097524-137.264239c0-5.802645 0.731426-16.042606 1.462851-21.455156 7.558066-60.952149 59.489297-80.603122 120.441446-80.603122 60.757102 0 114.053661 19.504688 120.343923 80.55436 1.12152 10.386246 0.780188 21.503918 0.780187 21.503918v10.873863h-86.454528v-18.236883c0.048762 0.048762-0.146285-7.801875-1.121519-12.385476-1.462852-7.216734-7.996922-23.795719-34.181965-23.795719-25.014762 0-32.280258 15.60375-34.133204 23.795719-1.072758 4.291031-1.462852 10.093676-1.462851 15.359941v149.162099c-0.048762 4.095984 0.195047 8.679586 0.877711 12.385476 1.41409 8.533301 10.044914 23.405625 34.864629 23.405625z" fill="#040E3F" p-id="22020"></path></svg>