<?xml version="1.0" standalone="no"?><!DOCTYPE svg PUBLIC "-//W3C//DTD SVG 1.1//EN" "http://www.w3.org/Graphics/SVG/1.1/DTD/svg11.dtd"><svg t="1722759728072" class="icon" viewBox="0 0 1024 1024" version="1.1" xmlns="http://www.w3.org/2000/svg" p-id="6966" width="512" height="512" xmlns:xlink="http://www.w3.org/1999/xlink"><path d="M839.4 270.3c0 36.1-12.5 71-37.4 104.5-17.2 22.4-44.3 49.5-81.3 81.3-38.7 33.5-63.7 57.6-74.8 72.2-17.2 24.1-25.8 47.3-25.8 69.7 0 6.9 0.4 12 1.3 15.5l3.9 24.5h-218l-2.6-16.8c-2.6-12.9-3.9-25.8-3.9-38.7 0-36.1 10.8-70.5 32.3-103.2 11.2-16.3 23.9-31.6 38-45.8s32.5-31.2 54.8-51c25.8-23.2 45.1-42.6 58-58 12.9-15.5 19.4-30.1 19.4-43.9 0-22.4-9.3-38.5-27.7-48.4-18.5-9.9-41.1-14.8-67.7-14.8-18.9 0-48.6 7.8-89 23.2-25.8 11.2-55.5 28.4-89 51.6L317 303.8 209.9 177.4l20.6-18.1c35.3-31 74.8-55.9 118.7-74.8C406 61.3 467.5 49.7 533.7 49.7c95.5 0 170.3 19.6 224.5 58.7 54.1 39.2 81.2 93.1 81.2 161.9zM648.5 850.8c0 35.3-12.7 64.7-38.1 88.4-25.4 23.6-57 35.5-94.8 35.5s-69.7-11.8-95.5-35.5c-25.8-23.7-38.7-53.1-38.7-88.4 0-35.3 12.9-64.9 38.7-89 25.8-24.1 57.6-36.1 95.5-36.1 37.8 0 69.4 12 94.8 36.1s38.1 53.8 38.1 89z" p-id="6967"></path></svg>